<svg width="140" height="52" viewBox="0 0 140 52" fill="none" xmlns="http://www.w3.org/2000/svg">
<g clip-path="url(#clip0_2124_6129)">
<path d="M0 32.8772V17.0469C0 16.2197 0.195531 15.6034 0.570298 15.1979C0.945065 14.7924 1.43389 14.5815 2.03678 14.5815C2.65596 14.5815 3.14479 14.7924 3.53585 15.1979C3.91061 15.6034 4.10615 16.2197 4.10615 17.0631V32.8772C4.10615 33.7044 3.91061 34.337 3.53585 34.7425C3.16108 35.148 2.65596 35.3588 2.03678 35.3588C1.45019 35.3588 0.961359 35.148 0.586592 34.7425C0.195531 34.3208 0 33.7044 0 32.8772Z" fill="#EC1B2E"/>
<path d="M11.8134 22.2207V22.6749C12.4814 21.799 13.1984 21.1665 13.9805 20.761C14.7626 20.3555 15.6751 20.1446 16.6854 20.1446C17.6793 20.1446 18.5592 20.3555 19.3413 20.7934C20.1234 21.2151 20.71 21.8315 21.0848 22.61C21.3292 23.0642 21.4921 23.567 21.5736 24.086C21.6551 24.6212 21.6877 25.2862 21.6877 26.1134V33.0717C21.6877 33.8178 21.5084 34.3854 21.1663 34.7747C20.8241 35.164 20.3678 35.3424 19.8301 35.3424C19.2761 35.3424 18.8199 35.1478 18.4614 34.7585C18.1192 34.3692 17.94 33.8015 17.94 33.0717V26.8271C17.94 25.5944 17.7608 24.6537 17.4186 23.9887C17.0764 23.3399 16.3921 23.0155 15.3655 23.0155C14.6975 23.0155 14.0783 23.2101 13.5406 23.6156C12.9866 24.0211 12.5792 24.5564 12.3348 25.2538C12.1556 25.8053 12.0578 26.8595 12.0578 28.3842V33.0717C12.0578 33.834 11.8786 34.4017 11.5201 34.7747C11.1616 35.1478 10.7054 35.3424 10.1514 35.3424C9.61366 35.3424 9.15742 35.1478 8.81524 34.7585C8.47306 34.3692 8.29382 33.8015 8.29382 33.0717V22.2532C8.29382 21.5395 8.45677 21.0043 8.76636 20.6637C9.07595 20.3068 9.4996 20.1284 10.0536 20.1284C10.3795 20.1284 10.6891 20.2095 10.9498 20.3555C11.2105 20.5177 11.4223 20.7448 11.5853 21.0529C11.7319 21.3935 11.8134 21.7666 11.8134 22.2207Z" fill="#EC1B2E"/>
<path d="M28.8571 22.2207V22.6749C29.5251 21.799 30.2421 21.1665 31.0242 20.761C31.8063 20.3555 32.7188 20.1446 33.729 20.1446C34.723 20.1446 35.6029 20.3555 36.385 20.7934C37.1671 21.2151 37.7537 21.8315 38.1285 22.61C38.3729 23.0642 38.5358 23.567 38.6173 24.086C38.6988 24.6212 38.7314 25.2862 38.7314 26.1134V33.0717C38.7314 33.8178 38.5521 34.3854 38.21 34.7747C37.8678 35.164 37.4115 35.3424 36.8738 35.3424C36.3198 35.3424 35.8636 35.1478 35.5051 34.7585C35.1629 34.3692 34.9837 33.8015 34.9837 33.0717V26.8271C34.9837 25.5944 34.8045 24.6537 34.4623 23.9887C34.1201 23.3399 33.4358 23.0155 32.4092 23.0155C31.7412 23.0155 31.122 23.2101 30.5843 23.6156C30.0303 24.0211 29.6229 24.5564 29.3785 25.2538C29.1993 25.8053 29.1015 26.8595 29.1015 28.3842V33.0717C29.1015 33.834 28.9223 34.4017 28.5638 34.7747C28.2053 35.1478 27.7491 35.3424 27.1951 35.3424C26.6574 35.3424 26.2011 35.1478 25.8589 34.7585C25.5168 34.3692 25.3375 33.8015 25.3375 33.0717V22.2532C25.3375 21.5395 25.5005 21.0043 25.8101 20.6637C26.1196 20.3068 26.5433 20.1284 27.0973 20.1284C27.4232 20.1284 27.7328 20.2095 27.9935 20.3555C28.2542 20.5177 28.466 20.7448 28.629 21.0529C28.7756 21.3935 28.8571 21.7666 28.8571 22.2207Z" fill="#EC1B2E"/>
<path d="M77.1206 22.4802L79.5647 30.8495L81.7971 23.0803C82.0415 22.2693 82.2044 21.7178 82.3348 21.4097C82.4488 21.1177 82.6606 20.8258 82.9865 20.5662C83.2961 20.2905 83.7361 20.1608 84.2901 20.1608C84.8441 20.1608 85.284 20.2905 85.6099 20.5662C85.9195 20.842 86.1476 21.1339 86.278 21.4421C86.4083 21.7503 86.5876 22.3017 86.8157 23.0803L89.048 30.8495L91.5247 22.4802C91.6877 21.88 91.818 21.4421 91.9321 21.1664C92.0298 20.8906 92.2091 20.6636 92.4372 20.4527C92.6816 20.2418 93.0238 20.1445 93.4637 20.1445C93.92 20.1445 94.311 20.3067 94.6369 20.6149C94.9628 20.9231 95.1257 21.2961 95.1257 21.7178C95.1257 22.1071 94.9791 22.6748 94.7021 23.4533L91.6388 32.4228C91.3781 33.1851 91.1662 33.7365 91.0196 34.0609C90.8729 34.4015 90.6448 34.6935 90.3189 34.9692C89.9931 35.245 89.5694 35.3747 89.0154 35.3747C88.4451 35.3747 88.0052 35.2287 87.6793 34.953C87.3534 34.6773 87.109 34.3205 86.9623 33.915C86.7994 33.5095 86.6364 32.9742 86.4572 32.3092L84.3064 25.0104L82.2207 32.3092C81.9437 33.3311 81.6504 34.0934 81.3245 34.6124C80.9986 35.1314 80.4446 35.3909 79.6299 35.3909C79.2226 35.3909 78.8641 35.3098 78.5708 35.1476C78.2775 34.9855 78.0331 34.7584 77.8539 34.4664C77.6583 34.1745 77.4954 33.8176 77.3487 33.4122C77.2021 33.0067 77.088 32.6823 77.0066 32.439L73.9595 23.4695C73.6499 22.6261 73.5033 22.0422 73.5033 21.7341C73.5033 21.3286 73.6662 20.9717 73.9921 20.6473C74.318 20.3229 74.7091 20.1608 75.1816 20.1608C75.8008 20.1608 76.2244 20.3392 76.4526 20.696C76.6807 21.0528 76.8762 21.6205 77.1206 22.4802Z" fill="#EC1B2E"/>
<path d="M106.841 33.25C105.929 33.9474 105.049 34.4826 104.202 34.8395C103.354 35.1963 102.393 35.3747 101.35 35.3747C100.389 35.3747 99.5415 35.1801 98.8083 34.807C98.0751 34.434 97.521 33.915 97.1137 33.2662C96.7226 32.6174 96.5271 31.92 96.5271 31.1576C96.5271 30.1358 96.853 29.2599 97.5048 28.5463C98.1565 27.8164 99.0527 27.346 100.193 27.0865C100.438 27.0379 101.024 26.9081 101.969 26.7135C102.914 26.5188 103.729 26.3404 104.397 26.1782C105.065 26.016 105.799 25.8214 106.597 25.5943C106.548 24.6049 106.353 23.8913 105.994 23.4209C105.636 22.9667 104.902 22.7234 103.794 22.7234C102.833 22.7234 102.116 22.8532 101.643 23.1289C101.155 23.3885 100.747 23.7939 100.405 24.3292C100.063 24.8644 99.8185 25.205 99.6719 25.3835C99.5252 25.5457 99.2319 25.643 98.7594 25.643C98.3358 25.643 97.9773 25.5132 97.6677 25.2375C97.3581 24.9618 97.2114 24.6211 97.2114 24.1994C97.2114 23.5344 97.4396 22.9019 97.9121 22.2855C98.3846 21.6692 99.1179 21.1501 100.096 20.7447C101.089 20.3392 102.328 20.1445 103.794 20.1445C105.44 20.1445 106.744 20.3392 107.689 20.7284C108.634 21.1177 109.302 21.7341 109.693 22.5775C110.084 23.4209 110.279 24.54 110.279 25.9187C110.279 26.7946 110.279 27.5407 110.279 28.157C110.279 28.7734 110.263 29.4546 110.263 30.2007C110.263 30.8981 110.377 31.6442 110.622 32.4065C110.85 33.1689 110.98 33.6554 110.98 33.8825C110.98 34.2718 110.801 34.6124 110.442 34.9368C110.084 35.245 109.677 35.4072 109.204 35.4072C108.813 35.4072 108.438 35.2287 108.063 34.8719C107.656 34.4664 107.265 33.9312 106.841 33.25ZM106.597 27.8326C106.043 28.0273 105.245 28.2381 104.202 28.4652C103.143 28.6923 102.426 28.8545 102.018 28.9518C101.611 29.0491 101.236 29.2599 100.861 29.5681C100.487 29.8763 100.307 30.298 100.307 30.8495C100.307 31.4171 100.519 31.9037 100.959 32.293C101.383 32.6985 101.953 32.8931 102.654 32.8931C103.403 32.8931 104.088 32.7309 104.707 32.4065C105.342 32.0821 105.799 31.6604 106.092 31.1576C106.434 30.5899 106.597 29.6654 106.597 28.3679V27.8326Z" fill="#EC1B2E"/>
<path d="M117.204 35.8289L117.547 34.9855L112.919 23.4047C112.642 22.7397 112.495 22.2531 112.495 21.9449C112.495 21.6205 112.577 21.3286 112.74 21.0528C112.903 20.7771 113.131 20.5662 113.424 20.3878C113.717 20.2256 114.011 20.1445 114.32 20.1445C114.858 20.1445 115.265 20.3229 115.542 20.6636C115.819 21.0042 116.064 21.4908 116.276 22.1395L119.453 31.3523L122.467 22.7883C122.712 22.0909 122.924 21.5556 123.119 21.1501C123.315 20.7609 123.51 20.4851 123.738 20.3554C123.95 20.2256 124.26 20.1445 124.651 20.1445C124.928 20.1445 125.205 20.2256 125.466 20.3716C125.726 20.5176 125.922 20.7284 126.068 20.9879C126.215 21.2475 126.28 21.507 126.28 21.7989C126.248 21.9773 126.183 22.2206 126.101 22.545C126.02 22.8694 125.922 23.1938 125.791 23.5182L120.903 36.283C120.48 37.4022 120.072 38.2943 119.665 38.9268C119.258 39.5594 118.72 40.0622 118.068 40.4028C117.4 40.7434 116.504 40.9218 115.379 40.9218C114.271 40.9218 113.457 40.8083 112.903 40.565C112.349 40.3217 112.072 39.9 112.072 39.2674C112.072 38.8457 112.202 38.5051 112.463 38.278C112.724 38.051 113.115 37.9212 113.62 37.9212C113.815 37.9212 114.027 37.9536 114.206 38.0023C114.451 38.051 114.646 38.0834 114.826 38.0834C115.249 38.0834 115.591 38.0185 115.852 37.8888C116.096 37.759 116.325 37.5319 116.52 37.2238C116.716 36.8994 116.944 36.4452 117.204 35.8289Z" fill="#EC1B2E"/>
<path d="M69.0876 44.5553C69.0876 44.4093 69.1202 44.312 69.1691 44.2633C69.2179 44.1985 69.3157 44.166 69.4949 44.166H71.4828C71.7435 44.166 72.0043 44.2147 72.2161 44.2958C72.4442 44.3769 72.6397 44.5066 72.7864 44.6526C72.9493 44.7986 73.0634 44.9932 73.1611 45.2041C73.2426 45.4311 73.2915 45.6582 73.2915 45.9177C73.2915 46.0799 73.2589 46.2583 73.21 46.4692C73.1611 46.6801 73.0634 46.8747 72.9167 47.0693C72.7701 47.2477 72.5745 47.4099 72.3301 47.5397C72.0857 47.6694 71.7761 47.7343 71.4014 47.7343H69.7394V50.1024C69.7394 50.151 69.7231 50.1673 69.7068 50.1835C69.6905 50.1997 69.6579 50.1997 69.609 50.1997H69.1854C69.1365 50.1997 69.1202 50.1997 69.1039 50.1835C69.0876 50.1673 69.0713 50.1348 69.0713 50.1024L69.0876 44.5553ZM69.7556 47.1342H71.3525C71.7598 47.1342 72.0694 47.0369 72.2813 46.826C72.5094 46.6152 72.6234 46.3232 72.6234 45.9502C72.6234 45.8204 72.6071 45.6907 72.5745 45.5447C72.5257 45.3987 72.4605 45.2852 72.3627 45.1554C72.265 45.0419 72.1346 44.9446 71.9717 44.8797C71.8087 44.8148 71.5969 44.7661 71.3525 44.7661H69.7719L69.7556 47.1342Z" fill="black"/>
<path d="M77.7723 47.9126C77.7723 48.6749 77.6094 49.275 77.2509 49.6805C76.9088 50.086 76.4199 50.2968 75.7519 50.2968C75.1164 50.2968 74.6276 50.1022 74.2854 49.6967C73.9432 49.2912 73.7803 48.7073 73.7803 47.945C73.7803 47.5719 73.8292 47.2151 73.9269 46.9394C74.0247 46.6474 74.1713 46.4041 74.3506 46.2095C74.5298 46.0149 74.7416 45.8689 74.986 45.7554C75.2305 45.658 75.5075 45.6094 75.8008 45.6094C76.4362 45.6094 76.925 45.8202 77.2835 46.2257C77.6094 46.5988 77.7723 47.1827 77.7723 47.9126ZM77.1532 47.945C77.1532 47.7017 77.1369 47.4908 77.1043 47.2638C77.0554 47.0367 76.9902 46.8421 76.8925 46.6799C76.7947 46.5177 76.648 46.3717 76.4851 46.2744C76.3059 46.1771 76.094 46.1284 75.8333 46.1284C75.5889 46.1284 75.3934 46.1771 75.1979 46.2744C75.0186 46.3717 74.872 46.5015 74.7742 46.6636C74.6602 46.8258 74.5787 47.0205 74.5298 47.2313C74.4809 47.4584 74.4483 47.6693 74.4483 47.9288C74.4483 48.1883 74.4809 48.4478 74.5135 48.6587C74.5624 48.8857 74.6439 49.0804 74.7416 49.2426C74.8394 49.4048 74.986 49.5345 75.1653 49.6318C75.3282 49.7291 75.5563 49.7778 75.8008 49.7778C76.0615 49.7778 76.2733 49.7291 76.4525 49.6156C76.6318 49.5021 76.7784 49.3723 76.8762 49.1939C76.9739 49.0317 77.0554 48.8208 77.1043 48.61C77.1369 48.3829 77.1532 48.1558 77.1532 47.945Z" fill="black"/>
<path d="M81.2268 46.5989L80.8683 47.8965L80.2328 49.9077C80.2003 50.0051 80.1677 50.0862 80.1188 50.151C80.0699 50.1997 79.9884 50.2321 79.8744 50.2321H79.5974C79.4996 50.2321 79.4344 50.1997 79.3693 50.1672C79.3204 50.1186 79.2715 50.0213 79.2389 49.8915L78.2938 45.7393C78.2775 45.6906 78.2938 45.6582 78.3427 45.6582H78.8315C78.8641 45.6582 78.8804 45.6582 78.8967 45.6744C78.913 45.6906 78.9293 45.7069 78.9293 45.7231L79.4833 48.4318L79.7114 49.5347H79.7603L80.0699 48.5129L80.7706 46.161C80.8031 46.0961 80.8194 46.015 80.8846 45.9502C80.9335 45.9015 81.0313 45.8528 81.129 45.8528H81.3571C81.4712 45.8528 81.5364 45.8853 81.5853 45.9339C81.6342 45.9826 81.6504 46.0799 81.683 46.161L82.3674 48.3831L82.7096 49.5833H82.7585L83.0029 48.3831L83.5569 45.7231C83.5732 45.6906 83.5895 45.6744 83.5895 45.6744C83.6058 45.6582 83.6221 45.6582 83.6546 45.6582H84.1272C84.1761 45.6582 84.2086 45.6906 84.1761 45.7393L83.231 49.8915C83.1984 50.0375 83.1495 50.1348 83.0843 50.1672C83.0192 50.2159 82.9377 50.2321 82.8399 50.2321H82.5955C82.4815 50.2321 82.4 50.1997 82.3511 50.1672C82.3022 50.1186 82.2533 50.0375 82.2207 49.924L81.5853 47.8965L81.2268 46.6152V46.5989Z" fill="black"/>
<path d="M86.6527 45.5771C86.9949 45.5771 87.2719 45.6258 87.5 45.7231C87.7444 45.8204 87.9399 45.9502 88.0866 46.1286C88.2332 46.2908 88.3473 46.5017 88.4288 46.745C88.4939 46.9883 88.5428 47.2478 88.5428 47.5235C88.5428 47.7668 88.4939 47.929 88.3799 47.9939C88.2658 48.075 88.1355 48.1074 87.9725 48.1074H85.3166C85.3166 48.3994 85.3654 48.6589 85.4306 48.8697C85.4958 49.0806 85.6099 49.2428 85.7402 49.3725C85.8706 49.5023 86.0172 49.5996 86.1965 49.6483C86.3757 49.6969 86.5549 49.7294 86.7668 49.7294C86.9623 49.7294 87.1415 49.6969 87.3208 49.6645C87.5 49.6158 87.6629 49.5672 87.777 49.5023C87.8422 49.4698 87.9073 49.4698 87.9236 49.5347L88.0703 49.8429C88.1029 49.9078 88.0866 49.9727 88.0214 49.9889C87.8259 50.1186 87.5978 50.1997 87.3696 50.2322C87.1415 50.2646 86.9134 50.297 86.7016 50.297C86.0661 50.297 85.5773 50.1186 85.2025 49.7456C84.844 49.3725 84.6648 48.7886 84.6648 47.9614C84.6648 47.5722 84.7137 47.2315 84.8114 46.9396C84.9092 46.6476 85.0559 46.4043 85.2188 46.1935C85.398 45.9989 85.6099 45.8529 85.8543 45.7393C86.0987 45.642 86.3594 45.5771 86.6527 45.5771ZM87.9399 47.5884C87.9399 47.3937 87.9237 47.1991 87.8911 47.0369C87.8422 46.8585 87.777 46.6963 87.6792 46.5665C87.5815 46.4368 87.4511 46.3232 87.2882 46.2422C87.1252 46.1611 86.9134 46.1124 86.6527 46.1124C86.4409 46.1124 86.2616 46.1611 86.115 46.2259C85.9683 46.307 85.8217 46.4043 85.7076 46.5503C85.5936 46.6963 85.5121 46.8423 85.4632 47.0207C85.4143 47.1991 85.3654 47.3937 85.3492 47.6046L87.9399 47.5884Z" fill="black"/>
<path d="M92.1602 46.6313C92.1277 46.6638 92.1114 46.68 92.0951 46.68C92.0788 46.68 92.0462 46.6638 92.0462 46.6475C91.8832 46.5016 91.704 46.388 91.4922 46.2907C91.2804 46.1934 91.0522 46.1447 90.7752 46.1447C90.6938 46.1447 90.6123 46.1447 90.4982 46.1609C90.4005 46.1609 90.2864 46.1934 90.1723 46.2096V50.1023C90.1723 50.151 90.1561 50.1672 90.1398 50.1996C90.1235 50.2321 90.0909 50.2321 90.042 50.2321H89.6509C89.602 50.2321 89.5858 50.2158 89.5695 50.1996C89.5532 50.1834 89.5369 50.151 89.5369 50.1023V46.2096C89.5369 46.0312 89.5694 45.9014 89.6346 45.8041C89.6835 45.723 89.8139 45.6581 90.0094 45.6419C90.2701 45.6095 90.5145 45.5933 90.7426 45.5933C91.4107 45.5933 91.981 45.7879 92.4372 46.1772C92.4861 46.2258 92.4861 46.2583 92.4535 46.3069L92.1602 46.6313Z" fill="black"/>
<path d="M94.6206 45.5771C94.9628 45.5771 95.2398 45.6258 95.4679 45.7231C95.696 45.8204 95.9078 45.9502 96.0545 46.1286C96.2011 46.2908 96.3152 46.5017 96.3967 46.745C96.4618 46.9883 96.5107 47.2478 96.5107 47.5235C96.5107 47.7668 96.4618 47.929 96.3478 47.9939C96.2337 48.075 96.1034 48.1074 95.9404 48.1074H93.2845C93.2845 48.3994 93.3333 48.6589 93.3985 48.8697C93.4637 49.0806 93.5778 49.2428 93.7081 49.3725C93.8385 49.5023 93.9851 49.5996 94.1644 49.6483C94.3436 49.6969 94.5228 49.7294 94.7347 49.7294C94.9302 49.7294 95.1094 49.6969 95.2887 49.6645C95.4679 49.6158 95.6308 49.5672 95.7449 49.5023C95.8101 49.4698 95.8752 49.4698 95.8915 49.5347L96.0382 49.8429C96.0708 49.9078 96.0545 49.9727 95.9893 49.9889C95.7938 50.1186 95.5657 50.1997 95.3375 50.2322C95.0931 50.2808 94.8813 50.297 94.6695 50.297C94.034 50.297 93.5452 50.1186 93.1704 49.7456C92.8119 49.3725 92.6327 48.7886 92.6327 47.9614C92.6327 47.5722 92.6816 47.2315 92.7793 46.9396C92.8771 46.6476 93.0238 46.4043 93.1867 46.1935C93.3659 45.9989 93.5778 45.8529 93.8222 45.7393C94.0666 45.642 94.3436 45.5771 94.6206 45.5771ZM95.8915 47.5884C95.8915 47.3937 95.8752 47.1991 95.8427 47.0369C95.7938 46.8585 95.7286 46.6963 95.6308 46.5665C95.5331 46.4206 95.4027 46.3232 95.2398 46.2422C95.0768 46.1611 94.865 46.1124 94.6043 46.1124C94.3925 46.1124 94.2132 46.1611 94.0666 46.2259C93.9199 46.307 93.7733 46.4043 93.6592 46.5503C93.5452 46.6963 93.4637 46.8423 93.4148 47.0207C93.3659 47.1991 93.317 47.3937 93.3008 47.6046L95.8915 47.5884Z" fill="black"/>
<path d="M97.2603 47.9938C97.2603 47.6694 97.3091 47.3612 97.3906 47.0693C97.4721 46.7773 97.6024 46.5178 97.7654 46.2907C97.9283 46.0637 98.1564 45.8853 98.4009 45.7555C98.6616 45.6095 98.9711 45.5609 99.3296 45.5609C99.4763 45.5609 99.6555 45.5771 99.851 45.5933C100.047 45.6095 100.242 45.642 100.454 45.7231V44.0038C100.454 43.9551 100.47 43.9389 100.487 43.9065C100.503 43.8902 100.535 43.874 100.584 43.874H100.992C101.041 43.874 101.057 43.8902 101.073 43.9065C101.089 43.9227 101.106 43.9551 101.106 44.0038V49.8428C101.106 49.9077 101.073 49.9564 101.024 49.9888C100.731 50.1186 100.421 50.1997 100.112 50.2321C99.8022 50.2808 99.5252 50.2808 99.2644 50.2808C98.9223 50.2808 98.6127 50.2321 98.352 50.1348C98.1075 50.0212 97.8957 49.8753 97.7328 49.6806C97.5861 49.486 97.4558 49.2427 97.3906 48.9507C97.2928 48.675 97.2603 48.3506 97.2603 47.9938ZM97.9283 47.9938C97.9283 48.3344 97.9609 48.5939 98.0261 48.821C98.0913 49.0481 98.189 49.2265 98.3194 49.3562C98.4497 49.5022 98.5964 49.5995 98.7593 49.6482C98.9386 49.6969 99.1341 49.7293 99.3459 49.7293C99.4111 49.7293 99.4926 49.7293 99.5903 49.7131C99.6881 49.6968 99.7859 49.6968 99.8836 49.6806C99.9814 49.6644 100.079 49.6482 100.177 49.632C100.275 49.5995 100.356 49.5833 100.421 49.5509V46.2907C100.177 46.2096 99.9814 46.161 99.8022 46.1448C99.6392 46.1285 99.4763 46.1123 99.3459 46.1123C99.1341 46.1123 98.9386 46.161 98.7593 46.2259C98.5801 46.2907 98.4171 46.4205 98.3031 46.5665C98.1727 46.7124 98.0587 46.9071 97.9935 47.1504C97.9609 47.3937 97.9283 47.6694 97.9283 47.9938Z" fill="black"/>
<path d="M108.308 47.8802C108.308 48.2208 108.259 48.5452 108.177 48.8371C108.096 49.1291 107.966 49.3886 107.803 49.5994C107.64 49.8265 107.412 49.9887 107.167 50.1022C106.906 50.232 106.597 50.2806 106.238 50.2806C105.978 50.2806 105.701 50.2644 105.407 50.232C105.114 50.1833 104.837 50.1184 104.576 50.0049C104.511 49.9725 104.479 49.94 104.479 49.8589V44.0199C104.479 43.9712 104.495 43.955 104.511 43.9226C104.528 43.9064 104.56 43.8901 104.609 43.8901H105.016C105.065 43.8901 105.082 43.9064 105.114 43.9226C105.13 43.9388 105.147 43.9712 105.147 44.0199V45.804C105.326 45.7392 105.538 45.6905 105.782 45.6581C106.027 45.6094 106.222 45.6094 106.418 45.6094C106.76 45.6094 107.053 45.6581 107.281 45.7716C107.526 45.8851 107.721 46.0473 107.884 46.242C108.031 46.4528 108.161 46.6799 108.226 46.9719C108.291 47.2476 108.308 47.5558 108.308 47.8802ZM105.114 49.5994C105.293 49.6643 105.489 49.713 105.701 49.7292C105.913 49.7616 106.075 49.7616 106.238 49.7616C106.45 49.7616 106.646 49.7292 106.809 49.6643C106.972 49.5994 107.135 49.4859 107.249 49.3399C107.379 49.1939 107.477 48.9993 107.542 48.7722C107.607 48.5289 107.656 48.2532 107.656 47.945C107.656 47.3449 107.526 46.907 107.298 46.615C107.053 46.3069 106.727 46.1609 106.304 46.1609C106.19 46.1609 106.027 46.1771 105.782 46.2095C105.554 46.242 105.342 46.2906 105.114 46.3717V49.5994Z" fill="black"/>
<path d="M110.98 50.9456C110.833 51.3349 110.687 51.6106 110.491 51.7728C110.296 51.9188 110.051 51.9999 109.742 51.9999C109.66 51.9999 109.562 51.9999 109.448 51.9837C109.334 51.9674 109.204 51.935 109.057 51.9026C108.976 51.8701 108.943 51.8377 108.96 51.7728L109.041 51.4484C109.057 51.3998 109.074 51.3835 109.09 51.3835C109.106 51.3835 109.139 51.3835 109.171 51.3998C109.302 51.4322 109.383 51.4484 109.448 51.4484C109.497 51.4646 109.579 51.4646 109.644 51.4646C109.742 51.4646 109.823 51.4484 109.888 51.4322C109.954 51.416 110.035 51.3835 110.1 51.3511C110.149 51.3024 110.214 51.2538 110.263 51.1727C110.312 51.0916 110.361 50.9943 110.41 50.8645L110.67 50.1509H110.524C110.459 50.1509 110.393 50.1346 110.361 50.1184C110.312 50.086 110.263 50.0211 110.214 49.8913L108.829 45.7391C108.813 45.6905 108.829 45.658 108.878 45.658H109.351C109.4 45.658 109.416 45.658 109.432 45.6743C109.448 45.6905 109.465 45.7067 109.465 45.7229C109.514 45.8527 109.562 46.0311 109.644 46.2582C109.725 46.5015 109.791 46.7447 109.888 46.988C109.986 47.2313 110.051 47.4908 110.133 47.7179C110.198 47.9612 110.279 48.1396 110.312 48.2532C110.328 48.3018 110.361 48.3991 110.393 48.5289C110.442 48.6749 110.475 48.8046 110.524 48.9668C110.573 49.1128 110.605 49.275 110.654 49.4048C110.703 49.5507 110.719 49.648 110.736 49.6805H110.785C110.817 49.5832 110.85 49.4372 110.915 49.2912C110.964 49.1452 111.013 48.983 111.062 48.8371C111.11 48.6911 111.159 48.5451 111.192 48.4316C111.241 48.3018 111.241 48.2369 111.257 48.2045C111.273 48.1558 111.306 48.0585 111.371 47.8963C111.42 47.7341 111.501 47.5395 111.583 47.2962C111.664 47.0529 111.746 46.8096 111.844 46.5339C111.941 46.2582 112.039 45.9824 112.137 45.7067C112.153 45.6742 112.17 45.658 112.17 45.6418C112.186 45.6256 112.218 45.6094 112.251 45.6094H112.691C112.756 45.6094 112.772 45.6418 112.756 45.6905L110.98 50.9456Z" fill="black"/>
<path d="M118.329 49.9076C118.296 50.0049 118.264 50.086 118.198 50.1347C118.149 50.1833 118.084 50.1995 117.97 50.1995H117.661C117.547 50.1995 117.465 50.1833 117.416 50.1509C117.367 50.1022 117.318 50.0373 117.27 49.9238L115.282 44.2469C115.249 44.1821 115.265 44.1496 115.331 44.1496H115.852C115.917 44.1496 115.966 44.1821 115.982 44.2307C115.982 44.2632 116.015 44.3443 116.064 44.4902C116.113 44.6362 116.178 44.8308 116.259 45.0579C116.325 45.3012 116.406 45.5445 116.504 45.8202C116.602 46.096 116.699 46.3717 116.781 46.6474C116.879 46.9232 116.96 47.1827 117.058 47.4422C117.139 47.6855 117.221 47.8963 117.286 48.0748C117.302 48.1234 117.335 48.2045 117.367 48.3343C117.416 48.4803 117.465 48.61 117.514 48.7722C117.563 48.9182 117.612 49.0642 117.661 49.2101C117.71 49.3561 117.742 49.4534 117.758 49.4859H117.807L118.247 48.091L119.567 44.2145C119.583 44.1658 119.616 44.1496 119.616 44.1334C119.632 44.1334 119.665 44.1172 119.714 44.1172H120.219C120.268 44.1172 120.284 44.1496 120.268 44.2145L118.329 49.9076Z" fill="black"/>
<path d="M121.799 44.4257C121.799 44.5555 121.751 44.6528 121.669 44.7339C121.588 44.815 121.49 44.8636 121.36 44.8636C121.245 44.8636 121.131 44.815 121.05 44.7339C120.968 44.6528 120.92 44.5555 120.92 44.4257C120.92 44.296 120.968 44.1986 121.05 44.1175C121.131 44.0364 121.229 43.9878 121.36 43.9878C121.49 43.9878 121.588 44.0364 121.669 44.1175C121.751 44.1986 121.799 44.3122 121.799 44.4257ZM121.685 50.0864C121.685 50.135 121.669 50.1512 121.653 50.1837C121.637 50.1999 121.604 50.2161 121.555 50.2161H121.164C121.115 50.2161 121.099 50.1999 121.066 50.1837C121.05 50.1675 121.034 50.135 121.034 50.0864V45.7882C121.034 45.7395 121.05 45.7233 121.066 45.6908C121.083 45.6746 121.115 45.6584 121.164 45.6584H121.555C121.604 45.6584 121.637 45.6746 121.653 45.6908C121.669 45.7071 121.685 45.7395 121.685 45.7882V50.0864Z" fill="black"/>
<path d="M124.798 45.5771C125.14 45.5771 125.417 45.6258 125.645 45.7231C125.889 45.8204 126.085 45.9502 126.231 46.1286C126.378 46.2908 126.492 46.5017 126.574 46.745C126.639 46.9883 126.688 47.2478 126.688 47.5235C126.688 47.7668 126.639 47.929 126.525 47.9939C126.411 48.075 126.28 48.1074 126.117 48.1074H123.461C123.461 48.3994 123.51 48.6589 123.576 48.8697C123.641 49.0806 123.755 49.2428 123.885 49.3725C124.015 49.5023 124.162 49.5996 124.341 49.6483C124.521 49.6969 124.7 49.7294 124.912 49.7294C125.107 49.7294 125.286 49.6969 125.466 49.6645C125.645 49.6158 125.808 49.5672 125.922 49.5023C125.987 49.4698 126.052 49.4698 126.069 49.5347L126.215 49.8429C126.248 49.9078 126.231 49.9727 126.166 49.9889C125.971 50.1186 125.743 50.1997 125.515 50.2322C125.27 50.2808 125.058 50.297 124.846 50.297C124.211 50.297 123.722 50.1186 123.347 49.7456C122.989 49.3725 122.81 48.7886 122.81 47.9614C122.81 47.5722 122.859 47.2315 122.956 46.9396C123.054 46.6476 123.201 46.4043 123.364 46.1935C123.543 45.9989 123.755 45.8529 123.999 45.7393C124.244 45.642 124.504 45.5771 124.798 45.5771ZM126.069 47.5884C126.069 47.3937 126.052 47.1991 126.02 47.0369C125.971 46.8585 125.906 46.6963 125.808 46.5665C125.71 46.4206 125.58 46.3232 125.417 46.2422C125.254 46.1611 125.042 46.1124 124.781 46.1124C124.569 46.1124 124.39 46.1611 124.244 46.2259C124.097 46.307 123.95 46.4043 123.836 46.5503C123.722 46.6963 123.641 46.8423 123.592 47.0207C123.543 47.1991 123.494 47.3937 123.478 47.6046L126.069 47.5884Z" fill="black"/>
<path d="M127.307 46.1772C127.258 46.1772 127.242 46.161 127.225 46.1447C127.209 46.1285 127.209 46.0961 127.209 46.0799V45.869C127.209 45.8203 127.209 45.8041 127.225 45.7879C127.242 45.7717 127.274 45.7555 127.307 45.7393L127.991 45.6257L128.122 44.7985C128.122 44.7499 128.138 44.7174 128.154 44.7012C128.17 44.685 128.203 44.6688 128.252 44.6525L128.496 44.5714C128.578 44.5552 128.627 44.5877 128.627 44.6688V45.6906H129.637C129.686 45.6906 129.702 45.7068 129.718 45.723C129.735 45.7392 129.735 45.7717 129.735 45.8041V46.0961C129.735 46.1285 129.735 46.1447 129.718 46.1772C129.702 46.1934 129.67 46.2096 129.637 46.2096H128.627V49.0967C128.627 49.3076 128.676 49.4698 128.757 49.5671C128.839 49.6806 129.001 49.713 129.262 49.713C129.327 49.713 129.425 49.713 129.572 49.6968C129.718 49.6806 129.816 49.6644 129.93 49.6482C129.979 49.6482 129.995 49.6482 130.012 49.6482C130.028 49.6644 130.028 49.6806 130.044 49.6968L130.109 50.0374C130.109 50.0699 130.126 50.0861 130.109 50.1023C130.109 50.1185 130.077 50.151 130.044 50.151C129.881 50.1996 129.702 50.2159 129.539 50.2483C129.376 50.2645 129.23 50.2807 129.164 50.2807C128.936 50.2807 128.757 50.2483 128.61 50.2159C128.464 50.1672 128.35 50.1023 128.252 50.005C128.154 49.9077 128.105 49.7941 128.056 49.6482C128.008 49.5022 128.008 49.3238 128.008 49.1291V46.1772H127.307Z" fill="black"/>
<path d="M130.452 46.1772C130.403 46.1772 130.386 46.161 130.37 46.1447C130.354 46.1285 130.354 46.0961 130.354 46.0799V45.869C130.354 45.8203 130.354 45.8041 130.37 45.7879C130.386 45.7717 130.419 45.7555 130.452 45.7393L131.136 45.6257L131.266 44.7985C131.266 44.7499 131.283 44.7174 131.299 44.7012C131.315 44.685 131.348 44.6688 131.397 44.6525L131.641 44.5714C131.723 44.5552 131.771 44.5877 131.771 44.6688V45.6906H132.782C132.831 45.6906 132.847 45.7068 132.863 45.723C132.879 45.7392 132.879 45.7717 132.879 45.8041V46.0961C132.879 46.1285 132.879 46.1447 132.863 46.1772C132.847 46.1934 132.814 46.2096 132.782 46.2096H131.771V49.0967C131.771 49.3076 131.82 49.4698 131.902 49.5671C131.983 49.6806 132.146 49.713 132.407 49.713C132.472 49.713 132.57 49.713 132.717 49.6968C132.863 49.6806 132.961 49.6644 133.075 49.6482C133.124 49.6482 133.14 49.6482 133.156 49.6482C133.173 49.6644 133.173 49.6806 133.189 49.6968L133.254 50.0374C133.254 50.0699 133.271 50.0861 133.254 50.1023C133.254 50.1185 133.222 50.151 133.189 50.151C133.026 50.1996 132.847 50.2159 132.684 50.2483C132.521 50.2645 132.374 50.2807 132.309 50.2807C132.081 50.2807 131.902 50.2483 131.755 50.2159C131.609 50.1672 131.494 50.1023 131.397 50.005C131.299 49.9077 131.25 49.7941 131.201 49.6482C131.152 49.5022 131.152 49.3238 131.152 49.1291V46.1772H130.452Z" fill="black"/>
<path d="M135.65 45.5771C135.992 45.5771 136.269 45.6258 136.497 45.7231C136.741 45.8204 136.937 45.9502 137.083 46.1286C137.23 46.2908 137.344 46.5017 137.426 46.745C137.491 46.9883 137.54 47.2478 137.54 47.5235C137.54 47.7668 137.491 47.929 137.377 47.9939C137.263 48.075 137.132 48.1074 136.969 48.1074H134.313C134.313 48.3994 134.362 48.6589 134.427 48.8697C134.493 49.0806 134.607 49.2428 134.737 49.3725C134.867 49.5023 135.014 49.5996 135.193 49.6483C135.373 49.6969 135.552 49.7294 135.764 49.7294C135.959 49.7294 136.138 49.6969 136.318 49.6645C136.497 49.6158 136.66 49.5672 136.774 49.5023C136.839 49.4698 136.904 49.4698 136.92 49.5347L137.067 49.8429C137.1 49.9078 137.083 49.9727 137.018 49.9889C136.823 50.1186 136.595 50.1997 136.366 50.2322C136.138 50.2646 135.91 50.297 135.698 50.297C135.063 50.297 134.574 50.1186 134.199 49.7456C133.841 49.3725 133.662 48.7886 133.662 47.9614C133.662 47.5722 133.711 47.2315 133.808 46.9396C133.906 46.6476 134.053 46.4043 134.216 46.1935C134.395 45.9989 134.607 45.8529 134.851 45.7393C135.096 45.642 135.356 45.5771 135.65 45.5771ZM136.937 47.5884C136.937 47.3937 136.92 47.1991 136.888 47.0369C136.839 46.8585 136.774 46.6963 136.676 46.5665C136.578 46.4368 136.448 46.3232 136.285 46.2422C136.122 46.1611 135.91 46.1124 135.65 46.1124C135.438 46.1124 135.258 46.1611 135.112 46.2259C134.965 46.307 134.819 46.4043 134.704 46.5503C134.59 46.6963 134.509 46.8423 134.46 47.0207C134.411 47.1991 134.362 47.3937 134.346 47.6046L136.937 47.5884Z" fill="black"/>
<path d="M139.968 50.1509C139.951 50.1671 139.935 50.1833 139.902 50.1995C139.805 50.2482 139.707 50.2644 139.593 50.2806C139.479 50.2969 139.381 50.2969 139.299 50.2969C139.022 50.2969 138.843 50.232 138.729 50.086C138.615 49.94 138.583 49.7454 138.583 49.4697V44.0199C138.583 43.9712 138.599 43.955 138.615 43.9226C138.631 43.9064 138.664 43.8901 138.713 43.8901H139.104C139.153 43.8901 139.185 43.9064 139.202 43.9226C139.218 43.9388 139.234 43.9712 139.234 44.0199V49.275C139.234 49.4372 139.267 49.5508 139.299 49.6156C139.332 49.6805 139.43 49.713 139.544 49.713C139.593 49.713 139.658 49.713 139.707 49.6967C139.756 49.6967 139.805 49.6805 139.853 49.6805C139.919 49.6643 139.951 49.6967 139.951 49.7454L140 50.0211C139.984 50.086 139.968 50.1347 139.968 50.1509Z" fill="black"/>
<path d="M56.5083 19.6416C52.0437 19.6416 48.4427 23.2423 48.4264 27.6865C48.4264 28.5786 49.1433 29.2923 50.0395 29.2923C50.9357 29.2923 51.6526 28.5786 51.6526 27.6865C51.6526 25.0265 53.8198 22.8693 56.492 22.8693C57.3882 22.8693 58.1052 22.1556 58.1052 21.2636C58.1215 20.3715 57.4045 19.6416 56.5083 19.6416Z" fill="#EC1B2E"/>
<path d="M56.5083 13.2188C48.4753 13.2188 41.9739 19.7066 41.9739 27.7028C41.9739 33.2013 45.1024 38.2131 50.0395 40.6623V42.5762C50.0395 43.4683 50.7565 44.1819 51.6526 44.1819H61.3477C62.2439 44.1819 62.9608 43.4683 62.9608 42.5762V40.6623C70.1466 37.1102 73.0796 28.4165 69.5111 21.2637C67.067 16.3329 62.0158 13.2188 56.5083 13.2188ZM60.7448 38.1158C60.1419 38.3591 59.7346 38.943 59.7346 39.608V40.9542H53.2821V39.608C53.2821 38.9592 52.8747 38.3591 52.2718 38.1158C46.4874 35.7802 43.6848 29.2275 46.0311 23.4695C48.3775 17.7116 54.9604 14.9218 60.7448 17.2574C66.5293 19.593 69.3319 26.1458 66.9855 31.9037C65.8449 34.7259 63.58 36.9642 60.7448 38.1158Z" fill="#EC1B2E"/>
<path d="M61.3477 50.1993C62.2439 50.1993 62.9609 49.4856 62.9609 48.5935C62.9609 47.7015 62.2439 46.9878 61.3477 46.9878H51.6527C50.7565 46.9878 50.0396 47.7015 50.0396 48.5935C50.0396 49.4856 50.7565 50.1993 51.6527 50.1993H61.3477Z" fill="#EC1B2E"/>
<path d="M42.6909 6.84482C42.3488 6.50421 41.8925 6.30957 41.4037 6.30957C40.9149 6.30957 40.4586 6.50421 40.1164 6.84482C39.3995 7.55848 39.3995 8.71007 40.1164 9.40751L43.8967 13.1705C44.2389 13.5111 44.6951 13.7057 45.1839 13.7057C45.6728 13.7057 46.129 13.5111 46.4712 13.1705C47.1881 12.4568 47.1881 11.3052 46.4712 10.6078L42.6909 6.84482Z" fill="#EC1B2E"/>
<path d="M72.9004 6.84482C72.5582 6.50421 72.102 6.30957 71.6132 6.30957C71.1243 6.30957 70.6681 6.50421 70.3259 6.84482L66.5456 10.6078C66.2035 10.9484 66.0079 11.4025 66.0079 11.8891C66.0079 12.3757 66.2035 12.8298 66.5456 13.1705C66.8878 13.5111 67.3441 13.7057 67.8329 13.7057C68.3217 13.7057 68.778 13.5111 69.1201 13.1705L72.9004 9.40751C73.2426 9.0669 73.4381 8.61275 73.4381 8.12616C73.4381 7.63958 73.2426 7.18543 72.9004 6.84482Z" fill="#EC1B2E"/>
<path d="M56.5084 0C55.4982 0 54.6835 0.810979 54.6835 1.81659V7.21772C54.6835 8.22333 55.4982 9.03431 56.5084 9.03431C57.5187 9.03431 58.3334 8.22333 58.3334 7.21772V1.81659C58.3334 0.810979 57.5187 0 56.5084 0Z" fill="#EC1B2E"/>
</g>
<defs>
<clipPath id="clip0_2124_6129">
<rect width="140" height="52" fill="white"/>
</clipPath>
</defs>
</svg>
