<svg width="20" height="20" viewBox="0 0 20 20" fill="none" xmlns="http://www.w3.org/2000/svg">
<g clip-path="url(#clip0_2191_2398)">
<path d="M17.5796 10.8105C17.3474 10.8105 17.1592 10.9967 17.1592 11.2265V14.9199C17.1584 15.6089 16.5943 16.1672 15.898 16.1679H4.102C3.40571 16.1672 2.84162 15.6089 2.8408 14.9199V4.0799C2.84162 3.3911 3.40571 2.83277 4.102 2.83196H7.83469C8.0669 2.83196 8.25509 2.64574 8.25509 2.41598C8.25509 2.18638 8.0669 2 7.83469 2H4.102C2.94163 2.0013 2.00131 2.93173 2 4.0799V14.9201C2.00131 16.0683 2.94163 16.9987 4.102 17H15.898C17.0584 16.9987 17.9987 16.0683 18 14.9201V11.2265C18 10.9967 17.8118 10.8105 17.5796 10.8105Z" fill="#858687" stroke="#858687" stroke-width="0.3"/>
<path d="M5.64808 14.1239L5.64803 14.124C5.62416 14.21 5.6483 14.3021 5.71157 14.3656C5.77501 14.4289 5.86725 14.4531 5.95331 14.4293C5.95333 14.4293 5.95336 14.4293 5.95338 14.4293L10.1722 13.2605L10.1722 13.2605C10.2135 13.2491 10.2511 13.2272 10.2815 13.1968L19.1676 4.31034L5.64808 14.1239ZM5.64808 14.1239L6.81668 9.90496C6.82812 9.86364 6.85001 9.82607 6.88036 9.79572L15.7668 0.909238C16.5446 0.131491 17.8055 0.131491 18.5833 0.909238M5.64808 14.1239L18.5833 0.909238M18.5833 0.909238L19.1676 1.49354C19.1676 1.49357 19.1676 1.4936 19.1677 1.49364M18.5833 0.909238L19.1677 1.49364M19.1677 1.49364C19.9441 2.27196 19.9442 3.53179 19.1677 4.31014L19.1677 1.49364ZM7.61213 9.76594L7.43536 9.94271L7.61212 10.1195L9.95749 12.465L10.1343 12.6418L10.3111 12.465L17.5841 5.19196L17.7609 5.01518L17.5841 4.8384L15.2386 2.49284L15.0618 2.31606L14.885 2.49284L7.61213 9.76594ZM7.49716 10.7061L7.19395 10.4029L7.07945 10.8161L6.36129 13.4084L6.24339 13.834L6.66896 13.7161L9.26105 12.9979L9.67426 12.8834L9.37109 12.5802L7.49716 10.7061ZM18.817 3.95934L18.8172 3.95913C19.4 3.37491 19.3999 2.42915 18.8172 1.84478L18.8169 1.8445L18.2323 1.26003C17.6484 0.676179 16.7017 0.676168 16.1179 1.26C16.1179 1.26001 16.1178 1.26002 16.1178 1.26003L15.5894 1.78826L15.4126 1.96504L15.5894 2.14185L17.9351 4.48761L18.1119 4.66438L18.2887 4.48761L18.817 3.95934Z" fill="#858687" stroke="#858687" stroke-width="0.5"/>
</g>
<defs>
<clipPath id="clip0_2191_2398">
<rect width="20" height="20" fill="white"/>
</clipPath>
</defs>
</svg>
