<svg width="14" height="14" viewBox="0 0 14 14" fill="none" xmlns="http://www.w3.org/2000/svg">
<path d="M12.6967 0.39C12.1767 -0.13 11.3967 -0.13 10.9633 0.39L6.89 4.46333L5.67667 5.67667L4.46333 6.89L0.39 10.9633C-0.13 11.4833 -0.13 12.2633 0.39 12.6967C0.91 13.2167 1.69 13.2167 2.12333 12.6967L6.19667 8.62333L8.62333 6.19667L12.6967 2.12333C13.13 1.69 13.13 0.91 12.6967 0.39Z" fill="white"/>
<path d="M12.6967 12.6967C13.2167 12.1767 13.2167 11.3967 12.6967 10.9633L8.62333 6.89L7.41 5.67667L6.19667 4.46333L2.12333 0.39C1.60333 -0.13 0.823333 -0.13 0.39 0.39C-0.13 0.91 -0.13 1.69 0.39 2.12333L4.46333 6.19667L6.89 8.62333L10.9633 12.6967C11.3967 13.13 12.1767 13.13 12.6967 12.6967Z" fill="white"/>
</svg>
