<svg width="20" height="20" viewBox="0 0 20 20" fill="none" xmlns="http://www.w3.org/2000/svg">
<path d="M16.2952 0H6.42707C5.33191 0 4.44098 0.841133 4.44098 1.875V2.5H3.07598C2.32758 2.5 1.71875 3.10883 1.71875 3.85723V18.6428C1.71875 19.3912 2.32758 20 3.07598 20H14.2018C14.9502 20 15.559 19.3912 15.559 18.6428V17.5H16.2952C17.3903 17.5 18.2812 16.6589 18.2812 15.625V1.875C18.2812 0.841133 17.3903 0 16.2952 0ZM14.309 18.6428C14.309 18.7019 14.2609 18.75 14.2018 18.75H3.07598C3.01684 18.75 2.96875 18.7019 2.96875 18.6428V3.85723C2.96875 3.79809 3.01684 3.75 3.07598 3.75H14.2018C14.2609 3.75 14.309 3.79809 14.309 3.85723V18.6428ZM17.0312 15.625C17.0312 15.9696 16.701 16.25 16.2952 16.25H15.559V3.85723C15.559 3.10883 14.9502 2.5 14.2018 2.5H5.69098V1.875C5.69098 1.53039 6.02121 1.25 6.42707 1.25H16.2952C16.701 1.25 17.0312 1.53039 17.0312 1.875V15.625Z" fill="#858687"/>
<path d="M11.7188 8.4375H5.78125C5.43609 8.4375 5.15625 8.15766 5.15625 7.8125C5.15625 7.46734 5.43609 7.1875 5.78125 7.1875H11.7188C12.0639 7.1875 12.3438 7.46734 12.3438 7.8125C12.3438 8.15766 12.0639 8.4375 11.7188 8.4375Z" fill="#858687"/>
<path d="M11.7188 10.9375H5.78125C5.43609 10.9375 5.15625 10.6577 5.15625 10.3125C5.15625 9.96734 5.43609 9.6875 5.78125 9.6875H11.7188C12.0639 9.6875 12.3438 9.96734 12.3438 10.3125C12.3438 10.6577 12.0639 10.9375 11.7188 10.9375Z" fill="#858687"/>
<path d="M11.7188 13.4375H5.78125C5.43609 13.4375 5.15625 13.1577 5.15625 12.8125C5.15625 12.4673 5.43609 12.1875 5.78125 12.1875H11.7188C12.0639 12.1875 12.3438 12.4673 12.3438 12.8125C12.3438 13.1577 12.0639 13.4375 11.7188 13.4375Z" fill="#858687"/>
</svg>
