<svg width="3" height="20" viewBox="0 0 3 20" fill="none" xmlns="http://www.w3.org/2000/svg">
<path d="M2.87991 19.07C2.80489 19.265 2.69992 19.415 2.56492 19.565C2.4899 19.625 2.41495 19.685 2.33993 19.745C2.24993 19.805 2.15993 19.85 2.06993 19.88C1.97994 19.925 1.88994 19.955 1.79994 19.97C1.49993 20.03 1.19999 20 0.929994 19.88C0.75 19.805 0.584981 19.7 0.43501 19.565C0.300014 19.415 0.195041 19.265 0.12002 19.07C0.0449986 18.89 0 18.6951 0 18.5C0 18.305 0.0449986 18.11 0.12002 17.93C0.195041 17.7351 0.300014 17.585 0.43501 17.435C0.719977 17.165 1.10999 17 1.5 17C1.59 17 1.69497 17.015 1.80001 17.0301C1.89001 17.045 1.98001 17.0751 2.07001 17.1201C2.16 17.1501 2.25 17.1951 2.34 17.255C2.41502 17.315 2.48997 17.3751 2.56499 17.435C2.83498 17.72 3 18.11 3 18.5C2.99986 18.695 2.95486 18.89 2.87991 19.07Z" fill="white"/>
<path d="M2.96991 10.8046C2.95493 10.8948 2.92491 10.985 2.87991 11.0752C2.84989 11.1654 2.80489 11.2557 2.74491 11.3459C2.68494 11.4211 2.62489 11.4962 2.56492 11.5715C2.41495 11.7068 2.24993 11.812 2.06993 11.8872C1.70995 12.0376 1.28998 12.0376 0.929994 11.8872C0.75 11.812 0.584981 11.7068 0.43501 11.5715C0.375035 11.4962 0.31499 11.4211 0.255015 11.3459C0.195041 11.2557 0.150042 11.1654 0.12002 11.0752C0.0750211 10.985 0.0449987 10.8948 0.0300226 10.8046C0.0150465 10.6993 0 10.594 0 10.5038C0 10.1128 0.165018 9.72186 0.43501 9.43611C0.719977 9.16543 1.10999 9 1.5 9C1.89001 9 2.27995 9.16543 2.56499 9.43611C2.83498 9.72179 3 10.1128 3 10.5038C2.99986 10.594 2.98488 10.6992 2.96991 10.8046Z" fill="white"/>
<path d="M2.87991 3.07784C2.80489 3.27355 2.69992 3.42416 2.56492 3.5747C2.14496 3.9827 1.48495 4.11673 0.929994 3.89088C0.75 3.81558 0.584981 3.71021 0.43501 3.5747C0.300014 3.42416 0.195041 3.25852 0.12002 3.07784C0.0449986 2.89717 0 2.70146 0 2.50568C0 2.09916 0.149972 1.72277 0.43501 1.43666C0.719977 1.15209 1.09501 1 1.5 1C1.90499 1 2.27995 1.15209 2.56499 1.43666C2.84996 1.7227 3 2.09916 3 2.50568C2.99986 2.70139 2.96991 2.89717 2.87991 3.07784Z" fill="white"/>
</svg>
