<svg width="20" height="20" viewBox="0 0 20 20" fill="none" xmlns="http://www.w3.org/2000/svg">
<path d="M9.5 14.875C9.33424 14.875 9.17527 14.8054 9.05806 14.6815C8.94085 14.5576 8.875 14.3895 8.875 14.2143V7.60714C8.875 7.43191 8.94085 7.26386 9.05806 7.13995C9.17527 7.01604 9.33424 6.94643 9.5 6.94643C9.66576 6.94643 9.82473 7.01604 9.94194 7.13995C10.0592 7.26386 10.125 7.43191 10.125 7.60714V14.2143C10.125 14.3895 10.0592 14.5576 9.94194 14.6815C9.82473 14.8054 9.66576 14.875 9.5 14.875ZM15.125 6.28571C14.9592 6.28571 14.8003 6.35533 14.6831 6.47923C14.5658 6.60314 14.5 6.7712 14.5 6.94643V14.5645C14.5 15.523 14.1398 16.4422 13.4987 17.12C12.8575 17.7978 11.988 18.1786 11.0813 18.1786H7.91875C7.01204 18.1786 6.14247 17.7978 5.50133 17.12C4.86019 16.4422 4.5 15.523 4.5 14.5645V6.94643C4.5 6.7712 4.43415 6.60314 4.31694 6.47923C4.19973 6.35533 4.04076 6.28571 3.875 6.28571C3.70924 6.28571 3.55027 6.35533 3.43306 6.47923C3.31585 6.60314 3.25 6.7712 3.25 6.94643V14.5645C3.25165 15.8729 3.74407 17.1273 4.61927 18.0525C5.49447 18.9777 6.68103 19.4983 7.91875 19.5H11.0813C12.319 19.4983 13.5055 18.9777 14.3807 18.0525C15.2559 17.1273 15.7483 15.8729 15.75 14.5645V6.94643C15.75 6.7712 15.6842 6.60314 15.5669 6.47923C15.4497 6.35533 15.2908 6.28571 15.125 6.28571ZM7.625 14.2143V7.60714C7.625 7.43191 7.55915 7.26386 7.44194 7.13995C7.32473 7.01604 7.16576 6.94643 7 6.94643C6.83424 6.94643 6.67527 7.01604 6.55806 7.13995C6.44085 7.26386 6.375 7.43191 6.375 7.60714V14.2143C6.375 14.3895 6.44085 14.5576 6.55806 14.6815C6.67527 14.8054 6.83424 14.875 7 14.875C7.16576 14.875 7.32473 14.8054 7.44194 14.6815C7.55915 14.5576 7.625 14.3895 7.625 14.2143ZM17 4.30357C17 4.4788 16.9342 4.64686 16.8169 4.77077C16.6997 4.89467 16.5408 4.96429 16.375 4.96429H2.625C2.45924 4.96429 2.30027 4.89467 2.18306 4.77077C2.06585 4.64686 2 4.4788 2 4.30357C2 4.12834 2.06585 3.96028 2.18306 3.83638C2.30027 3.71247 2.45924 3.64286 2.625 3.64286H6.375C6.375 2.94193 6.63839 2.26971 7.10723 1.77407C7.57607 1.27844 8.21196 1 8.875 1H10.125C10.788 1 11.4239 1.27844 11.8928 1.77407C12.3616 2.26971 12.625 2.94193 12.625 3.64286H16.375C16.5408 3.64286 16.6997 3.71247 16.8169 3.83638C16.9342 3.96028 17 4.12834 17 4.30357ZM11.375 3.64286C11.375 3.29239 11.2433 2.95628 11.0089 2.70847C10.7745 2.46065 10.4565 2.32143 10.125 2.32143H8.875C8.54348 2.32143 8.22554 2.46065 7.99112 2.70847C7.7567 2.95628 7.625 3.29239 7.625 3.64286H11.375ZM12.625 14.2143V7.60714C12.625 7.43191 12.5592 7.26386 12.4419 7.13995C12.3247 7.01604 12.1658 6.94643 12 6.94643C11.8342 6.94643 11.6753 7.01604 11.5581 7.13995C11.4408 7.26386 11.375 7.43191 11.375 7.60714V14.2143C11.375 14.3895 11.4408 14.5576 11.5581 14.6815C11.6753 14.8054 11.8342 14.875 12 14.875C12.1658 14.875 12.3247 14.8054 12.4419 14.6815C12.5592 14.5576 12.625 14.3895 12.625 14.2143Z" fill="#858687"/>
</svg>
