<svg width="17" height="16" viewBox="0 0 17 16" fill="none" xmlns="http://www.w3.org/2000/svg">
<path d="M14.7885 9.40226L9.64159 9.40992L9.64925 14.5593C9.65691 15.3563 9.01354 16.0076 8.21699 15.9999C7.43576 15.9923 6.81537 15.3486 6.82303 14.567L6.81537 9.41759L1.69907 9.42525C0.89486 9.4559 0.228516 8.81223 0.228516 8.01529C0.228516 7.2107 0.89486 6.56702 1.69907 6.59768L6.81537 6.59001L6.80771 1.47126C6.77708 0.666666 7.42044 1.90735e-06 8.21699 1.90735e-06C9.0212 1.90735e-06 9.66457 0.666666 9.63393 1.47126L9.64159 6.58235L14.7885 6.57469C15.5851 6.56702 16.2361 7.2107 16.2284 8.00763C16.2131 8.78924 15.5698 9.40992 14.7885 9.40226Z" fill="#858687"/>
</svg>
