<svg width="20" height="20" viewBox="0 0 20 20" fill="none" xmlns="http://www.w3.org/2000/svg">
<path d="M12.5772 0C8.48455 0 5.15495 3.3296 5.15495 7.42228C5.15495 8.83419 5.55134 10.1552 6.23849 11.2801C2.34312 14.3418 1.91275 14.772 1.76762 14.9171L0.684905 15.9998C-0.228973 16.9137 -0.228973 18.4007 0.684905 19.3146C1.14184 19.7715 1.74207 20 2.34226 20C2.94245 20 3.54268 19.7715 3.99962 19.3146L5.08233 18.2319C5.22664 18.0876 5.65807 17.656 8.70163 13.7499C9.8304 14.4438 11.1578 14.8446 12.5772 14.8446C13.6924 14.8446 14.7649 14.6031 15.7649 14.1269C16.1545 13.9414 16.3199 13.4752 16.1343 13.0856C15.9488 12.696 15.4825 12.5305 15.093 12.7162C14.3046 13.0916 13.4582 13.282 12.5772 13.282C9.3462 13.282 6.71754 10.6533 6.71754 7.42228C6.71754 4.19124 9.3462 1.56259 12.5772 1.56259C15.8083 1.56259 18.4369 4.19124 18.4369 7.42228C18.4369 8.48058 18.152 9.51736 17.613 10.4205C17.3918 10.791 17.5129 11.2707 17.8835 11.4918C18.254 11.7129 18.7336 11.5918 18.9548 11.2213C19.6383 10.0761 19.9995 8.76247 19.9995 7.42228C19.9995 3.3296 16.6699 0 12.5772 0ZM3.97747 17.127L2.89475 18.2097C2.59013 18.5143 2.09447 18.5143 1.78985 18.2097C1.48522 17.905 1.48522 17.4094 1.78985 17.1048L2.87256 16.0221C3.06617 15.8285 3.88981 15.1139 7.18842 12.5209C7.27769 12.6152 7.36929 12.7073 7.46332 12.7969C4.87892 16.1135 4.16935 16.9351 3.97747 17.127ZM16.5208 5.71305C16.6925 6.10889 16.5109 6.56899 16.115 6.7408C16.0138 6.78475 15.9082 6.80553 15.8044 6.80553C15.5025 6.80553 15.2151 6.62958 15.0873 6.33503C14.6531 5.33435 13.6678 4.68776 12.5772 4.68776C12.1457 4.68776 11.7959 4.33797 11.7959 3.90646C11.7959 3.47496 12.1457 3.12517 12.5772 3.12517C14.2907 3.12517 15.8386 4.14097 16.5208 5.71305Z" fill="#858687"/>
</svg>
