<svg width="20" height="20" viewBox="0 0 20 20" fill="none" xmlns="http://www.w3.org/2000/svg">
<g clip-path="url(#clip0_3183_7945)">
<path d="M14.625 7.25V5.19375C14.6233 4.08201 14.181 3.01627 13.3949 2.23015C12.6087 1.44402 11.543 1.00165 10.4313 1H10.0687C8.95701 1.00165 7.89127 1.44402 7.10515 2.23015C6.31902 3.01627 5.87665 4.08201 5.875 5.19375V7.25C5.37772 7.25 4.90081 7.44754 4.54917 7.79917C4.19754 8.15081 4 8.62772 4 9.125V14.9375C4.00165 15.8818 4.37752 16.787 5.04526 17.4547C5.713 18.1225 6.61817 18.4983 7.5625 18.5H12.9375C13.8818 18.4983 14.787 18.1225 15.4547 17.4547C16.1225 16.787 16.4983 15.8818 16.5 14.9375V9.125C16.5 8.62772 16.3025 8.15081 15.9508 7.79917C15.5992 7.44754 15.1223 7.25 14.625 7.25ZM7.125 5.19375C7.125 4.41302 7.43514 3.66426 7.9872 3.1122C8.53926 2.56014 9.28802 2.25 10.0687 2.25H10.4313C11.212 2.25 11.9607 2.56014 12.5128 3.1122C13.0649 3.66426 13.375 4.41302 13.375 5.19375V7.25H7.125V5.19375ZM15.25 14.9375C15.25 15.5508 15.0064 16.139 14.5727 16.5727C14.139 17.0064 13.5508 17.25 12.9375 17.25H7.5625C6.94919 17.25 6.36099 17.0064 5.92732 16.5727C5.49364 16.139 5.25 15.5508 5.25 14.9375V9.125C5.25 8.95924 5.31585 8.80027 5.43306 8.68306C5.55027 8.56585 5.70924 8.5 5.875 8.5H14.625C14.7908 8.5 14.9497 8.56585 15.0669 8.68306C15.1842 8.80027 15.25 8.95924 15.25 9.125V14.9375Z" fill="#858687"/>
<path d="M10.875 12.7V14.75C10.875 14.9158 10.8091 15.0747 10.6919 15.1919C10.5747 15.3091 10.4157 15.375 10.25 15.375C10.0842 15.375 9.92525 15.3091 9.80804 15.1919C9.69083 15.0747 9.62499 14.9158 9.62499 14.75V12.7C9.38668 12.5624 9.20044 12.35 9.09514 12.0958C8.98983 11.8416 8.97136 11.5597 9.04258 11.2939C9.1138 11.0281 9.27073 10.7933 9.48903 10.6258C9.70734 10.4583 9.97482 10.3675 10.25 10.3675C10.5252 10.3675 10.7926 10.4583 11.0109 10.6258C11.2292 10.7933 11.3862 11.0281 11.4574 11.2939C11.5286 11.5597 11.5101 11.8416 11.4048 12.0958C11.2995 12.35 11.1133 12.5624 10.875 12.7Z" fill="#858687"/>
</g>
<defs>
<clipPath id="clip0_3183_7945">
<rect width="20" height="20" fill="white"/>
</clipPath>
</defs>
</svg>
