<svg width="20" height="20" viewBox="0 0 20 20" fill="none" xmlns="http://www.w3.org/2000/svg">
<path d="M9.99999 1.25C9.13469 1.25 8.28883 1.50659 7.56937 1.98732C6.8499 2.46805 6.28915 3.15133 5.95801 3.95076C5.62688 4.75019 5.54024 5.62985 5.70905 6.47852C5.87786 7.32719 6.29454 8.10674 6.90639 8.71859C7.51825 9.33045 8.2978 9.74712 9.14647 9.91593C9.99513 10.0847 10.8748 9.99811 11.6742 9.66697C12.4737 9.33584 13.1569 8.77508 13.6377 8.05562C14.1184 7.33615 14.375 6.49029 14.375 5.625C14.375 4.46468 13.9141 3.35188 13.0936 2.53141C12.2731 1.71094 11.1603 1.25 9.99999 1.25ZM9.99999 8.75C9.38192 8.75 8.77773 8.56672 8.26383 8.22334C7.74993 7.87996 7.34939 7.3919 7.11286 6.82089C6.87634 6.24987 6.81445 5.62153 6.93503 5.01534C7.05561 4.40915 7.35324 3.85233 7.79028 3.41529C8.22732 2.97825 8.78414 2.68062 9.39033 2.56005C9.99652 2.43947 10.6249 2.50135 11.1959 2.73788C11.7669 2.9744 12.255 3.37494 12.5983 3.88884C12.9417 4.40275 13.125 5.00693 13.125 5.625C13.125 6.03538 13.0442 6.44174 12.8871 6.82089C12.7301 7.20003 12.4999 7.54453 12.2097 7.83471C11.9195 8.12489 11.575 8.35508 11.1959 8.51212C10.8167 8.66917 10.4104 8.75 9.99999 8.75Z" fill="#858687"/>
<path d="M13.2312 11.25H6.76875C5.30559 11.2517 3.90284 11.8336 2.86823 12.8682C1.83362 13.9028 1.25165 15.3056 1.25 16.7688C1.25 17.2942 1.45874 17.7981 1.83029 18.1697C2.20185 18.5413 2.70579 18.75 3.23125 18.75H16.7688C17.2942 18.75 17.7981 18.5413 18.1697 18.1697C18.5413 17.7981 18.75 17.2942 18.75 16.7688C18.7483 15.3056 18.1664 13.9028 17.1318 12.8682C16.0972 11.8336 14.6944 11.2517 13.2312 11.25ZM16.7688 17.5H3.23125C3.03731 17.5 2.85131 17.423 2.71418 17.2858C2.57704 17.1487 2.5 16.9627 2.5 16.7688C2.5 15.6366 2.94974 14.5508 3.75029 13.7503C4.55083 12.9497 5.63661 12.5 6.76875 12.5H13.2312C14.3634 12.5 15.4492 12.9497 16.2497 13.7503C17.0503 14.5508 17.5 15.6366 17.5 16.7688C17.5 16.9627 17.423 17.1487 17.2858 17.2858C17.1487 17.423 16.9627 17.5 16.7688 17.5Z" fill="#858687"/>
</svg>
