<svg width="58" height="58" viewBox="0 0 58 58" fill="none" xmlns="http://www.w3.org/2000/svg">
<g clip-path="url(#clip0_676_8527)">
<path d="M56.6787 58H1.3331C1.15953 58.0001 0.987627 57.9661 0.827241 57.8997C0.666856 57.8334 0.521143 57.736 0.398411 57.6133C0.27568 57.4906 0.178361 57.3449 0.112011 57.1845C0.0456602 57.0241 0.0115655 56.8522 0.0117193 56.6786V1.32137C0.0115655 1.1478 0.0456602 0.975908 0.112011 0.815523C0.178361 0.655137 0.27568 0.509409 0.398411 0.386678C0.521143 0.263947 0.666856 0.166621 0.827241 0.100271C0.987627 0.03392 1.15953 -0.000153286 1.3331 5.18379e-07H56.6787C57.0286 0.000620287 57.364 0.140147 57.6111 0.387918C57.8582 0.63569 57.9968 0.971434 57.9965 1.32137V56.6669C57.9979 56.8411 57.9649 57.0138 57.8994 57.1752C57.8338 57.3366 57.737 57.4834 57.6145 57.6073C57.4921 57.7311 57.3464 57.8296 57.1858 57.897C57.0252 57.9644 56.8528 57.9994 56.6787 58Z" fill="#FFF6EF"/>
<path d="M0.463867 45.3711H56.5929V46.3066H0.463867V45.3711Z" fill="#E6E7E8"/>
<path d="M0.463867 33.6777H56.5929V34.6132H0.463867V33.6777Z" fill="#E6E7E8"/>
<path d="M0.463867 21.9834H56.5929V22.9189H0.463867V21.9834Z" fill="#E6E7E8"/>
<path d="M0.463867 10.29H56.5929V11.2255H0.463867V10.29Z" fill="#E6E7E8"/>
<path d="M46.7705 0.935547H47.706V57.0646H46.7705V0.935547Z" fill="#E6E7E8"/>
<path d="M35.0771 0.935547H36.0126V57.0646H35.0771V0.935547Z" fill="#E6E7E8"/>
<path d="M23.3838 0.935547H24.3193V57.0646H23.3838V0.935547Z" fill="#E6E7E8"/>
<path d="M11.6904 0.935547H12.6259V57.0646H11.6904V0.935547Z" fill="#E6E7E8"/>
<path d="M0.912145 58C0.673343 58 0.44431 57.9051 0.275452 57.7363C0.106593 57.5674 0.0117187 57.3384 0.0117188 57.0996V0.900403C0.0117187 0.661601 0.106593 0.43258 0.275452 0.263722C0.44431 0.0948636 0.673343 0 0.912145 0C1.15095 0 1.37995 0.0948636 1.54881 0.263722C1.71767 0.43258 1.81254 0.661601 1.81254 0.900403V57.0996C1.81041 57.3377 1.71487 57.5655 1.54647 57.7339C1.37807 57.9023 1.15029 57.9979 0.912145 58Z" fill="#434A54"/>
<path d="M-0.00390625 57.0996C-0.00390625 57.3384 0.0909683 57.5674 0.259827 57.7363C0.428685 57.9052 0.65769 58 0.896491 58H57.0957C57.3345 58 57.5635 57.9052 57.7324 57.7363C57.9012 57.5674 57.9961 57.3384 57.9961 57.0996C57.9961 56.8608 57.9012 56.6318 57.7324 56.4629C57.5635 56.2941 57.3345 56.1992 57.0957 56.1992H0.896491C0.65769 56.1992 0.428685 56.2941 0.259827 56.4629C0.0909683 56.6318 -0.00390625 56.8608 -0.00390625 57.0996Z" fill="#434A54"/>
<path d="M12.6429 10.29H45.8245C46.0762 10.2903 46.3175 10.3905 46.4955 10.5685C46.6735 10.7465 46.7737 10.9878 46.774 11.2396V44.4212C46.7737 44.6729 46.6735 44.9142 46.4955 45.0922C46.3175 45.2702 46.0762 45.3704 45.8245 45.3707H12.6429C12.3911 45.3704 12.1498 45.2702 11.9718 45.0922C11.7938 44.9142 11.6937 44.6729 11.6934 44.4212V11.2396C11.6937 10.9878 11.7938 10.7465 11.9718 10.5685C12.1498 10.3905 12.3911 10.2903 12.6429 10.29Z" fill="#6F7479"/>
<path d="M14.804 12.6289H43.6637C43.7651 12.6288 43.8655 12.6486 43.9592 12.6873C44.0529 12.7261 44.1381 12.7829 44.2097 12.8546C44.2814 12.9263 44.3383 13.0114 44.377 13.1052C44.4157 13.1989 44.4356 13.2993 44.4355 13.4007V42.2603C44.4356 42.3617 44.4157 42.4622 44.377 42.5559C44.3383 42.6496 44.2814 42.7347 44.2097 42.8064C44.1381 42.8781 44.0529 42.935 43.9592 42.9737C43.8655 43.0124 43.7651 43.0323 43.6637 43.0321H14.804C14.7026 43.0323 14.6022 43.0124 14.5085 42.9737C14.4148 42.935 14.3296 42.8781 14.2579 42.8064C14.1862 42.7347 14.1294 42.6496 14.0907 42.5559C14.0519 42.4622 14.0321 42.3617 14.0322 42.2603V13.4007C14.0321 13.2993 14.0519 13.1989 14.0907 13.1052C14.1294 13.0114 14.1862 12.9263 14.2579 12.8546C14.3296 12.7829 14.4148 12.7261 14.5085 12.6873C14.6022 12.6486 14.7026 12.6288 14.804 12.6289Z" fill="#AEB1B3"/>
<path d="M14.0283 13.4475V35.1448C14.0283 35.3619 14.1146 35.5701 14.2681 35.7236C14.4216 35.8771 14.6298 35.9634 14.8469 35.9634H41.2743C42.1116 35.9634 42.9147 35.6307 43.5068 35.0386C44.0989 34.4465 44.4315 33.6435 44.4315 32.8061V13.4475C44.4315 13.2304 44.3453 13.0222 44.1918 12.8687C44.0383 12.7151 43.8301 12.6289 43.613 12.6289H14.8469C14.6298 12.6289 14.4216 12.7151 14.2681 12.8687C14.1146 13.0222 14.0283 13.2304 14.0283 13.4475Z" fill="#FFF6EF"/>
<path d="M23.9682 40.109H19.2907C19.1357 40.109 18.9869 40.0474 18.8773 39.9378C18.7676 39.8281 18.7061 39.6794 18.7061 39.5244V33.6776C18.7061 33.5225 18.7676 33.3738 18.8773 33.2641C18.9869 33.1545 19.1357 33.0929 19.2907 33.0929H23.9682V31.3389H25.1375V33.6776C25.1375 33.8326 25.0759 33.9814 24.9663 34.091C24.8566 34.2007 24.7079 34.2623 24.5528 34.2623H19.8754V38.9397H23.9682V40.109Z" fill="#D6D6D7"/>
<path d="M39.17 40.109H34.4926V38.9397H38.5853V34.2623H33.9079C33.7529 34.2623 33.6041 34.2007 33.4945 34.091C33.3848 33.9814 33.3232 33.8326 33.3232 33.6776V31.3389H34.4926V33.0929H39.17C39.3251 33.0929 39.4738 33.1545 39.5835 33.2641C39.6931 33.3738 39.7547 33.5225 39.7547 33.6776V39.5244C39.7547 39.6794 39.6931 39.8281 39.5835 39.9378C39.4738 40.0474 39.3251 40.109 39.17 40.109Z" fill="#D6D6D7"/>
<path d="M28.6455 31.3389H29.8148V38.9397H28.6455V31.3389Z" fill="#D6D6D7"/>
<path d="M24.5561 40.6932C25.2019 40.6932 25.7254 40.1697 25.7254 39.5238C25.7254 38.878 25.2019 38.3545 24.5561 38.3545C23.9103 38.3545 23.3867 38.878 23.3867 39.5238C23.3867 40.1697 23.9103 40.6932 24.5561 40.6932Z" fill="#EC1B2E"/>
<path d="M29.2338 40.6932C29.8796 40.6932 30.4032 40.1697 30.4032 39.5238C30.4032 38.878 29.8796 38.3545 29.2338 38.3545C28.588 38.3545 28.0645 38.878 28.0645 39.5238C28.0645 40.1697 28.588 40.6932 29.2338 40.6932Z" fill="#F7C244"/>
<path d="M33.9115 40.6932C34.5574 40.6932 35.0809 40.1697 35.0809 39.5238C35.0809 38.878 34.5574 38.3545 33.9115 38.3545C33.2657 38.3545 32.7422 38.878 32.7422 39.5238C32.7422 40.1697 33.2657 40.6932 33.9115 40.6932Z" fill="#009961"/>
<path d="M23.3838 29H25.7225V31.3387H23.3838V29Z" fill="#AEB1B3"/>
<path d="M28.0605 29H30.3993V31.3387H28.0605V29Z" fill="#AEB1B3"/>
<path d="M32.7383 29H35.077V31.3387H32.7383V29Z" fill="#AEB1B3"/>
<path d="M38.5851 25.7808V15.8483C38.5851 15.6148 38.4923 15.3908 38.3272 15.2257C38.162 15.0605 37.9381 14.9678 37.7045 14.9678H20.7594C20.5259 14.9678 20.3019 15.0605 20.1368 15.2257C19.9717 15.3908 19.8789 15.6148 19.8789 15.8483V25.7808C19.8789 26.0143 19.9717 26.2383 20.1368 26.4034C20.3019 26.5686 20.5259 26.6613 20.7594 26.6613H21.3371C21.5706 26.6613 21.7946 26.7541 21.9597 26.9192C22.1248 27.0844 22.2176 27.3083 22.2176 27.5418V28.1195C22.2176 28.353 22.3104 28.577 22.4755 28.7421C22.6407 28.9073 22.8646 29 23.0981 29H35.3693C35.6029 29 35.8268 28.9073 35.992 28.7421C36.1571 28.577 36.2499 28.353 36.2499 28.1195V27.5418C36.2499 27.3083 36.3427 27.0844 36.5078 26.9192C36.6729 26.7541 36.8969 26.6613 37.1304 26.6613H37.7081C37.941 26.6604 38.164 26.5672 38.3284 26.4022C38.4928 26.2372 38.5851 26.0137 38.5851 25.7808Z" fill="#D6D6D7"/>
<path d="M23.3871 19.6453C24.0329 19.6453 24.5565 19.1218 24.5565 18.476C24.5565 17.8302 24.0329 17.3066 23.3871 17.3066C22.7413 17.3066 22.2178 17.8302 22.2178 18.476C22.2178 19.1218 22.7413 19.6453 23.3871 19.6453Z" fill="#FFF6EF"/>
<path d="M23.3871 24.3221C24.0329 24.3221 24.5565 23.7986 24.5565 23.1528C24.5565 22.5069 24.0329 21.9834 23.3871 21.9834C22.7413 21.9834 22.2178 22.5069 22.2178 23.1528C22.2178 23.7986 22.7413 24.3221 23.3871 24.3221Z" fill="#FFF6EF"/>
<path d="M26.8916 17.3066H36.2464V22.978H26.8916V17.3066Z" fill="#EC1B2E"/>
</g>
<defs>
<clipPath id="clip0_676_8527">
<rect width="58" height="58" fill="white"/>
</clipPath>
</defs>
</svg>
