<svg width="58" height="58" viewBox="0 0 58 58" fill="none" xmlns="http://www.w3.org/2000/svg">
<g clip-path="url(#clip0_351_8138)">
<path d="M56.6786 58H1.32137C0.596371 58 0 57.4036 0 56.6786V1.32137C0 0.596371 0.596371 0 1.32137 0H56.6669C57.4036 0 57.9883 0.596371 57.9883 1.32137V56.6669C58 57.4036 57.4036 58 56.6786 58Z" fill="#FFF6EF"/>
<path d="M0.467773 45.3711H56.5968V46.3066H0.467773V45.3711Z" fill="#E6E7E8"/>
<path d="M0.467773 33.6777H56.5968V34.6132H0.467773V33.6777Z" fill="#E6E7E8"/>
<path d="M0.467773 21.9834H56.5968V22.9189H0.467773V21.9834Z" fill="#E6E7E8"/>
<path d="M0.467773 10.29H56.5968V11.2255H0.467773V10.29Z" fill="#E6E7E8"/>
<path d="M46.7744 0.935547H47.7099V57.0646H46.7744V0.935547Z" fill="#E6E7E8"/>
<path d="M35.0811 0.935547H36.0165V57.0646H35.0811V0.935547Z" fill="#E6E7E8"/>
<path d="M23.3867 0.935547H24.3222V57.0646H23.3867V0.935547Z" fill="#E6E7E8"/>
<path d="M11.6934 0.935547H12.6288V57.0646H11.6934V0.935547Z" fill="#E6E7E8"/>
<path d="M1.77762 57.4736L0.09375 56.655L11.9042 32.5312L24.0421 45.1486L35.3147 39.2901H49.5809V41.1611H35.7825L23.6679 47.4639L12.4188 35.7587L1.77762 57.4736Z" fill="#EC1B2E"/>
<path d="M1.60162 57.7307L0.268555 56.3976L11.4242 45.2419L23.375 27.0819L35.0568 28.0174L46.4464 10.2432L48.025 11.2488L36.0274 29.9585L24.3222 29.023L12.8859 46.4113L12.8157 46.4815L1.60162 57.7307Z" fill="#858687"/>
<path d="M55.6617 40.2253L49.1133 36.4834V43.9673L55.6617 40.2253Z" fill="#EC1B2E"/>
<path d="M50.5162 5.61328L43.9678 9.21489L50.3524 13.0972L50.5162 5.61328Z" fill="#858687"/>
<path d="M35.5482 31.1052C36.7107 31.1052 37.653 30.1628 37.653 29.0003C37.653 27.8379 36.7107 26.8955 35.5482 26.8955C34.3857 26.8955 33.4434 27.8379 33.4434 29.0003C33.4434 30.1628 34.3857 31.1052 35.5482 31.1052Z" fill="#858687"/>
<path d="M35.5482 42.3308C36.7107 42.3308 37.653 41.3884 37.653 40.2259C37.653 39.0635 36.7107 38.1211 35.5482 38.1211C34.3857 38.1211 33.4434 39.0635 33.4434 40.2259C33.4434 41.3884 34.3857 42.3308 35.5482 42.3308Z" fill="#EC1B2E"/>
<path d="M23.8548 30.1696C25.0173 30.1696 25.9597 29.2273 25.9597 28.0648C25.9597 26.9023 25.0173 25.96 23.8548 25.96C22.6924 25.96 21.75 26.9023 21.75 28.0648C21.75 29.2273 22.6924 30.1696 23.8548 30.1696Z" fill="#858687"/>
<path d="M23.8548 47.9431C25.0173 47.9431 25.9597 47.0007 25.9597 45.8382C25.9597 44.6758 25.0173 43.7334 23.8548 43.7334C22.6924 43.7334 21.75 44.6758 21.75 45.8382C21.75 47.0007 22.6924 47.9431 23.8548 47.9431Z" fill="#EC1B2E"/>
<path d="M12.1615 47.9431C13.3239 47.9431 14.2663 47.0007 14.2663 45.8382C14.2663 44.6758 13.3239 43.7334 12.1615 43.7334C10.999 43.7334 10.0566 44.6758 10.0566 45.8382C10.0566 47.0007 10.999 47.9431 12.1615 47.9431Z" fill="#858687"/>
<path d="M12.1615 36.2497C13.3239 36.2497 14.2663 35.3073 14.2663 34.1449C14.2663 32.9824 13.3239 32.04 12.1615 32.04C10.999 32.04 10.0566 32.9824 10.0566 34.1449C10.0566 35.3073 10.999 36.2497 12.1615 36.2497Z" fill="#EC1B2E"/>
<path d="M0.900403 58C0.397581 58 0 57.5907 0 57.0996V0.900403C0 0.409274 0.409274 0 0.900403 0C1.40323 0 1.80081 0.409274 1.80081 0.900403V57.0996C1.80081 57.5907 1.40323 58 0.900403 58Z" fill="#434A54"/>
<path d="M0 57.0996C0 57.6024 0.409274 58 0.900403 58H57.0996C57.6024 58 58 57.5907 58 57.0996C58 56.5968 57.5907 56.1992 57.0996 56.1992H0.900403C0.409274 56.1992 0 56.5968 0 57.0996Z" fill="#434A54"/>
</g>
<defs>
<clipPath id="clip0_351_8138">
<rect width="58" height="58" fill="white"/>
</clipPath>
</defs>
</svg>
