<svg width="58" height="58" viewBox="0 0 58 58" fill="none" xmlns="http://www.w3.org/2000/svg">
<g clip-path="url(#clip0_694_8580)">
<path d="M56.6669 58H1.32138C1.14781 58.0001 0.975908 57.9661 0.815523 57.8997C0.655137 57.8334 0.509424 57.736 0.386693 57.6133C0.263961 57.4906 0.166614 57.3449 0.100264 57.1845C0.0339129 57.0241 -0.000153286 56.8522 5.18486e-07 56.6786V1.32137C-0.000153286 1.1478 0.0339129 0.975908 0.100264 0.815523C0.166614 0.655137 0.263961 0.509409 0.386693 0.386678C0.509424 0.263947 0.655137 0.166621 0.815523 0.100271C0.975908 0.03392 1.14781 -0.000153286 1.32138 5.18379e-07H56.6669C56.8405 -0.000153286 57.0124 0.03392 57.1728 0.100271C57.3332 0.166621 57.4789 0.263947 57.6016 0.386678C57.7243 0.509409 57.8217 0.655137 57.8881 0.815523C57.9544 0.975908 57.9885 1.1478 57.9883 1.32137V56.6669C57.9906 56.8417 57.9581 57.0151 57.8927 57.1771C57.8272 57.3391 57.7302 57.4865 57.6072 57.6106C57.4842 57.7347 57.3377 57.833 57.1762 57.8999C57.0148 57.9668 56.8416 58.0008 56.6669 58Z" fill="#FFF6EF"/>
<path d="M0.467773 45.3711H56.5968V46.3066H0.467773V45.3711Z" fill="#E6E7E8"/>
<path d="M0.467773 33.6777H56.5968V34.6132H0.467773V33.6777Z" fill="#E6E7E8"/>
<path d="M0.467773 21.9834H56.5968V22.9189H0.467773V21.9834Z" fill="#E6E7E8"/>
<path d="M0.467773 10.29H56.5968V11.2255H0.467773V10.29Z" fill="#E6E7E8"/>
<path d="M46.7744 0.935547H47.7099V57.0646H46.7744V0.935547Z" fill="#E6E7E8"/>
<path d="M35.0811 0.935547H36.0165V57.0646H35.0811V0.935547Z" fill="#E6E7E8"/>
<path d="M23.3867 0.935547H24.3222V57.0646H23.3867V0.935547Z" fill="#E6E7E8"/>
<path d="M11.6934 0.935547H12.6288V57.0646H11.6934V0.935547Z" fill="#E6E7E8"/>
<path d="M0.900397 58C0.661596 58 0.432591 57.9051 0.263733 57.7363C0.0948745 57.5674 0 57.3384 0 57.0996V0.900403C0 0.661601 0.0948745 0.43258 0.263733 0.263722C0.432591 0.0948636 0.661596 0 0.900397 0C1.1392 0 1.36823 0.0948636 1.53709 0.263722C1.70595 0.43258 1.80079 0.661601 1.80079 0.900403V57.0996C1.80079 57.3384 1.70595 57.5674 1.53709 57.7363C1.36823 57.9051 1.1392 58 0.900397 58Z" fill="#434A54"/>
<path d="M2.77753e-05 57.0996C2.77753e-05 57.3385 0.0949023 57.5675 0.263761 57.7363C0.432619 57.9052 0.661623 58.0001 0.900425 58.0001H57.0996C57.3384 58.0001 57.5675 57.9052 57.7363 57.7363C57.9052 57.5675 58 57.3385 58 57.0996C58 56.8608 57.9052 56.6318 57.7363 56.463C57.5675 56.2941 57.3384 56.1992 57.0996 56.1992H0.900425C0.781922 56.1983 0.664421 56.221 0.554757 56.2659C0.445094 56.3108 0.345473 56.3771 0.261677 56.4609C0.17788 56.5447 0.111579 56.6443 0.0666604 56.754C0.0217418 56.8636 -0.000906589 56.9811 2.77753e-05 57.0996Z" fill="#434A54"/>
<path d="M37.4441 44.2609H26.3809L27.3163 38.8818H36.5156L37.4441 44.2609Z" fill="#D6D6D7"/>
<path d="M37.4444 44.2609H35.2226L34.2871 38.8818H36.5089L37.4444 44.2609Z" fill="#AEB1B3"/>
<path d="M50.8458 13.8868V36.7231C50.8448 37.335 50.6013 37.9214 50.1686 38.3539C49.7358 38.7864 49.1493 39.0297 48.5375 39.0303H15.2868C14.7551 39.0301 14.2397 38.8464 13.8276 38.5102C13.4156 38.174 13.1322 37.706 13.0253 37.185C12.9936 37.0343 12.978 36.8807 12.9785 36.7267V13.8868C12.9788 13.2745 13.2221 12.6873 13.6548 12.2541C14.0876 11.8209 14.6745 11.5771 15.2868 11.5762H48.5375C49.1498 11.5771 49.7367 11.8209 50.1695 12.2541C50.6022 12.6873 50.8455 13.2745 50.8458 13.8868Z" fill="#FFF6EF" stroke="#AEB1B3" stroke-width="6" stroke-miterlimit="10"/>
<path d="M50.8458 13.8868V36.7231C50.8449 37.335 50.6014 37.9214 50.1686 38.3539C49.7359 38.7864 49.1494 39.0297 48.5375 39.0303H15.2869C14.7552 39.0301 14.2398 38.8464 13.8277 38.5102C13.4157 38.174 13.1323 37.706 13.0254 37.185H46.6888C47.301 37.185 47.8881 36.9418 48.321 36.509C48.7539 36.0761 48.9971 35.4889 48.9971 34.8767V13.8868C48.9974 13.5835 48.9379 13.2831 48.8221 13.0027C48.7062 12.7224 48.5362 12.4677 48.3218 12.2531C48.1075 12.0385 47.8529 11.8683 47.5727 11.7521C47.2925 11.636 46.9921 11.5762 46.6888 11.5762H48.5375C49.1495 11.5771 49.736 11.8206 50.1687 12.2533C50.6014 12.686 50.8449 13.2726 50.8458 13.8845V13.8868Z" fill="#AEB1B3"/>
<path d="M50.8458 35.5176V36.7232C50.8448 37.335 50.6013 37.9215 50.1686 38.354C49.7358 38.7865 49.1493 39.0297 48.5375 39.0303H15.2868C14.7551 39.0301 14.2397 38.8464 13.8276 38.5103C13.4156 38.1741 13.1322 37.706 13.0253 37.1851C12.9936 37.0343 12.978 36.8807 12.9785 36.7267V35.5176H50.8458Z" fill="#6F7479"/>
<path d="M46.9975 29.0737H45.0856L43.4801 25.9165C43.4338 25.825 43.3631 25.7481 43.2758 25.6944C43.1885 25.6407 43.088 25.6123 42.9854 25.6123C42.8829 25.6123 42.7824 25.6407 42.6951 25.6944C42.6078 25.7481 42.5371 25.825 42.4908 25.9165L39.8726 31.0616L37.6637 26.7198C37.6173 26.6286 37.5466 26.5521 37.4594 26.4986C37.3722 26.4451 37.2719 26.4168 37.1696 26.4168C37.0674 26.4168 36.967 26.4451 36.8798 26.4986C36.7927 26.5521 36.722 26.6286 36.6756 26.7198L35.4782 29.0737H33.5663C33.4913 29.0703 33.4164 29.0821 33.346 29.1084C33.2757 29.1347 33.2115 29.1751 33.1572 29.2269C33.1029 29.2788 33.0596 29.3411 33.0301 29.4102C33.0006 29.4792 32.9854 29.5535 32.9854 29.6286C32.9854 29.7037 33.0006 29.778 33.0301 29.847C33.0596 29.9161 33.1029 29.9784 33.1572 30.0303C33.2115 30.0821 33.2757 30.1224 33.346 30.1488C33.4164 30.1751 33.4913 30.1869 33.5663 30.1834H35.8185C35.9206 30.1834 36.0208 30.155 36.1079 30.1016C36.195 30.0481 36.2656 29.9716 36.3119 29.8806L37.1702 28.1955L39.3791 32.5374C39.4255 32.6285 39.4962 32.7051 39.5834 32.7586C39.6706 32.8121 39.7709 32.8404 39.8732 32.8404C39.9755 32.8404 40.0758 32.8121 40.163 32.7586C40.2502 32.7051 40.3209 32.6285 40.3672 32.5374L42.9854 27.3922L44.2507 29.8806C44.2972 29.9717 44.368 30.0483 44.4553 30.1017C44.5426 30.1551 44.643 30.1834 44.7453 30.1834H46.9975C47.1402 30.1769 47.275 30.1156 47.3737 30.0122C47.4724 29.9089 47.5275 29.7715 47.5275 29.6286C47.5275 29.4857 47.4724 29.3483 47.3737 29.2449C47.275 29.1416 47.1402 29.0803 46.9975 29.0737Z" fill="#EC1B2E"/>
<path d="M36.4446 17.207H33.5668C33.4688 17.207 33.3748 17.246 33.3055 17.3153C33.2362 17.3846 33.1973 17.4785 33.1973 17.5765V23.4163C33.1973 23.5143 33.2362 23.6083 33.3055 23.6776C33.3748 23.7469 33.4688 23.7858 33.5668 23.7858H36.4446C36.5427 23.7858 36.6368 23.7469 36.7063 23.6777C36.7758 23.6084 36.815 23.5144 36.8153 23.4163V17.5765C36.815 17.4784 36.7758 17.3845 36.7063 17.3152C36.6368 17.2459 36.5427 17.207 36.4446 17.207Z" fill="#EC1B2E"/>
<path d="M41.7416 18.7939H38.8627C38.7647 18.7939 38.6707 18.8329 38.6014 18.9022C38.5321 18.9715 38.4932 19.0655 38.4932 19.1635V23.4164C38.493 23.465 38.5025 23.5131 38.521 23.558C38.5395 23.6029 38.5667 23.6437 38.6011 23.678C38.6354 23.7124 38.6762 23.7396 38.7211 23.7581C38.766 23.7766 38.8141 23.7861 38.8627 23.7859H41.7416C41.8396 23.7859 41.9336 23.747 42.0029 23.6777C42.0722 23.6084 42.1112 23.5144 42.1112 23.4164V19.1635C42.1109 19.0656 42.0718 18.9717 42.0026 18.9025C41.9334 18.8333 41.8395 18.7943 41.7416 18.7939Z" fill="#FF575D"/>
<path d="M46.9975 15.7432H44.1197C44.0216 15.7432 43.9275 15.7821 43.858 15.8513C43.7885 15.9206 43.7493 16.0146 43.749 16.1127V23.4165C43.7493 23.5146 43.7885 23.6086 43.858 23.6778C43.9275 23.7471 44.0216 23.786 44.1197 23.786H46.9975C47.0955 23.786 47.1895 23.7471 47.2588 23.6778C47.3281 23.6085 47.367 23.5145 47.367 23.4165V16.1127C47.367 16.0147 47.3281 15.9207 47.2588 15.8514C47.1895 15.7821 47.0955 15.7432 46.9975 15.7432Z" fill="#FFBDBA"/>
<path d="M38.7315 43.1494H25.0933C24.7987 43.1494 24.5161 43.2665 24.3078 43.4748C24.0995 43.6831 23.9824 43.9657 23.9824 44.2603C23.9824 44.5549 24.0995 44.8375 24.3078 45.0458C24.5161 45.2542 24.7987 45.3712 25.0933 45.3712H38.7315C39.0261 45.3712 39.3087 45.2542 39.517 45.0458C39.7253 44.8375 39.8424 44.5549 39.8424 44.2603C39.8424 43.9657 39.7253 43.6831 39.517 43.4748C39.3087 43.2665 39.0261 43.1494 38.7315 43.1494Z" fill="#D6D6D7"/>
<path d="M29.3902 22.5348H16.8173C16.7423 22.5313 16.6673 22.5431 16.597 22.5694C16.5267 22.5958 16.4624 22.6361 16.4081 22.688C16.3538 22.7398 16.3106 22.8022 16.2811 22.8712C16.2516 22.9402 16.2363 23.0145 16.2363 23.0896C16.2363 23.1647 16.2516 23.239 16.2811 23.3081C16.3106 23.3771 16.3538 23.4394 16.4081 23.4913C16.4624 23.5431 16.5267 23.5835 16.597 23.6098C16.6673 23.6361 16.7423 23.6479 16.8173 23.6445H29.3902C29.5329 23.6379 29.6677 23.5766 29.7664 23.4733C29.8651 23.3699 29.9201 23.2325 29.9201 23.0896C29.9201 22.9467 29.8651 22.8093 29.7664 22.706C29.6677 22.6026 29.5329 22.5413 29.3902 22.5348Z" fill="#D6D6D7"/>
<path d="M16.8179 27.1291H19.0678C19.2148 27.1291 19.3558 27.0707 19.4597 26.9667C19.5636 26.8628 19.6221 26.7218 19.6221 26.5748C19.6221 26.4278 19.5636 26.2868 19.4597 26.1828C19.3558 26.0789 19.2148 26.0205 19.0678 26.0205H16.8179C16.7452 26.0205 16.6731 26.0348 16.6058 26.0627C16.5386 26.0906 16.4775 26.1314 16.426 26.1828C16.3745 26.2343 16.3337 26.2954 16.3059 26.3627C16.278 26.4299 16.2637 26.502 16.2637 26.5748C16.2637 26.6476 16.278 26.7196 16.3059 26.7869C16.3337 26.8541 16.3745 26.9152 16.426 26.9667C16.4775 27.0182 16.5386 27.059 16.6058 27.0869C16.6731 27.1147 16.7452 27.1291 16.8179 27.1291Z" fill="#D6D6D7"/>
<path d="M29.391 26.0244H21.609C21.462 26.0244 21.321 26.0828 21.217 26.1868C21.1131 26.2907 21.0547 26.4317 21.0547 26.5787C21.0547 26.7257 21.1131 26.8667 21.217 26.9706C21.321 27.0746 21.462 27.133 21.609 27.133H29.391C29.538 27.133 29.679 27.0746 29.7829 26.9706C29.8869 26.8667 29.9453 26.7257 29.9453 26.5787C29.9453 26.4317 29.8869 26.2907 29.7829 26.1868C29.679 26.0828 29.538 26.0244 29.391 26.0244Z" fill="#D6D6D7"/>
<path d="M16.8173 16.6679H29.3902C29.5329 16.6614 29.6677 16.6 29.7664 16.4967C29.8651 16.3934 29.9201 16.256 29.9201 16.1131C29.9201 15.9702 29.8651 15.8328 29.7664 15.7294C29.6677 15.6261 29.5329 15.5648 29.3902 15.5582H16.8173C16.7423 15.5548 16.6673 15.5666 16.597 15.5929C16.5267 15.6192 16.4624 15.6595 16.4081 15.7114C16.3538 15.7633 16.3106 15.8256 16.2811 15.8946C16.2516 15.9637 16.2363 16.038 16.2363 16.1131C16.2363 16.1881 16.2516 16.2625 16.2811 16.3315C16.3106 16.4005 16.3538 16.4629 16.4081 16.5147C16.4624 16.5666 16.5267 16.6069 16.597 16.6332C16.6673 16.6596 16.7423 16.6714 16.8173 16.6679Z" fill="#D6D6D7"/>
<path d="M16.8179 20.1562H24.6163C24.6913 20.1596 24.7662 20.1478 24.8365 20.1215C24.9068 20.0952 24.9711 20.0549 25.0254 20.003C25.0797 19.9511 25.1229 19.8888 25.1524 19.8198C25.182 19.7507 25.1972 19.6764 25.1972 19.6013C25.1972 19.5263 25.182 19.4519 25.1524 19.3829C25.1229 19.3139 25.0797 19.2515 25.0254 19.1997C24.9711 19.1478 24.9068 19.1075 24.8365 19.0812C24.7662 19.0548 24.6913 19.043 24.6163 19.0465H16.8202C16.7452 19.043 16.6703 19.0548 16.5999 19.0812C16.5296 19.1075 16.4654 19.1478 16.4111 19.1997C16.3568 19.2515 16.3136 19.3139 16.284 19.3829C16.2545 19.4519 16.2393 19.5263 16.2393 19.6013C16.2393 19.6764 16.2545 19.7507 16.284 19.8198C16.3136 19.8888 16.3568 19.9511 16.4111 20.003C16.4654 20.0549 16.5296 20.0952 16.5999 20.1215C16.6703 20.1478 16.7452 20.1596 16.8202 20.1562H16.8179Z" fill="#D6D6D7"/>
<path d="M29.3908 19.0465H27.1561C27.0811 19.043 27.0062 19.0548 26.9359 19.0812C26.8655 19.1075 26.8013 19.1478 26.747 19.1997C26.6927 19.2515 26.6495 19.3139 26.6199 19.3829C26.5904 19.4519 26.5752 19.5263 26.5752 19.6013C26.5752 19.6764 26.5904 19.7507 26.6199 19.8198C26.6495 19.8888 26.6927 19.9511 26.747 20.003C26.8013 20.0549 26.8655 20.0952 26.9359 20.1215C27.0062 20.1478 27.0811 20.1596 27.1561 20.1562H29.3908C29.5335 20.1496 29.6682 20.0883 29.7669 19.985C29.8656 19.8817 29.9207 19.7442 29.9207 19.6013C29.9207 19.4584 29.8656 19.321 29.7669 19.2177C29.6682 19.1144 29.5335 19.053 29.3908 19.0465Z" fill="#D6D6D7"/>
<path d="M22.733 29.5123H16.8173C16.7423 29.5089 16.6673 29.5207 16.597 29.547C16.5267 29.5733 16.4624 29.6136 16.4081 29.6655C16.3538 29.7174 16.3106 29.7797 16.2811 29.8487C16.2516 29.9178 16.2363 29.9921 16.2363 30.0672C16.2363 30.1423 16.2516 30.2166 16.2811 30.2856C16.3106 30.3546 16.3538 30.417 16.4081 30.4688C16.4624 30.5207 16.5267 30.561 16.597 30.5873C16.6673 30.6137 16.7423 30.6255 16.8173 30.622H22.733C22.808 30.6255 22.8829 30.6137 22.9533 30.5873C23.0236 30.561 23.0878 30.5207 23.1421 30.4688C23.1964 30.417 23.2397 30.3546 23.2692 30.2856C23.2987 30.2166 23.314 30.1423 23.314 30.0672C23.314 29.9921 23.2987 29.9178 23.2692 29.8487C23.2397 29.7797 23.1964 29.7174 23.1421 29.6655C23.0878 29.6136 23.0236 29.5733 22.9533 29.547C22.8829 29.5207 22.808 29.5089 22.733 29.5123Z" fill="#D6D6D7"/>
<path d="M39.8412 44.2615C39.8412 44.5558 39.7243 44.838 39.5162 45.0462C39.3081 45.2543 39.0259 45.3712 38.7315 45.3712H36.5098C36.8044 45.3712 37.087 45.2542 37.2953 45.0458C37.5036 44.8375 37.6207 44.5549 37.6207 44.2603C37.6207 43.9657 37.5036 43.6831 37.2953 43.4748C37.087 43.2665 36.8044 43.1494 36.5098 43.1494H38.7315C38.8775 43.1493 39.0221 43.1779 39.1569 43.2338C39.2918 43.2897 39.4143 43.3716 39.5174 43.4749C39.6205 43.5783 39.7022 43.7009 39.7578 43.8359C39.8133 43.9709 39.8417 44.1155 39.8412 44.2615Z" fill="#AEB1B3"/>
</g>
<defs>
<clipPath id="clip0_694_8580">
<rect width="58" height="58" fill="white"/>
</clipPath>
</defs>
</svg>
