<svg width="58" height="58" viewBox="0 0 58 58" fill="none" xmlns="http://www.w3.org/2000/svg">
<g clip-path="url(#clip0_351_9525)">
<path d="M56.6786 58H1.32137C0.596371 58 0 57.4036 0 56.6786V1.32137C0 0.596371 0.596371 0 1.32137 0H56.6669C57.4036 0 57.9883 0.596371 57.9883 1.32137V56.6669C58 57.4036 57.4036 58 56.6786 58Z" fill="#FFF6EF"/>
<path d="M0.467773 45.3711H56.5968V46.3066H0.467773V45.3711Z" fill="#E6E7E8"/>
<path d="M0.467773 33.6777H56.5968V34.6132H0.467773V33.6777Z" fill="#E6E7E8"/>
<path d="M0.467773 21.9834H56.5968V22.9189H0.467773V21.9834Z" fill="#E6E7E8"/>
<path d="M0.467773 10.29H56.5968V11.2255H0.467773V10.29Z" fill="#E6E7E8"/>
<path d="M46.7744 0.935547H47.7099V57.0646H46.7744V0.935547Z" fill="#E6E7E8"/>
<path d="M35.0811 0.935547H36.0165V57.0646H35.0811V0.935547Z" fill="#E6E7E8"/>
<path d="M23.3867 0.935547H24.3222V57.0646H23.3867V0.935547Z" fill="#E6E7E8"/>
<path d="M11.6934 0.935547H12.6288V57.0646H11.6934V0.935547Z" fill="#E6E7E8"/>
<path d="M0.900403 58C0.397581 58 0 57.5907 0 57.0996V0.900403C0 0.409274 0.409274 0 0.900403 0C1.40323 0 1.80081 0.409274 1.80081 0.900403V57.0996C1.80081 57.5907 1.40323 58 0.900403 58Z" fill="#434A54"/>
<path d="M0 57.0996C0 57.6024 0.409274 58 0.900403 58H57.0996C57.6024 58 58 57.5907 58 57.0996C58 56.5968 57.5907 56.1992 57.0996 56.1992H0.900403C0.409274 56.1992 0 56.5968 0 57.0996Z" fill="#434A54"/>
<path d="M49.8958 18.5926V32.5664C49.8958 33.1628 49.4047 33.6539 48.8083 33.6539H47.1244V22.6386C47.1244 21.3406 46.072 20.2765 44.7623 20.2765H30.4845C30.4144 20.2765 30.3442 20.2414 30.3208 20.1713L28.8474 17.1777C28.4498 16.3709 27.6313 15.8681 26.7309 15.8681H22.8486V14.1842C22.8486 13.5878 23.3398 13.0967 23.9361 13.0967H31.6773C31.7474 13.0967 31.8176 13.1318 31.841 13.2019L33.3144 16.1955C33.7119 17.0023 34.5305 17.5051 35.4309 17.5051H48.82C49.4047 17.5051 49.8958 17.9963 49.8958 18.5926Z" fill="#D6D6D7"/>
<path d="M44.9495 22.6268V37.501C44.9495 38.0974 44.4584 38.5885 43.862 38.5885H42.1782V27.5732C42.1782 26.2752 41.1257 25.2111 39.8161 25.2111H25.5382C25.4681 25.2111 25.3979 25.176 25.3745 25.1058L23.9011 22.1123C23.4919 21.2938 22.6733 20.8026 21.7846 20.8026H17.9023V19.1188C17.9023 18.5224 18.3935 18.0312 18.9898 18.0312H26.731C26.8011 18.0312 26.8713 18.0663 26.8947 18.1365L28.3681 21.13C28.7656 21.9369 29.5842 22.4397 30.4846 22.4397H44.7741C44.8677 22.4397 44.9495 22.5333 44.9495 22.6268Z" fill="#EC1B2E"/>
<path d="M39.8278 27.386H25.5383C24.6379 27.386 23.8194 26.8832 23.4218 26.0763C22.6734 24.5679 23.0008 25.2344 21.9484 23.0828C21.9133 23.0243 21.8548 22.9775 21.7847 22.9775H14.0436C13.4472 22.9775 12.9561 23.4687 12.9561 24.065V42.4473C12.9561 43.0437 13.4472 43.5348 14.0436 43.5348H38.9274C39.5238 43.5348 40.0149 43.0437 40.0149 42.4473V27.5731C40.0149 27.4679 39.9331 27.386 39.8278 27.386ZM33.4548 40.0033C33.4548 40.6114 32.9637 41.0908 32.3673 41.0908C31.771 41.0908 31.2798 40.6114 31.2798 40.0033C31.2798 39.6058 31.2798 39.6876 31.2798 39.3017C31.2798 38.7054 31.7593 38.2142 32.3673 38.2142C32.9637 38.2142 33.4548 38.7054 33.4548 39.3017V40.0033ZM37.0214 40.0033C37.0214 40.6114 36.5302 41.0908 35.9339 41.0908C35.3375 41.0908 34.8464 40.6114 34.8464 40.0033C34.8464 39.6058 34.8464 39.6876 34.8464 39.3017C34.8464 38.7054 35.3258 38.2142 35.9339 38.2142C36.5302 38.2142 37.0214 38.7054 37.0214 39.3017V40.0033Z" fill="#6F7479"/>
</g>
<defs>
<clipPath id="clip0_351_9525">
<rect width="58" height="58" fill="white"/>
</clipPath>
</defs>
</svg>
