<svg width="58" height="58" viewBox="0 0 58 58" fill="none" xmlns="http://www.w3.org/2000/svg">
<g clip-path="url(#clip0_351_9505)">
<path d="M56.6786 58H1.32137C0.596371 58 0 57.4036 0 56.6786V1.32137C0 0.596371 0.596371 0 1.32137 0H56.6669C57.4036 0 57.9883 0.596371 57.9883 1.32137V56.6669C58 57.4036 57.4036 58 56.6786 58Z" fill="#FFF6EF"/>
<path d="M0.467773 45.3711H56.5968V46.3066H0.467773V45.3711Z" fill="#E6E7E8"/>
<path d="M0.467773 33.6777H56.5968V34.6132H0.467773V33.6777Z" fill="#E6E7E8"/>
<path d="M0.467773 21.9834H56.5968V22.9189H0.467773V21.9834Z" fill="#E6E7E8"/>
<path d="M0.467773 10.29H56.5968V11.2255H0.467773V10.29Z" fill="#E6E7E8"/>
<path d="M46.7744 0.935547H47.7099V57.0646H46.7744V0.935547Z" fill="#E6E7E8"/>
<path d="M35.0811 0.935547H36.0165V57.0646H35.0811V0.935547Z" fill="#E6E7E8"/>
<path d="M23.3867 0.935547H24.3222V57.0646H23.3867V0.935547Z" fill="#E6E7E8"/>
<path d="M11.6934 0.935547H12.6288V57.0646H11.6934V0.935547Z" fill="#E6E7E8"/>
<path d="M0.900403 58C0.397581 58 0 57.5907 0 57.0996V0.900403C0 0.409274 0.409274 0 0.900403 0C1.40323 0 1.80081 0.409274 1.80081 0.900403V57.0996C1.80081 57.5907 1.40323 58 0.900403 58Z" fill="#434A54"/>
<path d="M0 57.0996C0 57.6024 0.409274 58 0.900403 58H57.0996C57.6024 58 58 57.5907 58 57.0996C58 56.5968 57.5907 56.1992 57.0996 56.1992H0.900403C0.409274 56.1992 0 56.5968 0 57.0996Z" fill="#434A54"/>
<path d="M42.0271 43.2303L26.9775 35.6412C26.5799 35.4424 26.1122 35.4658 25.738 35.7114L14.2316 43.3005C13.7989 43.5811 13.6118 44.1073 13.7755 44.5751C13.9275 45.0428 14.3953 45.3703 14.9098 45.3703H41.4658C42.0154 45.3703 42.4949 45.0194 42.6235 44.5049C42.7638 44.0021 42.5182 43.4759 42.0271 43.2303Z" fill="#6F7479"/>
<path d="M39.3724 23.6673C39.2204 23.223 38.7877 22.9189 38.2966 22.9189H17.5289C17.0026 22.9189 16.5466 23.2698 16.4297 23.7609L12.6527 39.9331C12.5591 40.3657 12.7345 40.8101 13.1204 41.0556C13.3075 41.1726 13.5297 41.2427 13.7518 41.2427C13.974 41.2427 14.1962 41.1843 14.395 41.0556L38.9397 24.8718C39.3373 24.6028 39.5127 24.1117 39.3724 23.6673Z" fill="#B5B8BA"/>
<path d="M43.2083 26.111C43.1265 25.7368 42.8458 25.4328 42.4716 25.3042C42.0974 25.1638 41.6765 25.2106 41.3607 25.4328L29.8543 33.0219C29.5152 33.2441 29.3164 33.63 29.3397 34.0276C29.3631 34.4251 29.6087 34.7759 29.9712 34.963L45.0208 42.5288C45.1962 42.6223 45.3833 42.6574 45.5821 42.6574C45.8394 42.6574 46.0966 42.5755 46.3071 42.4235C46.6813 42.1546 46.8567 41.7102 46.7515 41.2659L43.2083 26.111Z" fill="#D6D6D7"/>
<path d="M20.4175 11.1436C16.2896 11.1436 12.9336 14.4996 12.9336 18.6274C12.9336 22.4746 18.9441 29.2686 19.6223 30.0403C19.8211 30.2625 20.1134 30.3911 20.4175 30.3911C20.7215 30.3911 21.0138 30.2625 21.2126 30.0403C21.9025 29.2802 27.9013 22.4746 27.9013 18.6274C27.9013 14.5113 24.5453 11.1436 20.4175 11.1436Z" fill="#EC1B2E"/>
<path d="M20.4169 21.8436C22.1865 21.8436 23.621 20.4091 23.621 18.6396C23.621 16.87 22.1865 15.4355 20.4169 15.4355C18.6474 15.4355 17.2129 16.87 17.2129 18.6396C17.2129 20.4091 18.6474 21.8436 20.4169 21.8436Z" fill="#FAFAFA"/>
</g>
<defs>
<clipPath id="clip0_351_9505">
<rect width="58" height="58" fill="white"/>
</clipPath>
</defs>
</svg>
