<svg width="58" height="58" viewBox="0 0 58 58" fill="none" xmlns="http://www.w3.org/2000/svg">
<g clip-path="url(#clip0_351_8179)">
<path d="M56.6786 58H1.32137C0.596371 58 0 57.4036 0 56.6786V1.32137C0 0.596371 0.596371 0 1.32137 0H56.6669C57.4036 0 57.9883 0.596371 57.9883 1.32137V56.6669C58 57.4036 57.4036 58 56.6786 58Z" fill="#FFF6EF"/>
<path d="M0.467773 45.3711H56.5968V46.3066H0.467773V45.3711Z" fill="#E6E7E8"/>
<path d="M0.467773 33.6777H56.5968V34.6132H0.467773V33.6777Z" fill="#E6E7E8"/>
<path d="M0.467773 21.9834H56.5968V22.9189H0.467773V21.9834Z" fill="#E6E7E8"/>
<path d="M0.467773 10.29H56.5968V11.2255H0.467773V10.29Z" fill="#E6E7E8"/>
<path d="M46.7744 0.935547H47.7099V57.0646H46.7744V0.935547Z" fill="#E6E7E8"/>
<path d="M35.0811 0.935547H36.0165V57.0646H35.0811V0.935547Z" fill="#E6E7E8"/>
<path d="M23.3867 0.935547H24.3222V57.0646H23.3867V0.935547Z" fill="#E6E7E8"/>
<path d="M11.6934 0.935547H12.6288V57.0646H11.6934V0.935547Z" fill="#E6E7E8"/>
<path d="M0.900403 58C0.397581 58 0 57.5907 0 57.0996V0.900403C0 0.409274 0.409274 0 0.900403 0C1.40323 0 1.80081 0.409274 1.80081 0.900403V57.0996C1.80081 57.5907 1.40323 58 0.900403 58Z" fill="#434A54"/>
<path d="M0 57.0996C0 57.6024 0.409274 58 0.900403 58H57.0996C57.6024 58 58 57.5907 58 57.0996C58 56.5968 57.5907 56.1992 57.0996 56.1992H0.900403C0.409274 56.1992 0 56.5968 0 57.0996Z" fill="#434A54"/>
<path d="M31.1393 10.7578H30.0752V27.9356H47.2413V26.8715C47.2413 18.0195 39.9796 10.7578 31.1393 10.7578Z" fill="#EC1B2E"/>
<path d="M16.3242 43.1837C19.1424 45.651 22.8258 47.2413 26.8601 47.2413C35.7004 47.2413 42.892 39.9796 42.892 31.1393V30.0752H29.4444L16.3242 43.1837Z" fill="#6F7479"/>
<path d="M27.9356 15.1074H26.8714C23.3868 15.1074 20.1593 16.2417 17.5166 18.1477L27.9356 28.5667V15.1074Z" fill="#FF8B8A"/>
<path d="M15.8562 19.5049C12.7691 22.4283 10.7578 26.5561 10.7578 31.14C10.7578 35.1742 12.3364 38.8577 14.8155 41.6758L26.4272 30.0642L15.8562 19.5049Z" fill="#B5B8BA"/>
</g>
<defs>
<clipPath id="clip0_351_8179">
<rect width="58" height="58" fill="white"/>
</clipPath>
</defs>
</svg>
