<svg width="58" height="58" viewBox="0 0 58 58" fill="none" xmlns="http://www.w3.org/2000/svg">
<g clip-path="url(#clip0_351_8161)">
<path d="M56.6786 58H1.32137C0.596371 58 0 57.4036 0 56.6786V1.32137C0 0.596371 0.596371 0 1.32137 0H56.6669C57.4036 0 57.9883 0.596371 57.9883 1.32137V56.6669C58 57.4036 57.4036 58 56.6786 58Z" fill="#FFF6EF"/>
<path d="M0.467773 45.3711H56.5968V46.3066H0.467773V45.3711Z" fill="#E6E7E8"/>
<path d="M0.467773 33.6777H56.5968V34.6132H0.467773V33.6777Z" fill="#E6E7E8"/>
<path d="M0.467773 21.9834H56.5968V22.9189H0.467773V21.9834Z" fill="#E6E7E8"/>
<path d="M0.467773 10.29H56.5968V11.2255H0.467773V10.29Z" fill="#E6E7E8"/>
<path d="M46.7744 0.935547H47.7099V57.0646H46.7744V0.935547Z" fill="#E6E7E8"/>
<path d="M35.0811 0.935547H36.0165V57.0646H35.0811V0.935547Z" fill="#E6E7E8"/>
<path d="M23.3867 0.935547H24.3222V57.0646H23.3867V0.935547Z" fill="#E6E7E8"/>
<path d="M11.6934 0.935547H12.6288V57.0646H11.6934V0.935547Z" fill="#E6E7E8"/>
<path d="M0.900403 58C0.397581 58 0 57.5907 0 57.0996V0.900403C0 0.409274 0.409274 0 0.900403 0C1.40323 0 1.80081 0.409274 1.80081 0.900403V57.0996C1.80081 57.5907 1.40323 58 0.900403 58Z" fill="#434A54"/>
<path d="M0 57.0996C0 57.6024 0.409274 58 0.900403 58H57.0996C57.6024 58 58 57.5907 58 57.0996C58 56.5968 57.5907 56.1992 57.0996 56.1992H0.900403C0.409274 56.1992 0 56.5968 0 57.0996Z" fill="#434A54"/>
<path d="M15.6458 45.3714H13.9503C13.2136 45.3714 12.6289 44.775 12.6289 44.05V26.4513C12.6289 25.7146 13.2253 25.1299 13.9503 25.1299H15.6458C16.3825 25.1299 16.9672 25.7263 16.9672 26.4513V44.0384C16.9672 44.775 16.3825 45.3714 15.6458 45.3714Z" fill="#FFBDBA"/>
<path d="M39.0335 45.3707H37.338C36.6013 45.3707 36.0166 44.7744 36.0166 44.0494V33.3848C36.0166 32.6482 36.613 32.0635 37.338 32.0635H39.0335C39.7702 32.0635 40.3549 32.6598 40.3549 33.3848V44.0494C40.3549 44.7744 39.7702 45.3707 39.0335 45.3707Z" fill="#FF575D"/>
<path d="M50.7269 45.3709H49.0313C48.2946 45.3709 47.71 44.7745 47.71 44.0495V14.4181C47.71 13.6814 48.3063 13.0967 49.0313 13.0967H50.7269C51.4636 13.0967 52.0483 13.6931 52.0483 14.4181V44.0378C52.0483 44.7745 51.4636 45.3709 50.7269 45.3709Z" fill="#EC1B2E"/>
<path d="M27.3392 45.3708H25.6436C24.9069 45.3708 24.3223 44.7744 24.3223 44.0494V18.92C24.3223 18.1833 24.9186 17.5986 25.6436 17.5986H27.3392C28.0759 17.5986 28.6606 18.195 28.6606 18.92V44.0494C28.6606 44.7744 28.0759 45.3708 27.3392 45.3708Z" fill="#FF8B8A"/>
</g>
<defs>
<clipPath id="clip0_351_8161">
<rect width="58" height="58" fill="white"/>
</clipPath>
</defs>
</svg>
