<svg width="24" height="25" viewBox="0 0 24 25" fill="none" xmlns="http://www.w3.org/2000/svg">
<g id="currency-dollar">
<path id="Path" d="M16.7 8.32422C16.2928 7.1688 15.2239 6.37707 14 6.32422H10C8.34315 6.32422 7 7.66736 7 9.32422C7 10.9811 8.34315 12.3242 10 12.3242H14C15.6569 12.3242 17 13.6674 17 15.3242C17 16.9811 15.6569 18.3242 14 18.3242H10C8.77606 18.2714 7.70722 17.4796 7.3 16.3242" stroke="#4B4B4B" stroke-width="1.75" stroke-linecap="round" stroke-linejoin="round"/>
<path id="Shape" d="M12.875 3.32422C12.875 2.84097 12.4832 2.44922 12 2.44922C11.5168 2.44922 11.125 2.84097 11.125 3.32422H12.875ZM11.125 6.32422C11.125 6.80747 11.5168 7.19922 12 7.19922C12.4832 7.19922 12.875 6.80747 12.875 6.32422H11.125ZM12.875 18.3242C12.875 17.841 12.4832 17.4492 12 17.4492C11.5168 17.4492 11.125 17.841 11.125 18.3242H12.875ZM11.125 21.3242C11.125 21.8075 11.5168 22.1992 12 22.1992C12.4832 22.1992 12.875 21.8075 12.875 21.3242H11.125ZM11.125 3.32422V6.32422H12.875V3.32422H11.125ZM11.125 18.3242V21.3242H12.875V18.3242H11.125Z" fill="#4B4B4B"/>
</g>
</svg>
