<svg width="18" height="18" viewBox="0 0 18 18" fill="none" xmlns="http://www.w3.org/2000/svg">
<path d="M9 0.25C8.13471 0.25 7.28885 0.506589 6.56938 0.98732C5.84992 1.46805 5.28916 2.15133 4.95803 2.95076C4.6269 3.75019 4.54026 4.62985 4.70907 5.47852C4.87788 6.32719 5.29456 7.10674 5.90641 7.71859C6.51826 8.33045 7.29782 8.74712 8.14648 8.91593C8.99515 9.08474 9.87482 8.99811 10.6742 8.66697C11.4737 8.33584 12.157 7.77508 12.6377 7.05562C13.1184 6.33615 13.375 5.49029 13.375 4.625C13.375 3.46468 12.9141 2.35188 12.0936 1.53141C11.2731 0.710936 10.1603 0.25 9 0.25ZM9 7.75C8.38194 7.75 7.77775 7.56672 7.26385 7.22334C6.74994 6.87996 6.3494 6.3919 6.11288 5.82089C5.87635 5.24987 5.81447 4.62153 5.93505 4.01534C6.05563 3.40915 6.35325 2.85233 6.79029 2.41529C7.22733 1.97825 7.78415 1.68062 8.39035 1.56005C8.99654 1.43947 9.62487 1.50135 10.1959 1.73788C10.7669 1.9744 11.255 2.37494 11.5983 2.88884C11.9417 3.40275 12.125 4.00693 12.125 4.625C12.125 5.03538 12.0442 5.44174 11.8871 5.82089C11.7301 6.20003 11.4999 6.54453 11.2097 6.83471C10.9195 7.12489 10.575 7.35508 10.1959 7.51212C9.81675 7.66917 9.41038 7.75 9 7.75Z" fill="white"/>
<path d="M12.2312 10.25H5.76875C4.30559 10.2517 2.90284 10.8336 1.86823 11.8682C0.833624 12.9028 0.251654 14.3056 0.25 15.7688C0.25 16.2942 0.458738 16.7981 0.830295 17.1697C1.20185 17.5413 1.70579 17.75 2.23125 17.75H15.7688C16.2942 17.75 16.7981 17.5413 17.1697 17.1697C17.5413 16.7981 17.75 16.2942 17.75 15.7688C17.7483 14.3056 17.1664 12.9028 16.1318 11.8682C15.0972 10.8336 13.6944 10.2517 12.2312 10.25ZM15.7688 16.5H2.23125C2.03731 16.5 1.85131 16.423 1.71418 16.2858C1.57704 16.1487 1.5 15.9627 1.5 15.7688C1.5 14.6366 1.94974 13.5508 2.75029 12.7503C3.55083 11.9497 4.63661 11.5 5.76875 11.5H12.2312C13.3634 11.5 14.4492 11.9497 15.2497 12.7503C16.0503 13.5508 16.5 14.6366 16.5 15.7688C16.5 15.9627 16.423 16.1487 16.2858 16.2858C16.1487 16.423 15.9627 16.5 15.7688 16.5Z" fill="white"/>
</svg>
