<svg width="20" height="20" viewBox="0 0 20 20" fill="none" xmlns="http://www.w3.org/2000/svg">
<circle opacity="0.3" cx="10" cy="10" r="10" fill="#FC7D08"/>
<circle cx="10" cy="10" r="6.5" fill="#FC7D08"/>
<path d="M12.5391 10.2883C12.3906 11.525 11.5805 12.0192 11.2307 12.3779C10.8803 12.7377 10.9431 12.8093 10.9666 13.337C10.9705 13.4022 10.9611 13.4676 10.9388 13.5291C10.9164 13.5906 10.8818 13.6469 10.8369 13.6944C10.792 13.742 10.7379 13.7799 10.6778 13.8057C10.6177 13.8316 10.553 13.8449 10.4876 13.8447H9.09766C9.03226 13.8448 8.96754 13.8314 8.90748 13.8056C8.84742 13.7797 8.79327 13.7418 8.74837 13.6943C8.70347 13.6467 8.66875 13.5905 8.64636 13.5291C8.62396 13.4676 8.61436 13.4023 8.61813 13.337C8.61813 12.8193 8.66624 12.699 8.35458 12.3779C7.95715 11.9805 7.02215 11.4194 7.02215 9.87621C7.01976 9.49291 7.09681 9.11326 7.24843 8.7612C7.40005 8.40915 7.62296 8.09232 7.9031 7.83069C8.18325 7.56906 8.51455 7.36831 8.87614 7.24108C9.23772 7.11384 9.62174 7.0629 10.004 7.09145C10.3862 7.12 10.7584 7.22743 11.0971 7.40696C11.4358 7.5865 11.7336 7.83425 11.9718 8.13459C12.2099 8.43493 12.3833 8.78136 12.4809 9.15203C12.5786 9.5227 12.5984 9.90958 12.5391 10.2883Z" stroke="white" stroke-width="0.7" stroke-linecap="round" stroke-linejoin="round"/>
<path d="M8.98735 13.8161V14.6068C8.98735 14.8227 9.10762 15 9.25561 15H10.3292C10.4782 15 10.598 14.8222 10.598 14.6068V13.8161M9.38477 8.3044C9.076 8.30454 8.77992 8.42729 8.56164 8.64568C8.34335 8.86406 8.22073 9.16019 8.22073 9.46896M13.6268 9.98196H14.5858M12.6615 6.8381L13.3418 6.15777M13.1844 12.6468L13.8647 13.3266M9.79266 5V5.77551M6.25765 6.15725L6.93327 6.8381M5.73472 13.3266L6.41034 12.6468M5.95853 9.98196H5" stroke="white" stroke-width="0.7" stroke-linecap="round" stroke-linejoin="round"/>
</svg>
