<svg width="20" height="20" viewBox="0 0 20 20" fill="none" xmlns="http://www.w3.org/2000/svg">
<g clip-path="url(#clip0_2191_2151)">
<path d="M17.5 0H2.5C1.12168 0 0 1.12168 0 2.5V17.5C0 18.8783 1.12168 20 2.5 20H17.5C18.8783 20 20 18.8783 20 17.5V2.5C20 1.12168 18.8783 0 17.5 0ZM18.3333 17.5C18.3333 17.96 17.9591 18.3333 17.5 18.3333H2.5C2.04082 18.3333 1.66668 17.96 1.66668 17.5V2.5C1.66668 2.04082 2.04086 1.66668 2.5 1.66668H17.5C17.9592 1.66668 18.3333 2.04086 18.3333 2.5V17.5Z" fill="#EC1B2E"/>
<path d="M5.76663 4.68341C5.72495 4.57509 5.66663 4.49173 5.59163 4.40841C5.54995 4.37509 5.50831 4.34173 5.46663 4.30841C5.41663 4.27509 5.36663 4.25009 5.31663 4.23341C5.26663 4.20841 5.21663 4.19173 5.16663 4.18341C4.99995 4.15009 4.83331 4.16673 4.68331 4.23341C4.58331 4.27509 4.49163 4.33341 4.40831 4.40841C4.33331 4.49173 4.27499 4.57509 4.23331 4.68341C4.19163 4.78341 4.16663 4.89173 4.16663 5.00009C4.16663 5.10845 4.19163 5.21677 4.23331 5.31677C4.27499 5.42509 4.33331 5.50845 4.40831 5.59177C4.56663 5.74177 4.78331 5.83345 4.99999 5.83345C5.04999 5.83345 5.10831 5.82513 5.16667 5.81677C5.21667 5.80845 5.26667 5.79177 5.31667 5.76677C5.36667 5.75009 5.41667 5.72509 5.46667 5.69177C5.50835 5.65845 5.54999 5.62509 5.59167 5.59177C5.74167 5.43345 5.83335 5.21677 5.83335 5.00009C5.83327 4.89177 5.80827 4.78341 5.76663 4.68341Z" fill="#EC1B2E"/>
<path d="M15 4.16675H8.33332C7.87332 4.16675 7.5 4.54007 7.5 5.00007C7.5 5.46007 7.87332 5.83339 8.33332 5.83339H15C15.46 5.83339 15.8333 5.46007 15.8333 5.00007C15.8333 4.54007 15.46 4.16675 15 4.16675Z" fill="#EC1B2E"/>
<path d="M5.81663 9.83339C5.80831 9.78339 5.79163 9.73339 5.76663 9.68339C5.74995 9.63339 5.72495 9.58339 5.69163 9.53339C5.65831 9.49171 5.62495 9.45007 5.59163 9.40839C5.50831 9.33339 5.41663 9.27507 5.31663 9.23339C5.11663 9.15007 4.88331 9.15007 4.68331 9.23339C4.58331 9.27507 4.49163 9.33339 4.40831 9.40839C4.37499 9.45007 4.34163 9.49171 4.30831 9.53339C4.27499 9.58339 4.24999 9.63339 4.23331 9.68339C4.20831 9.73339 4.19163 9.78339 4.18331 9.83339C4.17499 9.89171 4.16663 9.95007 4.16663 10.0001C4.16663 10.2167 4.25831 10.4334 4.40831 10.5917C4.56663 10.7417 4.78331 10.8334 4.99999 10.8334C5.21667 10.8334 5.43331 10.7417 5.59167 10.5917C5.74167 10.4334 5.83335 10.2167 5.83335 10.0001C5.83327 9.95007 5.82495 9.89175 5.81663 9.83339Z" fill="#EC1B2E"/>
<path d="M15 9.16675H8.33332C7.87332 9.16675 7.5 9.54007 7.5 10.0001C7.5 10.4601 7.87332 10.8334 8.33332 10.8334H15C15.46 10.8334 15.8333 10.4601 15.8333 10.0001C15.8333 9.54007 15.46 9.16675 15 9.16675Z" fill="#EC1B2E"/>
<path d="M5.76663 14.6832C5.72495 14.5749 5.66663 14.4916 5.59163 14.4082C5.35831 14.1824 4.99163 14.1082 4.68331 14.2332C4.58331 14.2749 4.49163 14.3332 4.40831 14.4082C4.33331 14.4916 4.27499 14.5832 4.23331 14.6832C4.19163 14.7832 4.16663 14.8916 4.16663 14.9999C4.16663 15.2249 4.24995 15.4332 4.40831 15.5916C4.56663 15.7491 4.77499 15.8333 4.99999 15.8333C5.22499 15.8333 5.43331 15.7491 5.59167 15.5916C5.74999 15.4333 5.83335 15.2249 5.83335 14.9999C5.83327 14.8916 5.81663 14.7832 5.76663 14.6832Z" fill="#EC1B2E"/>
<path d="M15 14.1667H8.33332C7.87332 14.1667 7.5 14.5392 7.5 15.0001C7.5 15.4609 7.87332 15.8334 8.33332 15.8334H15C15.46 15.8334 15.8333 15.4609 15.8333 15.0001C15.8333 14.5392 15.46 14.1667 15 14.1667Z" fill="#EC1B2E"/>
</g>
<defs>
<clipPath id="clip0_2191_2151">
<rect width="20" height="20" fill="white"/>
</clipPath>
</defs>
</svg>
