<svg width="180" height="35" viewBox="0 0 180 35" fill="none" xmlns="http://www.w3.org/2000/svg">
<path d="M41.6379 7.75389H38.6493C37.4589 7.75389 36.4965 8.7164 36.4965 9.90686V32.1205C36.4965 33.3109 37.4589 34.2734 38.6493 34.2734H41.6379C42.8282 34.2734 43.7907 33.3109 43.7907 32.1205V9.93219C43.816 8.7164 42.8282 7.75389 41.6379 7.75389Z" fill="white"/>
<path d="M30.8738 7.75389C28.9742 7.75389 27.404 8.8937 26.6188 10.5148L18.6408 27.4346C18.4635 27.8398 18.0836 28.4984 17.7543 28.4984C17.4504 28.4984 17.0705 27.8398 16.8679 27.4346L8.88982 10.5148C8.10468 8.8937 6.5344 7.75389 4.63487 7.75389H0L12.6382 32.2471C13.8793 34.6534 16.4626 34.6027 17.7796 34.6027C19.6032 34.6027 21.7307 34.5014 22.8451 32.2471L35.4833 7.75389H30.8738Z" fill="white"/>
<path d="M170.528 3.70128C170.528 2.51081 169.565 1.54831 168.375 1.54831H165.386C164.196 1.54831 163.233 2.51081 163.233 3.70128V25.6363C163.233 28.9797 164.424 30.9554 166.551 32.3485C168.628 33.6909 170.984 34.2988 175.441 34.2988H177.847C179.038 34.2988 180 33.3363 180 32.1458V29.7902H178.176C176.859 29.7902 174.099 29.7396 172.478 28.6504C170.35 27.2573 170.528 24.7497 170.528 22.9514V3.70128Z" fill="white"/>
<path d="M123.673 29.7901C122.356 29.7901 119.595 29.7394 117.974 28.6503C115.847 27.2572 116.024 24.7496 116.024 22.9512V12.2623H123.115C124.306 12.2623 125.268 11.2998 125.268 10.1094V7.75377H115.998V3.70112C115.998 2.51065 115.036 1.54814 113.846 1.54814H110.857C109.667 1.54814 108.704 2.51065 108.704 3.70112V7.7791H93.432V3.70112C93.432 2.51065 92.4696 1.54814 91.2792 1.54814H88.2906C87.0749 1.52282 86.1125 2.51065 86.1125 3.70112V7.7791H81.5536V10.1347C81.5536 11.3252 82.516 12.2877 83.7064 12.2877H86.1125V25.6614C86.1125 29.0302 87.3028 30.9805 89.4303 32.3736C91.5072 33.7161 93.8626 34.324 98.3201 34.324H100.726C101.917 34.324 102.879 33.3615 102.879 32.171V29.8154H101.055C99.7385 29.8154 96.9778 29.7647 95.3569 28.6756C93.2294 27.2825 93.4067 24.7749 93.4067 22.9765V12.2623H108.679V25.6361C108.679 29.0049 109.869 30.9552 111.997 32.3483C114.074 33.6907 116.429 34.2986 120.887 34.2986H123.293C124.483 34.2986 125.446 33.3361 125.446 32.1457V29.7901H123.673Z" fill="white"/>
<path d="M78.8434 32.1458V29.7902H62.6341C59.9494 29.7902 56.8848 29.4862 55.9477 26.6494C55.6944 25.8388 55.5171 24.1418 55.5171 23.002H74.7911C76.1081 23.002 77.3491 22.7994 78.3622 21.9888C79.7299 20.8997 79.9325 19.3293 79.9325 17.9868C79.9325 14.6434 79.122 11.3253 75.247 9.37494C72.1824 7.82987 68.1807 7.67789 64.3057 7.67789C61.1651 7.67789 55.5425 7.67789 51.9207 10.1855C48.2989 12.6931 47.9697 16.3404 47.9697 21.3049C47.9697 24.8003 48.147 28.4731 50.3504 30.9806C53.1111 34.0708 57.1128 34.3241 60.4813 34.3241H76.716C77.881 34.2988 78.8434 33.3362 78.8434 32.1458ZM72.3344 16.923C72.3344 17.6322 72.1571 18.4681 70.7134 18.4681H60.304C57.67 18.4681 55.5171 19.6839 55.5171 21.1783V18.4681C55.5678 16.7204 55.5171 15.2766 57.0115 13.9088C59.0123 12.1105 62.0262 12.1611 63.9511 12.1611C66.0279 12.1611 68.3833 12.2625 70.2069 13.3516C71.2706 14.0102 72.3344 15.2766 72.3344 16.923Z" fill="white"/>
<path d="M158.016 32.1458V29.7902H141.807C139.122 29.7902 136.057 29.4862 135.12 26.6494C134.867 25.8388 134.69 24.1418 134.69 23.002H153.964C155.281 23.002 156.522 22.7994 157.535 21.9888C158.902 20.8997 159.105 19.3293 159.105 17.9868C159.105 14.6434 158.294 11.3253 154.419 9.37494C151.355 7.82987 147.353 7.67789 143.478 7.67789C140.338 7.67789 134.715 7.67789 131.093 10.1855C127.471 12.6931 127.142 16.3404 127.142 21.3049C127.142 24.8003 127.319 28.4731 129.523 30.9806C132.283 34.0708 136.285 34.3241 139.654 34.3241H155.888C157.053 34.2988 158.016 33.3362 158.016 32.1458ZM151.507 16.923C151.507 17.6322 151.33 18.4681 149.886 18.4681H139.476C136.817 18.4681 134.69 19.6839 134.69 21.1783V18.4681C134.74 16.7204 134.69 15.2766 136.184 13.9088C138.185 12.1105 141.199 12.1611 143.124 12.1611C145.2 12.1611 147.556 12.2625 149.379 13.3516C150.443 14.0102 151.507 15.2766 151.507 16.923Z" fill="white"/>
<path d="M41.6379 0.332275H38.6493C37.4589 0.332275 36.4965 1.29478 36.4965 2.48525V3.09314V7.75369H36.5218C36.7244 6.5379 38.1174 5.24612 40.1436 5.24612H41.6379C42.8282 5.24612 43.7907 4.28361 43.7907 3.09314V2.48525C43.816 1.29478 42.8282 0.332275 41.6379 0.332275Z" fill="white"/>
</svg>
