<svg width="20" height="20" viewBox="0 0 20 20" fill="none" xmlns="http://www.w3.org/2000/svg">
<path d="M13.7668 3.34529C13.997 3.57549 14.1121 3.86846 14.1121 4.22422C14.1121 4.57997 13.997 4.87295 13.7668 5.10314L8.86991 10L13.7668 14.8969C13.997 15.1271 14.1121 15.42 14.1121 15.7758C14.1121 16.1315 13.997 16.4245 13.7668 16.6547C13.5366 16.8849 13.2436 17 12.8878 17C12.5321 17 12.2391 16.8849 12.0089 16.6547L6.23314 10.8789C6.10758 10.7534 6.01843 10.6173 5.96569 10.4709C5.9138 10.3244 5.88785 10.1674 5.88785 10C5.88785 9.83259 5.9138 9.67564 5.96569 9.52915C6.01843 9.38266 6.10758 9.24664 6.23314 9.12108L12.0089 3.34529C12.2391 3.1151 12.5321 3 12.8878 3C13.2436 3 13.5366 3.1151 13.7668 3.34529Z" fill="#2C2C2C"/>
</svg>
