<svg width="20" height="20" viewBox="0 0 20 20" fill="none" xmlns="http://www.w3.org/2000/svg">
<g clip-path="url(#clip0_2124_5112)">
<path d="M3.3313 16C2.80087 16 2.29216 15.7893 1.91709 15.4142C1.54201 15.0391 1.3313 14.5304 1.3313 14V9.99999C1.3313 9.82262 1.40176 9.65252 1.52717 9.52711C1.65259 9.4017 1.82269 9.33124 2.00005 9.33124H3.3313C3.86173 9.33124 4.37044 9.54195 4.74551 9.91702C5.12059 10.2921 5.3313 10.8008 5.3313 11.3312V14C5.3313 14.5304 5.12059 15.0391 4.74551 15.4142C4.37044 15.7893 3.86173 16 3.3313 16ZM2.66255 10.6625V14C2.6786 14.1654 2.75565 14.3189 2.87871 14.4306C3.00176 14.5423 3.16199 14.6042 3.32817 14.6042C3.49436 14.6042 3.65459 14.5423 3.77764 14.4306C3.90069 14.3189 3.97775 14.1654 3.9938 14V11.3312C3.9938 11.1539 3.92334 10.9838 3.79793 10.8584C3.67251 10.7329 3.50241 10.6625 3.32505 10.6625H2.66255Z" fill="white"/>
<path d="M2.10631 7.99372H2.00006C1.82523 7.96462 1.6691 7.86731 1.56597 7.72317C1.46284 7.57902 1.42115 7.39983 1.45006 7.22497C1.71515 5.65638 2.40676 4.19099 3.44915 2.98926C4.49155 1.78753 5.84453 0.895818 7.35992 0.411769C8.87532 -0.0722808 10.4947 -0.129998 12.0407 0.244938C13.5867 0.619874 14.9998 1.413 16.1251 2.53747C17.3997 3.80671 18.2435 5.44415 18.5376 7.21872C18.5622 7.30895 18.5677 7.40336 18.5536 7.49583C18.5395 7.5883 18.5061 7.67678 18.4557 7.75556C18.4052 7.83434 18.3388 7.90167 18.2608 7.95318C18.1827 8.0047 18.0947 8.03927 18.0024 8.05464C17.9101 8.07002 17.8157 8.06587 17.7251 8.04246C17.6345 8.01905 17.5499 7.9769 17.4766 7.91874C17.4034 7.86058 17.3431 7.78769 17.2998 7.70479C17.2565 7.62189 17.231 7.53082 17.2251 7.43747C16.9356 5.72991 16.0509 4.17997 14.7279 3.06234C13.4049 1.9447 11.7289 1.33155 9.99693 1.33155C8.26501 1.33155 6.58901 1.9447 5.26597 3.06234C3.94293 4.17997 3.05828 5.72991 2.76881 7.43747C2.74216 7.59364 2.66094 7.73527 2.53961 7.83714C2.41828 7.93901 2.26473 7.9945 2.10631 7.99372Z" fill="white"/>
<path d="M7.25 4.00003C7.10448 3.99486 6.96462 3.94233 6.85166 3.85043C6.73871 3.75853 6.65884 3.63227 6.62419 3.49083C6.58954 3.3494 6.602 3.20052 6.65968 3.06681C6.71735 2.93311 6.8171 2.82188 6.94375 2.75003C7.89039 2.2716 8.93621 2.02234 9.99688 2.02234C11.0575 2.02234 12.1034 2.2716 13.05 2.75003C13.1313 2.78891 13.2039 2.84381 13.2634 2.91144C13.3229 2.97907 13.3682 3.05803 13.3964 3.14359C13.4247 3.22914 13.4354 3.31953 13.4278 3.40931C13.4203 3.49909 13.3947 3.58642 13.3525 3.66606C13.3104 3.7457 13.2526 3.81601 13.1826 3.87275C13.1126 3.9295 13.0319 3.97152 12.9453 3.99629C12.8586 4.02106 12.7679 4.02807 12.6785 4.0169C12.5891 4.00572 12.5029 3.9766 12.425 3.93128C11.6697 3.54408 10.8331 3.34214 9.98438 3.34214C9.13562 3.34214 8.29905 3.54408 7.54375 3.93128C7.45243 3.97648 7.3519 4 7.25 4.00003Z" fill="white"/>
<path d="M18.0062 9.33124H16.6687C16.1383 9.33124 15.6296 9.54195 15.2545 9.91703C14.8794 10.2921 14.6687 10.8008 14.6687 11.3312V14C14.6687 14.5304 14.8794 15.0391 15.2545 15.4142C15.6296 15.7893 16.1383 16 16.6687 16C16.864 15.9974 17.0577 15.9658 17.2437 15.9063C17.1225 16.3183 16.8715 16.6802 16.528 16.9381C16.1846 17.196 15.767 17.3361 15.3375 17.3375H11.875C11.7179 16.8925 11.4086 16.5174 11.0017 16.2785C10.5947 16.0395 10.1164 15.9522 9.65132 16.0318C9.18621 16.1115 8.76425 16.3531 8.46004 16.7138C8.15584 17.0746 7.98898 17.5312 7.98898 18.0031C7.98898 18.475 8.15584 18.9317 8.46004 19.2925C8.76425 19.6532 9.18621 19.8948 9.65132 19.9744C10.1164 20.0541 10.5947 19.9667 11.0017 19.7278C11.4086 19.4889 11.7179 19.1138 11.875 18.6688H15.3375C16.2205 18.6671 17.0668 18.3156 17.6912 17.6912C18.3156 17.0669 18.6671 16.2205 18.6687 15.3375V9.99999C18.6687 9.8237 18.5991 9.65454 18.4751 9.52931C18.351 9.40407 18.1825 9.33289 18.0062 9.33124ZM9.99997 18.6688C9.8677 18.6688 9.73841 18.6295 9.62843 18.5561C9.51846 18.4826 9.43274 18.3781 9.38212 18.2559C9.33151 18.1337 9.31827 17.9993 9.34407 17.8695C9.36987 17.7398 9.43357 17.6207 9.52709 17.5271C9.62062 17.4336 9.73978 17.3699 9.8695 17.3441C9.99923 17.3183 10.1337 17.3315 10.2559 17.3822C10.3781 17.4328 10.4825 17.5185 10.556 17.6285C10.6295 17.7384 10.6687 17.8677 10.6687 18C10.6687 18.1774 10.5983 18.3475 10.4728 18.4729C10.3474 18.5983 10.1773 18.6688 9.99997 18.6688ZM17.3375 14C17.3214 14.1654 17.2444 14.3189 17.1213 14.4306C16.9983 14.5423 16.838 14.6042 16.6718 14.6042C16.5057 14.6042 16.3454 14.5423 16.2224 14.4306C16.0993 14.3189 16.0223 14.1654 16.0062 14V11.3312C16.0062 11.1539 16.0767 10.9838 16.2021 10.8584C16.3275 10.7329 16.4976 10.6625 16.675 10.6625H17.3437L17.3375 14Z" fill="white"/>
</g>
<defs>
<clipPath id="clip0_2124_5112">
<rect width="20" height="20" fill="white"/>
</clipPath>
</defs>
</svg>
