<svg width="20" height="20" viewBox="0 0 20 20" fill="none" xmlns="http://www.w3.org/2000/svg">
<path d="M14.0734 4.49577V0.312449C14.0734 0.139988 14.2133 0.000183105 14.3857 0.000183105H18.9101C19.0826 0.000183105 19.2224 0.139988 19.2224 0.312449C19.2224 0.48491 19.0826 0.624714 18.9101 0.624714H14.698V4.18346H18.5979V2.7471L17.7436 3.52229C17.684 3.57643 17.6088 3.60331 17.5338 3.60331C17.4537 3.60331 17.3737 3.5726 17.3129 3.51167L16.427 2.62471C16.3052 2.50272 16.3053 2.30499 16.4273 2.18311C16.5494 2.06128 16.7471 2.06143 16.8689 2.18343L17.5444 2.85975L19.4776 1.10542C19.6053 0.989597 19.8027 0.99905 19.9187 1.12682C20.0346 1.25456 20.025 1.45202 19.8973 1.56792L19.2224 2.18034V4.49573C19.2224 4.66819 19.0826 4.808 18.9102 4.808H14.3857C14.2133 4.80803 14.0734 4.66823 14.0734 4.49577ZM19.4775 8.70139L17.5443 10.4557L16.8689 9.7794C16.747 9.65749 16.5493 9.65725 16.4272 9.77913C16.3052 9.901 16.3051 10.0987 16.427 10.2208L17.3128 11.1077C17.3737 11.1686 17.4536 11.1993 17.5338 11.1993C17.6088 11.1993 17.684 11.1724 17.7436 11.1183L18.5978 10.3431V11.7795H14.698V8.22178H18.9101C19.0826 8.22178 19.2224 8.08198 19.2224 7.90952C19.2224 7.73706 19.0826 7.59725 18.9101 7.59725H14.3857C14.2133 7.59725 14.0735 7.73706 14.0735 7.90952V12.0917C14.0735 12.2642 14.2133 12.404 14.3857 12.404H18.9101C19.0826 12.404 19.2224 12.2642 19.2224 12.0917V9.78303C19.2224 9.78085 19.2221 9.77874 19.2221 9.77659L19.8973 9.16385C20.025 9.04796 20.0346 8.85049 19.9187 8.72276C19.8026 8.59503 19.6052 8.58557 19.4775 8.70139ZM19.4775 16.2974L17.5443 18.0517L16.8689 17.3754C16.747 17.2534 16.5493 17.2532 16.4272 17.3751C16.3052 17.497 16.3051 17.6947 16.427 17.8167L17.3128 18.7037C17.3737 18.7646 17.4536 18.7953 17.5338 18.7953C17.6088 18.7953 17.684 18.7684 17.7436 18.7142L18.5978 17.939V19.3754H14.698V15.8178H18.9101C19.0826 15.8178 19.2224 15.678 19.2224 15.5055C19.2224 15.333 19.0826 15.1932 18.9101 15.1932H14.3857C14.2133 15.1932 14.0735 15.333 14.0735 15.5055V19.6877C14.0735 19.8601 14.2133 19.9999 14.3857 19.9999H18.9101C19.0826 19.9999 19.2224 19.8601 19.2224 19.6877V17.3723L19.8972 16.7599C20.025 16.644 20.0345 16.4465 19.9186 16.3188C19.8026 16.191 19.6052 16.1815 19.4775 16.2974ZM13.1799 2.71635C13.3524 2.71635 13.4922 2.57655 13.4922 2.40409C13.4922 2.23163 13.3524 2.09182 13.1799 2.09182H11.5743C11.4019 2.09182 11.2621 2.23163 11.2621 2.40409V9.6878H10.5025C10.33 9.6878 10.1902 9.8276 10.1902 10.0001C10.1902 10.1725 10.33 10.3123 10.5025 10.3123H11.2621V17.596C11.2621 17.7685 11.4019 17.9083 11.5743 17.9083H13.1799C13.3524 17.9083 13.4922 17.7685 13.4922 17.596C13.4922 17.4236 13.3524 17.2838 13.1799 17.2838H11.8866V10.3123H13.1799C13.3524 10.3123 13.4922 10.1725 13.4922 10.0001C13.4922 9.8276 13.3524 9.6878 13.1799 9.6878H11.8866V2.71635H13.1799ZM9.37532 9.56268V10.4375C9.37532 10.5665 9.29591 10.6823 9.17548 10.7288L8.59888 10.9513C8.5013 11.3541 8.34224 11.737 8.12427 12.0934L8.37603 12.6576C8.42884 12.7759 8.40306 12.9146 8.3113 13.006L7.6927 13.6235C7.60134 13.7149 7.46313 13.7405 7.34516 13.6881L6.7811 13.4375C6.4247 13.6553 6.04142 13.8144 5.63782 13.912L5.63513 13.9191L5.41575 14.4874C5.36931 14.6078 5.25352 14.6872 5.12446 14.6872H4.25083C4.12177 14.6872 4.00599 14.6078 3.9595 14.4874L3.73704 13.9108C3.33227 13.813 2.94931 13.6543 2.59474 13.4373L2.03021 13.6881C1.9122 13.7405 1.77399 13.7149 1.68267 13.6235L1.06481 13.0057C0.973447 12.9143 0.947822 12.7762 1.00024 12.6582L1.25103 12.0937C1.03329 11.7382 0.874228 11.3553 0.776494 10.9513L0.768838 10.9484L0.200869 10.7288C0.0805566 10.6823 0.0012207 10.5665 0.0012207 10.4375V9.56272C0.0012207 9.4335 0.080791 9.31772 0.201377 9.27128L0.776533 9.05003C0.874189 8.64655 1.03321 8.26339 1.25091 7.90721L1.00032 7.34319C0.947978 7.2253 0.973447 7.08737 1.06454 6.996L1.68278 6.37667C1.77415 6.2853 1.91231 6.25971 2.03032 6.3121L2.59485 6.56288C2.94942 6.34589 3.33239 6.18717 3.73716 6.08936L3.95962 5.51284C4.0061 5.39241 4.12188 5.31299 4.25095 5.31299H5.12458C5.25364 5.31299 5.36942 5.39241 5.41587 5.5128L5.63841 6.08936C6.04278 6.18706 6.42587 6.34573 6.78118 6.56268L7.34528 6.3121C7.46329 6.25975 7.60149 6.2853 7.69282 6.37667L8.31181 6.99565C8.40329 7.08714 8.42888 7.22557 8.37614 7.3437L8.12513 7.90628C8.34239 8.2619 8.50126 8.6453 8.59903 9.05003L8.60665 9.05292L9.17509 9.2712C9.29567 9.31749 9.37532 9.43338 9.37532 9.56268ZM8.75079 9.77725L8.21849 9.57311C8.11802 9.53467 8.04434 9.44717 8.02364 9.34159C7.93657 8.89839 7.7647 8.48331 7.5127 8.10788C7.45321 8.01921 7.44313 7.90628 7.48599 7.80846L7.55684 7.64678L7.71817 7.28526L7.4027 6.96975L6.8813 7.20151C6.78313 7.24522 6.6695 7.2353 6.58032 7.17553C6.20489 6.9235 5.78981 6.75159 5.34661 6.6646C5.24102 6.64389 5.15356 6.57022 5.11509 6.46975L4.9102 5.93745H4.46497L4.26005 6.46979C4.22161 6.57026 4.13415 6.64389 4.02856 6.6646C3.58497 6.75171 3.17036 6.92354 2.79634 7.1753C2.70735 7.2351 2.59384 7.24522 2.49575 7.20186L1.97255 6.96983L1.6577 7.28518L1.88962 7.8069C1.93329 7.90503 1.92349 8.0187 1.86364 8.10788C1.61063 8.48475 1.43837 8.89987 1.35161 9.34163C1.33087 9.44717 1.25724 9.53464 1.15677 9.57311L0.625596 9.7771V10.2234L1.15677 10.4281C1.25724 10.4665 1.33087 10.554 1.35161 10.6596C1.43849 11.1018 1.61067 11.5164 1.86345 11.8919C1.92333 11.9809 1.93337 12.0944 1.89001 12.1925L1.65798 12.7157L1.97263 13.0303L2.49583 12.7983C2.59403 12.7549 2.70743 12.765 2.79642 12.8249C3.17044 13.0766 3.58501 13.2485 4.02864 13.3356C4.13423 13.3563 4.22165 13.4299 4.26013 13.5304L4.46505 14.0627H4.91028L5.11544 13.5309C5.15399 13.4307 5.24134 13.3574 5.34669 13.3367C5.78833 13.2499 6.20345 13.0777 6.5804 12.8246C6.66958 12.7649 6.78325 12.755 6.88138 12.7987L7.40278 13.0304L7.71809 12.7157L7.48532 12.1926C7.442 12.0946 7.45192 11.9812 7.51165 11.8923C7.76485 11.515 7.9372 11.1003 8.02368 10.6597C8.04438 10.5541 8.11806 10.4666 8.21852 10.4282L8.75083 10.2233V9.77725H8.75079ZM7.05556 10.0001C7.05556 11.3061 5.99353 12.3686 4.68817 12.3686C3.3822 12.3686 2.3197 11.3061 2.3197 10.0001C2.3197 8.69405 3.3822 7.63155 4.68817 7.63155C5.99356 7.63155 7.05556 8.69405 7.05556 10.0001ZM6.43102 10.0001C6.43102 9.03842 5.64919 8.25608 4.68817 8.25608C3.72657 8.25608 2.94423 9.03839 2.94423 10.0001C2.94423 10.9617 3.72653 11.744 4.68817 11.744C5.64919 11.744 6.43102 10.9617 6.43102 10.0001Z" fill="white" stroke="white" stroke-width="0.3"/>
</svg>
