<svg width="22" height="20" viewBox="0 0 22 20" fill="none" xmlns="http://www.w3.org/2000/svg">
<path fill-rule="evenodd" clip-rule="evenodd" d="M10.985 0.5C8.30606 0.5 5.73684 1.52723 3.84254 3.35571C1.94824 5.18419 0.884033 7.66414 0.884033 10.25C0.884033 12.8359 1.94824 15.3158 3.84254 17.1443C5.73684 18.9728 8.30606 20 10.985 20C13.6639 20 16.2332 18.9728 18.1275 17.1443C20.0218 15.3158 21.086 12.8359 21.086 10.25C21.086 7.66414 20.0218 5.18419 18.1275 3.35571C16.2332 1.52723 13.6639 0.5 10.985 0.5ZM10.985 18.5C8.7182 18.5 6.54425 17.6308 4.94138 16.0836C3.33851 14.5365 2.43803 12.438 2.43803 10.25C2.43803 8.06196 3.33851 5.96354 4.94138 4.41637C6.54425 2.86919 8.7182 2 10.985 2C13.2518 2 15.4258 2.86919 17.0286 4.41637C18.6315 5.96354 19.532 8.06196 19.532 10.25C19.532 12.438 18.6315 14.5365 17.0286 16.0836C15.4258 17.6308 13.2518 18.5 10.985 18.5ZM13.3937 5.87C13.1252 5.60015 12.8027 5.38581 12.4458 5.24C11.9967 5.06643 11.5151 4.98471 11.0316 5C10.5623 4.99177 10.0965 5.07864 9.6641 5.255C9.2927 5.405 8.96481 5.636 8.70063 5.93C8.44328 6.20018 8.24273 6.51603 8.11011 6.86C7.98681 7.20941 7.90853 7.57213 7.87701 7.94H9.78842C9.79723 7.70193 9.87578 7.47115 10.0149 7.27442C10.1541 7.07769 10.3482 6.92307 10.5747 6.8285C10.7249 6.7714 10.886 6.74633 11.0472 6.755C11.1861 6.73368 11.3277 6.73368 11.4667 6.755C11.5944 6.80161 11.7108 6.87309 11.8086 6.965C11.9166 7.05517 12.0016 7.16808 12.0573 7.295C12.1209 7.43696 12.1527 7.59033 12.1505 7.745C12.1505 8.0045 12.093 8.2595 11.9796 8.495C11.8667 8.73933 11.726 8.97076 11.56 9.185L11.0161 9.815C10.8296 10.01 10.6431 10.22 10.4722 10.43C10.3064 10.639 10.1657 10.8655 10.0526 11.105C9.94479 11.3411 9.89176 11.5971 9.8972 11.855V12.845H11.762V12.11C11.7673 11.89 11.8258 11.6742 11.9329 11.48C12.0606 11.2641 12.2062 11.0584 12.3681 10.865L12.9275 10.205C13.1312 9.9779 13.3181 9.73731 13.4869 9.485C13.6655 9.22772 13.8116 8.95076 13.922 8.66C14.0354 8.35176 14.0932 8.02707 14.093 7.7C14.0958 7.35923 14.0433 7.02014 13.9376 6.695C13.8202 6.38527 13.6347 6.10379 13.3937 5.87ZM9.8972 13.745H11.7154V15.5H9.8972V13.745Z" fill="white"/>
</svg>
