<svg width="21" height="20" viewBox="0 0 21 20" fill="none" xmlns="http://www.w3.org/2000/svg">
<path d="M12.4263 14.7087C13.011 14.7087 13.5957 14.4862 14.0409 14.041C14.9311 13.1508 14.9311 11.7024 14.0409 10.8122C13.1506 9.92191 11.702 9.92191 10.8118 10.8122C9.92151 11.7024 9.92151 13.1508 10.8118 14.041C11.2569 14.4861 11.8416 14.7087 12.4263 14.7087ZM11.2259 11.2263C11.5569 10.8953 11.9915 10.7298 12.4263 10.7298C12.861 10.7298 13.2958 10.8954 13.6267 11.2263C14.2886 11.8881 14.2886 12.9651 13.6267 13.6269C12.9648 14.2888 11.8878 14.2888 11.2259 13.6269C10.564 12.9651 10.564 11.8881 11.2259 11.2263Z" fill="white" stroke="white" stroke-width="0.3"/>
<path d="M9.76832 9.76876C8.67882 10.8583 8.3638 12.4786 8.96585 13.8967C9.02902 14.0456 9.20106 14.115 9.34983 14.0519C9.49871 13.9886 9.56817 13.8168 9.50496 13.6679C8.99669 12.4706 9.26268 11.1027 10.1825 10.1829C11.4198 8.94571 13.433 8.94575 14.6702 10.1829C15.9074 11.4201 15.9074 13.4331 14.6702 14.6703C14.0758 15.2646 13.2856 15.5947 12.4451 15.5996C12.4387 15.5997 12.4324 15.5997 12.426 15.5997C11.5934 15.5997 10.8075 15.2801 10.2113 14.6987C10.0955 14.5857 9.9101 14.5881 9.79722 14.7038C9.6843 14.8196 9.6866 15.005 9.80241 15.1179C10.5087 15.8068 11.4396 16.1853 12.4259 16.1853C12.4335 16.1853 12.441 16.1853 12.4486 16.1852C13.4442 16.1794 14.3803 15.7884 15.0844 15.0844C16.5499 13.6189 16.5499 11.2343 15.0844 9.76872C13.6186 8.30324 11.234 8.30324 9.76832 9.76876Z" fill="white" stroke="white" stroke-width="0.3"/>
<path d="M19.4392 11.1118H18.3972C18.2424 10.4058 17.9671 9.74053 17.5786 9.13387L18.3148 8.39769C18.4208 8.29177 18.4791 8.15094 18.4791 8.00112C18.4791 7.85131 18.4208 7.71048 18.3149 7.60459L17.2485 6.53834C17.1426 6.43242 17.0018 6.37405 16.852 6.37405C16.7021 6.37405 16.5613 6.43238 16.4554 6.5383L15.7192 7.27452C15.1125 6.88603 14.4473 6.61077 13.7411 6.456V5.41403C13.7411 5.10484 13.4895 4.85324 13.1803 4.85324H11.6723C11.4981 4.85324 11.3422 4.93313 11.2392 5.05815H11.0479C10.9231 4.51219 10.7097 3.99658 10.4129 3.52364L10.9761 2.96043C11.1747 2.76181 11.1747 2.43869 10.9761 2.24003L10.1143 1.37825C10.018 1.28205 9.89012 1.22907 9.75405 1.22907C9.61797 1.22907 9.49002 1.28205 9.39385 1.37829L8.83057 1.94146C8.35772 1.64465 7.84204 1.43127 7.29598 1.30649V0.509407C7.29602 0.228524 7.06753 0 6.78659 0H5.56781C5.28691 0 5.05837 0.228524 5.05837 0.509407V1.30653C4.51235 1.43131 3.99663 1.64473 3.52379 1.9415L2.96063 1.37833C2.86442 1.28209 2.7365 1.2291 2.60039 1.2291C2.46427 1.2291 2.33632 1.28209 2.24011 1.37833L1.37836 2.24007C1.17978 2.43869 1.17978 2.76181 1.37836 2.96047L1.9416 3.52368C1.64477 3.9965 1.43139 4.51219 1.3066 5.05819H0.509434C0.228536 5.05819 0 5.28671 0 5.56759V6.78631C0 7.06719 0.228536 7.29572 0.509434 7.29572H1.3066C1.43139 7.84175 1.64477 8.35744 1.9416 8.83022L1.37836 9.39343C1.17974 9.59205 1.17974 9.91522 1.37836 10.1138L2.24015 10.9756C2.43878 11.1742 2.76192 11.1743 2.96063 10.9756L3.52386 10.4124C3.99667 10.7092 4.51232 10.9226 5.05841 11.0474V11.239C4.93288 11.3419 4.8526 11.4981 4.8526 11.6727V13.1807C4.8526 13.4899 5.10418 13.7414 5.41342 13.7414H6.45544C6.61022 14.4476 6.88553 15.1128 7.27396 15.7194L6.53779 16.4556C6.43182 16.5615 6.37348 16.7023 6.37348 16.8522C6.37348 17.002 6.43182 17.1428 6.53775 17.2487L7.6041 18.3149C7.71003 18.4209 7.85083 18.4792 8.00065 18.4792C8.15047 18.4792 8.29127 18.4209 8.39724 18.315L9.13341 17.5788C9.74011 17.9673 10.4054 18.2426 11.1115 18.3972V19.4392C11.1115 19.7484 11.3631 20 11.6723 20H13.1803C13.4895 20 13.7411 19.7484 13.7411 19.4392V18.3971C14.4473 18.2424 15.1125 17.9671 15.7192 17.5786L16.4554 18.3149C16.5613 18.4207 16.7021 18.4791 16.852 18.4791C17.0018 18.4791 17.1426 18.4208 17.2485 18.3149L18.3148 17.2486C18.4208 17.1427 18.4791 17.0019 18.4791 16.852C18.4791 16.7022 18.4208 16.5614 18.3149 16.4555L17.5786 15.7193C17.9671 15.1128 18.2424 14.4474 18.3972 13.7413H19.4392C19.7484 13.7413 20 13.4898 20 13.1805V11.6726C20 11.3634 19.7484 11.1118 19.4392 11.1118ZM5.24111 10.488C4.72238 10.3759 4.23419 10.1739 3.79 9.88753C3.58919 9.75818 3.32141 9.78645 3.15308 9.95481L2.60039 10.5075L1.84641 9.75357L2.39914 9.20083C2.56747 9.03247 2.59574 8.76467 2.46638 8.56394C2.17998 8.11982 1.97795 7.63161 1.86589 7.11287C1.81541 6.87943 1.606 6.70998 1.36794 6.70998H0.58569V5.64381H1.36798C1.606 5.64381 1.81544 5.47435 1.86597 5.24079C1.97799 4.72213 2.18002 4.23397 2.46642 3.7898C2.59578 3.58916 2.56751 3.32131 2.39918 3.15296L1.84645 2.60025L2.60043 1.84631L3.15312 2.39902C3.32145 2.56738 3.58919 2.59564 3.79008 2.46625C4.23427 2.17986 4.72246 1.97785 5.24111 1.86583C5.4746 1.81539 5.6441 1.60596 5.6441 1.36787V0.58566H6.71037V1.36791C6.71037 1.606 6.87987 1.81543 7.11337 1.86587C7.63201 1.97789 8.12021 2.1799 8.56443 2.46625C8.76513 2.5956 9.03299 2.56741 9.20139 2.39902L9.75409 1.84631L10.5081 2.60025L9.95537 3.15292C9.78697 3.32128 9.7587 3.58912 9.88809 3.7898C10.1745 4.23405 10.3766 4.72225 10.4885 5.24079C10.539 5.47432 10.7484 5.64381 10.9865 5.64381H11.1115V6.456C10.4054 6.61073 9.74015 6.88603 9.13349 7.27452L8.39724 6.5383C8.38849 6.52956 8.3792 6.52167 8.36998 6.51359C8.47271 5.83903 8.26519 5.12593 7.74677 4.60754C7.13347 3.99424 6.21199 3.79418 5.39925 4.09778C5.24775 4.1544 5.17079 4.3231 5.22744 4.4746C5.28402 4.62609 5.45274 4.703 5.60424 4.64643C6.20258 4.42282 6.88108 4.5701 7.33265 5.02164C7.71159 5.40056 7.86426 5.92071 7.79238 6.41418C7.72276 6.44202 7.65876 6.48372 7.60414 6.5383L6.53783 7.60456C6.48309 7.65926 6.44135 7.7234 6.41351 7.79314C6.33592 7.80442 6.25713 7.81075 6.17728 7.81075C5.74082 7.81075 5.33052 7.64079 5.02194 7.33222C4.50622 6.81653 4.39506 6.01285 4.75159 5.3778C4.83074 5.23677 4.7806 5.05826 4.63957 4.97912C4.49861 4.89998 4.32005 4.95011 4.24087 5.09114C3.75642 5.95409 3.9073 7.04595 4.60774 7.74636C5.04045 8.17905 5.60888 8.39539 6.17724 8.39539C6.2893 8.39539 6.40125 8.38653 6.51225 8.36962C6.52057 8.37911 6.52873 8.38871 6.53775 8.39769L7.27396 9.13391C6.88553 9.74049 6.61018 10.4058 6.45544 11.1119H5.6441V10.986C5.6441 10.7479 5.47464 10.5384 5.24111 10.488ZM19.4143 13.1557H18.3769C18.1148 13.1557 17.8843 13.3423 17.8287 13.5995C17.6883 14.2494 17.4351 14.8612 17.0763 15.4178C16.9338 15.6387 16.9648 15.9337 17.1501 16.119L17.8832 16.852L16.852 17.8831L16.119 17.1501C15.9337 16.9648 15.6388 16.9337 15.4178 17.0762C14.8611 17.435 14.2493 17.6882 13.5993 17.8286C13.3421 17.8841 13.1555 18.1147 13.1555 18.3768V19.4141H11.6972V18.3768C11.6972 18.1147 11.5106 17.8842 11.2534 17.8286C10.6035 17.6882 9.99168 17.435 9.43497 17.0762C9.21404 16.9337 8.91909 16.9648 8.7337 17.1501L8.00073 17.8831L6.96956 16.852L7.70253 16.119C7.88792 15.9336 7.919 15.6387 7.77648 15.4177C7.41761 14.8611 7.16444 14.2494 7.02403 13.5994C6.96843 13.3423 6.7379 13.1556 6.47578 13.1556H5.43837V11.6974H6.47578C6.7379 11.6974 6.96843 11.5107 7.02403 11.2536C7.16444 10.6036 7.41757 9.99186 7.77645 9.43529C7.919 9.21426 7.88792 8.91936 7.70257 8.73406L6.96956 8.00105L8.00073 6.96993L8.7337 7.70295C8.91901 7.88825 9.21393 7.91933 9.43497 7.7769C9.99168 7.418 10.6035 7.16484 11.2534 7.02448C11.5106 6.96892 11.6972 6.73836 11.6972 6.47626V5.43886H13.1555V6.47622C13.1555 6.73833 13.3421 6.96888 13.5993 7.02444C14.2493 7.1648 14.861 7.41796 15.4178 7.77686C15.6387 7.91929 15.9336 7.88829 16.119 7.70291L16.852 6.9699L17.8832 8.00101L17.1501 8.73414C16.9648 8.91948 16.9337 9.21438 17.0762 9.43533C17.4351 9.99194 17.6882 10.6037 17.8287 11.2537C17.8843 11.5108 18.1148 11.6975 18.3769 11.6975H19.4143V13.1557H19.4143Z" fill="white" stroke="white" stroke-width="0.3"/>
</svg>
