<svg width="20" height="20" viewBox="0 0 20 20" fill="none" xmlns="http://www.w3.org/2000/svg">
<path d="M17.4219 11.5625C16.9127 11.5625 16.4785 11.8891 16.3172 12.3438H15.4688V10.3906H16.25C17.7578 10.3906 18.9844 9.16398 18.9844 7.65625C18.9844 6.35113 18.0691 5.25691 16.8404 4.98648C16.7267 3.52465 15.5009 2.3698 14.0104 2.3698C13.5827 2.3698 13.1655 2.46504 12.7849 2.64766C12.0559 1.63242 10.8715 1.01562 9.60938 1.01562C8.33957 1.01562 7.14336 1.64324 6.41594 2.67246C6.1843 2.60977 5.94566 2.57812 5.70312 2.57812C4.29035 2.57812 3.12437 3.65512 2.98312 5.03117C1.82598 5.36586 1.01562 6.42355 1.01562 7.65625C1.01562 9.16398 2.24227 10.3906 3.75 10.3906H4.92188V12.3438H4.07344C3.91219 11.8891 3.47797 11.5625 2.96875 11.5625C2.32258 11.5625 1.79688 12.0882 1.79688 12.7344C1.79688 13.3805 2.32258 13.9062 2.96875 13.9062C3.47797 13.9062 3.91219 13.5796 4.07344 13.125H5.3125C5.52824 13.125 5.70312 12.9501 5.70312 12.7344V10.3906H7.26562V15.4688H6.02656C5.86531 15.0141 5.43109 14.6875 4.92188 14.6875C4.2757 14.6875 3.75 15.2132 3.75 15.8594C3.75 16.5055 4.2757 17.0312 4.92188 17.0312C5.43109 17.0312 5.86531 16.7046 6.02656 16.25H7.65625C7.87199 16.25 8.04688 16.0751 8.04688 15.8594V10.3906H9.60938V16.7078C9.15473 16.8691 8.82812 17.3033 8.82812 17.8125C8.82812 18.4587 9.35383 18.9844 10 18.9844C10.6462 18.9844 11.1719 18.4587 11.1719 17.8125C11.1719 17.3033 10.8453 16.8691 10.3906 16.7078V10.3906H11.9531V15.8594C11.9531 16.0751 12.128 16.25 12.3438 16.25H14.3641C14.5254 16.7046 14.9595 17.0312 15.4688 17.0312C16.1149 17.0312 16.6406 16.5055 16.6406 15.8594C16.6406 15.2132 16.1149 14.6875 15.4688 14.6875C14.9595 14.6875 14.5254 15.0141 14.3641 15.4688H12.7344V10.3906H14.6875V12.7344C14.6875 12.9501 14.8624 13.125 15.0781 13.125H16.3172C16.4785 13.5796 16.9127 13.9062 17.4219 13.9062C18.068 13.9062 18.5938 13.3805 18.5938 12.7344C18.5938 12.0882 18.068 11.5625 17.4219 11.5625ZM2.96875 13.125C2.75336 13.125 2.57812 12.9498 2.57812 12.7344C2.57812 12.519 2.75336 12.3438 2.96875 12.3438C3.18414 12.3438 3.35938 12.519 3.35938 12.7344C3.35938 12.9498 3.18414 13.125 2.96875 13.125ZM4.92188 16.25C4.70648 16.25 4.53125 16.0748 4.53125 15.8594C4.53125 15.644 4.70648 15.4688 4.92188 15.4688C5.13727 15.4688 5.3125 15.644 5.3125 15.8594C5.3125 16.0748 5.13727 16.25 4.92188 16.25ZM10 18.2031C9.78461 18.2031 9.60938 18.0279 9.60938 17.8125C9.60938 17.5971 9.78461 17.4219 10 17.4219C10.2154 17.4219 10.3906 17.5971 10.3906 17.8125C10.3906 18.0279 10.2154 18.2031 10 18.2031ZM15.4688 15.4688C15.6841 15.4688 15.8594 15.644 15.8594 15.8594C15.8594 16.0748 15.6841 16.25 15.4688 16.25C15.2534 16.25 15.0781 16.0748 15.0781 15.8594C15.0781 15.644 15.2534 15.4688 15.4688 15.4688ZM1.79688 7.65625C1.79688 6.69844 2.48148 5.88863 3.42473 5.73066C3.61496 5.69879 3.75348 5.53285 3.75078 5.33996C3.73695 4.23871 4.62625 3.35938 5.70312 3.35938C5.95465 3.35938 6.20027 3.40699 6.43305 3.5009C6.61227 3.5732 6.81746 3.50355 6.91566 3.33707C7.47598 2.38703 8.50816 1.79688 9.60938 1.79688C10.7232 1.79688 11.7612 2.39734 12.3184 3.36395C12.4313 3.55973 12.6859 3.61867 12.8732 3.4941C13.2106 3.26969 13.6039 3.15105 14.0104 3.15105C15.1699 3.15105 16.1193 4.11934 16.0652 5.30422C16.0557 5.51348 16.2129 5.69305 16.4216 5.71117C17.4206 5.79797 18.2031 6.65238 18.2031 7.65625C18.2031 8.7332 17.327 9.60938 16.25 9.60938H3.75C2.67305 9.60938 1.79688 8.7332 1.79688 7.65625ZM17.4219 13.125C17.2065 13.125 17.0312 12.9498 17.0312 12.7344C17.0312 12.519 17.2065 12.3438 17.4219 12.3438C17.6373 12.3438 17.8125 12.519 17.8125 12.7344C17.8125 12.9498 17.6373 13.125 17.4219 13.125Z" fill="#EC1B2E" stroke="#EC1B2E" stroke-width="0.5"/>
<path d="M14.2876 6.76752C14.7901 6.90509 15.218 7.22349 15.4926 7.664C15.6065 7.84681 15.8474 7.90318 16.0307 7.78888C16.2138 7.67478 16.2697 7.43385 16.1556 7.25076C15.7768 6.64291 15.1866 6.20365 14.4939 6.014C14.2858 5.95693 14.0709 6.07951 14.014 6.28759C13.957 6.49568 14.0795 6.71052 14.2876 6.76752Z" fill="#EC1B2E" stroke="#EC1B2E" stroke-width="0.5"/>
</svg>
