<svg width="20" height="20" viewBox="0 0 20 20" fill="none" xmlns="http://www.w3.org/2000/svg">
<path d="M8.6953 7.33547V4.7052C9.0871 4.76535 9.50839 5.1757 9.78464 5.4318L10.5682 4.56039C10.0656 4.06164 9.44925 3.59703 8.69534 3.51395V2.58496H7.52347V3.56879C6.6403 3.73027 5.86269 4.49285 5.69917 5.44434C5.44515 6.84156 6.29593 7.61301 7.52347 8.12207V11.4566C6.99417 11.4651 6.33187 11.0143 5.83956 10.6802L5.198 11.6608C5.90167 12.1687 6.79194 12.643 7.52347 12.6309V13.6336H8.69534V12.5808C9.76663 12.3766 10.6862 11.4185 10.8587 10.3065C11.0898 8.83594 10.2023 7.74598 8.6953 7.33547ZM6.85058 5.66215C6.91147 5.34035 7.12007 4.95547 7.52343 4.78902V6.81574C7.02605 6.56871 6.74245 6.25383 6.85058 5.66215ZM9.70304 10.1122C9.61909 10.6116 9.27663 11.1416 8.6953 11.3633V8.5834C9.7748 8.90445 9.76249 9.84598 9.70304 10.1122Z" fill="#EC1B2E"/>
<path d="M19.9189 13.8422L15.0895 12.2324C15.8064 11.0236 16.2187 9.61379 16.2187 8.10934C16.2187 3.63781 12.5808 0 8.10934 0C3.63785 0 0 3.63781 0 8.10934C0 12.5809 3.63781 16.2187 8.10934 16.2187C9.61379 16.2187 11.0236 15.8064 12.2324 15.0895L13.8422 19.9189L14.9832 20L16.6555 16.6555L20 14.9832L19.9189 13.8422ZM8.10934 15.0468C4.28402 15.0468 1.17188 11.9347 1.17188 8.10934C1.17188 4.28398 4.28402 1.17188 8.10934 1.17188C11.9347 1.17188 15.0468 4.28398 15.0468 8.10934C15.0468 9.48676 14.643 10.7714 13.9479 11.8519L11.9427 11.1834L11.1834 11.9426L11.8519 13.948C10.7714 14.643 9.48672 15.0468 8.10934 15.0468ZM15.782 15.782L14.5319 18.2823L12.6567 12.6567L18.2823 14.5319L15.782 15.782Z" fill="#EC1B2E"/>
</svg>
