<svg width="20" height="20" viewBox="0 0 20 20" fill="none" xmlns="http://www.w3.org/2000/svg">
<path d="M1.17188 10C1.17188 5.13215 5.13215 1.17188 10 1.17188C11.8307 1.17188 13.5767 1.72699 15.0467 2.7573H13.911C13.5874 2.7573 13.3251 3.01965 13.3251 3.34324C13.3251 3.66684 13.5874 3.92918 13.911 3.92918H16.6568C16.9804 3.92918 17.2427 3.66684 17.2427 3.34324V0.597461C17.2427 0.273867 16.9804 0.0115234 16.6568 0.0115234C16.3332 0.0115234 16.0709 0.273867 16.0709 0.597461V2.05602C14.3354 0.722617 12.223 0 10 0C7.32891 0 4.8177 1.0402 2.92891 2.92891C1.0402 4.8177 0 7.32891 0 10C0 11.7547 0.463711 13.4837 1.34102 14.9999C1.44961 15.1877 1.64641 15.2925 1.84871 15.2925C1.94832 15.2925 2.04926 15.2671 2.14164 15.2136C2.42172 15.0516 2.51738 14.6931 2.35535 14.413C1.58113 13.0749 1.17188 11.5489 1.17188 10Z" fill="#EC1B2E"/>
<path d="M18.659 5.00008C18.4969 4.71997 18.1384 4.62434 17.8584 4.78641C17.5783 4.94848 17.4826 5.30692 17.6447 5.58704C18.4189 6.92504 18.8281 8.45102 18.8281 10C18.8281 14.8679 14.8679 18.8281 10 18.8281C8.16944 18.8281 6.42381 18.2729 4.95393 17.2427H6.08901C6.4126 17.2427 6.67494 16.9804 6.67494 16.6568C6.67494 16.3332 6.4126 16.0708 6.08901 16.0708H3.34326C3.01967 16.0708 2.75732 16.3332 2.75732 16.6568V19.4025C2.75732 19.7261 3.01967 19.9885 3.34326 19.9885C3.66686 19.9885 3.9292 19.7261 3.9292 19.4025V17.9425C5.66459 19.2764 7.7767 20 10 20C12.6711 20 15.1823 18.9598 17.0711 17.0711C18.9598 15.1823 20 12.6711 20 10C20 8.2452 19.5363 6.51625 18.659 5.00008Z" fill="#EC1B2E"/>
<path d="M15.2114 8.82277C15.2516 8.67266 15.2305 8.51273 15.1528 8.37816L13.981 6.3484C13.9033 6.21383 13.7753 6.11562 13.6252 6.07539C13.4751 6.0352 13.3151 6.05621 13.1806 6.13395L12.5135 6.51906C12.2763 6.34695 12.0238 6.20063 11.7578 6.08121V5.3125C11.7578 4.98891 11.4954 4.72656 11.1718 4.72656H8.82807C8.50448 4.72656 8.24214 4.98891 8.24214 5.3125V6.08117C7.97612 6.20062 7.72362 6.34691 7.48636 6.51902L6.81932 6.13391C6.68475 6.05617 6.52468 6.03512 6.37471 6.07535C6.2246 6.11555 6.09663 6.21375 6.01893 6.34836L4.84706 8.37812C4.76936 8.5127 4.74831 8.67266 4.7885 8.82273C4.82874 8.97285 4.92694 9.10082 5.06151 9.17852L5.7253 9.56172C5.7105 9.70723 5.70307 9.85363 5.70307 10C5.70307 10.1464 5.7105 10.2928 5.7253 10.4382L5.06151 10.8214C4.92694 10.8991 4.82874 11.0271 4.7885 11.1772C4.74831 11.3273 4.76936 11.4872 4.84706 11.6218L6.01893 13.6516C6.09663 13.7861 6.22464 13.8843 6.37471 13.9246C6.52487 13.9648 6.68479 13.9438 6.81932 13.866L7.48636 13.4809C7.72358 13.653 7.97612 13.7993 8.24214 13.9188V14.6875C8.24214 15.0111 8.50448 15.2734 8.82807 15.2734H11.1718C11.4954 15.2734 11.7578 15.0111 11.7578 14.6875V13.9188C12.0238 13.7994 12.2763 13.6531 12.5135 13.481L13.1806 13.8661C13.3151 13.9438 13.4751 13.9648 13.6252 13.9246C13.7753 13.8845 13.9033 13.7863 13.981 13.6516L15.1528 11.6219C15.2305 11.4873 15.2516 11.3273 15.2114 11.1773C15.1712 11.0271 15.073 10.8992 14.9384 10.8215L14.2746 10.4383C14.2894 10.2928 14.2968 10.1464 14.2968 10C14.2968 9.85363 14.2894 9.70723 14.2746 9.5618L14.9384 9.17859C15.073 9.10086 15.1712 8.97289 15.2114 8.82277ZM13.0617 9.37125C13.1037 9.57684 13.1249 9.7884 13.1249 10C13.1249 10.2116 13.1037 10.4232 13.0617 10.6288C13.0112 10.8758 13.1245 11.1274 13.3428 11.2534L13.845 11.5434L13.2591 12.5582L12.7527 12.2659C12.5342 12.1397 12.2595 12.1676 12.0707 12.3351C11.7512 12.6187 11.3865 12.83 10.9867 12.9631C10.7473 13.0428 10.5858 13.2668 10.5858 13.5191V14.1016H9.41397V13.5191C9.41397 13.2668 9.25249 13.0428 9.01311 12.9631C8.61335 12.83 8.24862 12.6187 7.92909 12.3351C7.74038 12.1675 7.46561 12.1397 7.24714 12.2659L6.74077 12.5582L6.15483 11.5434L6.65702 11.2534C6.87534 11.1274 6.98858 10.8758 6.93811 10.6288C6.89624 10.4232 6.87495 10.2116 6.87495 10C6.87495 9.7884 6.89624 9.57684 6.93819 9.37125C6.98866 9.12422 6.87542 8.87262 6.6571 8.74656L6.15491 8.45664L6.74085 7.4418L7.24721 7.73414C7.46569 7.86031 7.74042 7.83246 7.92917 7.66492C8.2487 7.38129 8.61343 7.17 9.01323 7.03687C9.25257 6.95715 9.41405 6.7332 9.41405 6.48094V5.89844H10.5859V6.48094C10.5859 6.7332 10.7474 6.95715 10.9867 7.03687C11.3865 7.17 11.7513 7.38129 12.0708 7.66492C12.2595 7.83246 12.5343 7.86027 12.7528 7.73414L13.2591 7.4418L13.8451 8.45664L13.3429 8.74656C13.1245 8.87262 13.0112 9.12422 13.0617 9.37125Z" fill="#EC1B2E"/>
<path d="M10 7.85156C8.81535 7.85156 7.85156 8.81535 7.85156 10C7.85156 11.1846 8.81535 12.1484 10 12.1484C11.1846 12.1484 12.1484 11.1846 12.1484 10C12.1484 8.81535 11.1846 7.85156 10 7.85156ZM10 10.9766C9.46152 10.9766 9.02344 10.5385 9.02344 10C9.02344 9.46152 9.46152 9.02344 10 9.02344C10.5385 9.02344 10.9766 9.46152 10.9766 10C10.9766 10.5385 10.5385 10.9766 10 10.9766Z" fill="#EC1B2E"/>
</svg>
