<svg width="20" height="20" viewBox="0 0 20 20" fill="none" xmlns="http://www.w3.org/2000/svg">
<path d="M20.0008 8.20312C20.0008 9.62769 19.6297 11.0312 18.9277 12.2621C18.7139 12.6369 18.2369 12.7673 17.862 12.5536C17.4872 12.3398 17.3566 11.8626 17.5705 11.4879C18.1382 10.4926 18.4383 9.35669 18.4383 8.20312C18.4383 4.54147 15.4593 1.5625 11.7977 1.5625C8.13604 1.5625 5.15707 4.54147 5.15707 8.20312C5.15707 11.8648 8.13604 14.8438 11.7977 14.8438C12.9372 14.8438 14.061 14.5505 15.0475 13.9957C15.4236 13.7842 15.9 13.9177 16.1115 14.2937C16.323 14.6698 16.1896 15.1462 15.8135 15.3575C14.5937 16.0437 13.205 16.4062 11.7977 16.4062C9.82595 16.4062 8.01458 15.7068 6.59826 14.5432L1.33261 19.7731C1.18033 19.9243 0.981198 20 0.782071 20C0.581265 20 0.38046 19.9231 0.227719 19.7693C-0.0762359 19.4632 -0.0745574 18.9685 0.231534 18.6644L5.49017 13.4416C4.30716 12.0197 3.59457 10.1932 3.59457 8.20312C3.59457 3.67996 7.27453 0 11.7977 0C16.3209 0 20.0008 3.67996 20.0008 8.20312ZM17.0463 7.87109C17.2356 8.14056 17.2356 8.49991 17.0464 8.76938C17.0189 8.80844 16.9246 8.94196 16.8661 9.01566C16.6045 9.34448 15.992 10.1151 15.1398 10.7951C14.0471 11.6672 12.9227 12.1094 11.7977 12.1094C10.6728 12.1094 9.5484 11.6672 8.45571 10.7951C7.60336 10.1151 6.99087 9.34464 6.72933 9.01566C6.67074 8.94196 6.57659 8.80859 6.54898 8.76938C6.35977 8.49991 6.35977 8.14056 6.54913 7.87109C6.57659 7.83203 6.67074 7.69867 6.72933 7.62512C6.99087 7.29599 7.60351 6.52557 8.45571 5.84549C9.54824 4.97345 10.6728 4.53125 11.7977 4.53125C12.9227 4.53125 14.0471 4.97345 15.1398 5.84549C15.992 6.52557 16.6045 7.29599 16.8661 7.62512C16.9246 7.69882 17.0188 7.83203 17.0463 7.87109ZM15.4166 8.32031C14.1744 6.8425 12.9581 6.09375 11.7977 6.09375C10.6374 6.09375 9.42114 6.8425 8.17892 8.32031C9.42114 9.79813 10.6374 10.5469 11.7977 10.5469C12.9581 10.5469 14.1742 9.79828 15.4166 8.32031ZM11.8368 6.83594C11.0169 6.83594 10.3524 7.50046 10.3524 8.32031C10.3524 9.14017 11.0169 9.80469 11.8368 9.80469C12.6566 9.80469 13.3211 9.14017 13.3211 8.32031C13.3211 7.50046 12.6566 6.83594 11.8368 6.83594Z" fill="#EC1B2E"/>
</svg>
