<svg width="20" height="16" viewBox="0 0 20 16" fill="none" xmlns="http://www.w3.org/2000/svg">
<path d="M18.219 5.40846H17.3019V2.30099C17.3019 1.14234 16.3603 0.200684 15.2016 0.200684H2.10031C0.941658 0.200684 0 1.14234 0 2.30099V10.7841C0 11.9428 0.941658 12.8844 2.10031 12.8844H7.91402V14.3256H6.13306C5.72774 14.3256 5.39611 14.6572 5.39611 15.0625C5.39611 15.4678 5.72774 15.7995 6.13306 15.7995H11.173C11.5783 15.7995 11.9099 15.4678 11.9099 15.0625C11.9099 14.6572 11.5783 14.3256 11.173 14.3256H9.39202V12.8844H11.0379C11.4432 12.8844 11.7748 12.5528 11.7748 12.1475C11.7748 11.7421 11.4432 11.4105 11.0379 11.4105H2.10031C1.7564 11.4105 1.4739 11.1321 1.4739 10.7841V2.30099C1.4739 1.95708 1.7523 1.67458 2.10031 1.67458H15.2016C15.5455 1.67458 15.828 1.95299 15.828 2.30099V5.40846H14.911C13.9284 5.40846 13.13 6.20683 13.13 7.18943V14.0185C13.13 15.0011 13.9284 15.7995 14.911 15.7995H18.2231C18.6285 15.7995 18.9601 15.4678 18.9601 15.0625C18.9601 14.6572 18.6285 14.3256 18.2231 14.3256H14.911C14.7431 14.3256 14.6039 14.1904 14.6039 14.0185V7.18943C14.6039 7.02156 14.739 6.88236 14.911 6.88236H18.2231C18.391 6.88236 18.5302 7.01747 18.5302 7.18943V12.344C18.5302 12.7493 18.8618 13.0809 19.2671 13.0809C19.6725 13.0809 20 12.7493 20 12.344V7.18943C20 6.20683 19.2016 5.40846 18.219 5.40846Z" fill="#EC1B2E"/>
</svg>
