<svg width="20" height="18" viewBox="0 0 20 18" fill="none" xmlns="http://www.w3.org/2000/svg">
<path d="M18.4375 7.4375V3.53125C18.4375 2.66974 17.7365 1.96875 16.875 1.96875H3.125C2.26349 1.96875 1.5625 2.66974 1.5625 3.53125V11.3437C1.5625 12.2053 2.26349 12.9062 3.125 12.9062H16.875C17.7365 12.9062 18.4375 12.2053 18.4375 11.3437C18.4375 10.9122 18.7872 10.5625 19.2188 10.5625C19.6503 10.5625 20 10.9122 20 11.3437C20 13.0669 18.5982 14.4687 16.875 14.4687H10.7812V16.0265H13.5156C13.9471 16.0265 14.2969 16.3762 14.2969 16.8078C14.2969 17.2393 13.9471 17.589 13.5156 17.589H6.48438C6.05286 17.589 5.70312 17.2393 5.70312 16.8078C5.70312 16.3762 6.05286 16.0265 6.48438 16.0265H9.21875V14.4687H3.125C1.40182 14.4687 0 13.0669 0 11.3437V3.53125C0 1.80807 1.40182 0.40625 3.125 0.40625H16.875C18.5982 0.40625 20 1.80807 20 3.53125V7.4375C20 7.86902 19.6503 8.21875 19.2188 8.21875C18.7872 8.21875 18.4375 7.86902 18.4375 7.4375ZM7.96875 3.52652C8.83026 3.52652 9.53125 4.22736 9.53125 5.08902V9.77652C9.53125 10.638 8.83026 11.339 7.96875 11.339H4.6875C3.82599 11.339 3.125 10.638 3.125 9.77652V5.08902C3.125 4.22736 3.82599 3.52652 4.6875 3.52652H7.96875ZM7.96967 9.77652L7.96875 5.08902H4.6875V9.77652H7.96875H7.96967ZM16.875 6.65625C16.875 7.51776 16.174 8.21875 15.3125 8.21875H12.6562C11.7947 8.21875 11.0938 7.51776 11.0938 6.65625V5.08902C11.0938 4.22736 11.7947 3.52652 12.6562 3.52652H15.3125C16.174 3.52652 16.875 4.22736 16.875 5.08902V6.65625ZM15.3134 6.65625L15.3125 5.08902H12.6562V6.65625H15.3125H15.3134ZM11.875 9.78125C11.4435 9.78125 11.0938 10.131 11.0938 10.5625C11.0938 10.994 11.4435 11.3437 11.875 11.3437H16.0938C16.5253 11.3437 16.875 10.994 16.875 10.5625C16.875 10.131 16.5253 9.78125 16.0938 9.78125H11.875Z" fill="#EC1B2E"/>
</svg>
