<svg width="18" height="18" viewBox="0 0 18 18" fill="none" xmlns="http://www.w3.org/2000/svg">
<path d="M6.68053 -9.89623e-07C10.3639 -6.67608e-07 13.3606 2.99664 13.3606 6.68005C13.3606 7.95077 13.0038 9.13965 12.3854 10.1521C15.8912 12.9076 16.2786 13.2948 16.4092 13.4254L17.3836 14.3998C18.2061 15.2224 18.2061 16.5606 17.3836 17.3832C16.9724 17.7944 16.4322 18 15.892 18C15.3518 18 14.8116 17.7944 14.4004 17.3831L13.4259 16.4087C13.2961 16.2788 12.9078 15.8904 10.1686 12.3749C9.15267 12.9994 7.958 13.3601 6.68052 13.3601C5.67683 13.3601 4.7116 13.1428 3.81165 12.7142C3.46102 12.5472 3.31216 12.1276 3.47913 11.777C3.64613 11.4264 4.06574 11.2774 4.4163 11.4445C5.1259 11.7825 5.88767 11.9538 6.68052 11.9538C9.58846 11.9538 11.9542 9.58798 11.9542 6.68005C11.9542 3.77212 9.58846 1.40633 6.68053 1.40633C3.77259 1.40633 1.4068 3.77212 1.4068 6.68005C1.4068 7.63252 1.66321 8.56562 2.14835 9.37844C2.34738 9.71188 2.23839 10.1436 1.90492 10.3426C1.57141 10.5416 1.13977 10.4327 0.940742 10.0992C0.32558 9.06852 0.000438001 7.88622 0.000438106 6.68005C0.00047276 2.99664 2.99714 -1.31163e-06 6.68053 -9.89623e-07ZM14.4203 15.4143L15.3948 16.3887C15.6689 16.6629 16.115 16.6629 16.3892 16.3887C16.6633 16.1145 16.6633 15.6685 16.3892 15.3943L15.4147 14.4199C15.2405 14.2456 14.4992 13.6025 11.5305 11.2688C11.4501 11.3537 11.3677 11.4366 11.283 11.5172C13.609 14.5022 14.2476 15.2416 14.4203 15.4143Z" fill="#858687"/>
</svg>
