<svg width="512" height="512" viewBox="0 0 512 512" fill="none" xmlns="http://www.w3.org/2000/svg">
<path d="M255.948 207.193C215.613 207.193 183.081 239.676 182.934 279.768C182.934 287.815 189.411 294.254 197.507 294.254C205.603 294.254 212.08 287.815 212.08 279.768C212.08 255.771 231.659 236.311 255.8 236.311C263.897 236.311 270.374 229.873 270.374 221.825C270.521 213.778 264.044 207.193 255.948 207.193Z" fill="#EE0033"/>
<path d="M255.947 149.251C183.375 149.251 124.64 207.778 124.64 279.914C124.64 329.517 152.903 374.729 197.506 396.824V414.089C197.506 422.137 203.984 428.575 212.08 428.575H299.667C307.764 428.575 314.241 422.137 314.241 414.089V396.824C379.158 364.78 405.655 286.352 373.417 221.825C351.337 177.344 305.703 149.251 255.947 149.251ZM294.221 373.851C288.774 376.046 285.094 381.314 285.094 387.313V399.457H226.8V387.313C226.8 381.46 223.12 376.046 217.674 373.851C165.416 352.781 140.096 293.668 161.294 241.725C182.491 189.781 241.963 164.614 294.221 185.684C346.479 206.754 371.798 265.867 350.6 317.811C340.296 343.271 319.834 363.463 294.221 373.851Z" fill="#EE0033"/>
<path d="M299.667 482.859C307.763 482.859 314.241 476.421 314.241 468.374C314.241 460.326 307.763 453.888 299.667 453.888H212.08C203.983 453.888 197.506 460.326 197.506 468.374C197.506 476.421 203.983 482.859 212.08 482.859H299.667Z" fill="#EE0033"/>
<path d="M131.116 91.7468C128.025 88.6741 123.903 86.9183 119.487 86.9183C115.071 86.9183 110.949 88.6741 107.858 91.7468C101.381 98.1849 101.381 108.574 107.858 114.865L142.01 148.812C145.101 151.884 149.223 153.64 153.639 153.64C158.055 153.64 162.177 151.884 165.268 148.812C171.745 142.373 171.745 131.985 165.268 125.693L131.116 91.7468Z" fill="#EE0033"/>
<path d="M404.036 91.7468C400.944 88.6741 396.823 86.9183 392.406 86.9183C387.99 86.9183 383.869 88.6741 380.777 91.7468L346.625 125.693C343.534 128.766 341.768 132.863 341.768 137.252C341.768 141.642 343.534 145.739 346.625 148.812C349.717 151.884 353.838 153.64 358.255 153.64C362.671 153.64 366.793 151.884 369.884 148.812L404.036 114.865C407.127 111.793 408.894 107.696 408.894 103.306C408.894 98.9165 407.127 94.8195 404.036 91.7468Z" fill="#EE0033"/>
<path d="M255.946 30C246.82 30 239.459 37.316 239.459 46.3878V95.1123C239.459 104.184 246.82 111.5 255.946 111.5C265.073 111.5 272.434 104.184 272.434 95.1123V46.3878C272.434 37.316 265.073 30 255.946 30Z" fill="#EE0033"/>
</svg>
