<svg width="25" height="25" viewBox="0 0 25 25" fill="none" xmlns="http://www.w3.org/2000/svg">
<g clip-path="url(#clip0_2573_25274)">
<path d="M12.355 22.9629C6.83198 22.9629 2.35498 18.4859 2.35498 12.9629C2.35498 7.43989 6.83198 2.96289 12.355 2.96289C17.878 2.96289 22.355 7.43989 22.355 12.9629C22.355 18.4859 17.878 22.9629 12.355 22.9629ZM12.355 20.9629C14.4767 20.9629 16.5115 20.12 18.0118 18.6197C19.5121 17.1195 20.355 15.0846 20.355 12.9629C20.355 10.8412 19.5121 8.80633 18.0118 7.30604C16.5115 5.80575 14.4767 4.96289 12.355 4.96289C10.2332 4.96289 8.19842 5.80575 6.69813 7.30604C5.19784 8.80633 4.35498 10.8412 4.35498 12.9629C4.35498 15.0846 5.19784 17.1195 6.69813 18.6197C8.19842 20.12 10.2332 20.9629 12.355 20.9629ZM11.358 16.9629L7.11498 12.7199L8.52898 11.3059L11.358 14.1349L17.014 8.47789L18.429 9.89189L11.358 16.9629Z" fill="white"/>
</g>
<defs>
<clipPath id="clip0_2573_25274">
<rect width="24" height="24" fill="white" transform="translate(0.35498 0.962891)"/>
</clipPath>
</defs>
</svg>
