<svg width="24" height="25" viewBox="0 0 24 25" fill="none" xmlns="http://www.w3.org/2000/svg">
<g clip-path="url(#clip0_2573_25132)">
<path d="M12 22.0884C6.477 22.0884 2 17.6114 2 12.0884C2 6.56538 6.477 2.08838 12 2.08838C17.523 2.08838 22 6.56538 22 12.0884C22 17.6114 17.523 22.0884 12 22.0884ZM12 20.0884C14.1217 20.0884 16.1566 19.2455 17.6569 17.7452C19.1571 16.2449 20 14.2101 20 12.0884C20 9.96665 19.1571 7.93182 17.6569 6.43152C16.1566 4.93123 14.1217 4.08838 12 4.08838C9.87827 4.08838 7.84344 4.93123 6.34315 6.43152C4.84285 7.93182 4 9.96665 4 12.0884C4 14.2101 4.84285 16.2449 6.34315 17.7452C7.84344 19.2455 9.87827 20.0884 12 20.0884ZM11.003 16.0884L6.76 11.8454L8.174 10.4314L11.003 13.2604L16.659 7.60338L18.074 9.01738L11.003 16.0884Z" fill="#EA0033"/>
</g>
<defs>
<clipPath id="clip0_2573_25132">
<rect width="24" height="24" fill="white" transform="translate(0 0.0883789)"/>
</clipPath>
</defs>
</svg>
