<svg width="34" height="51" viewBox="0 0 34 51" fill="none" xmlns="http://www.w3.org/2000/svg">
<path d="M16.9297 19.6419C12.4651 19.6419 8.86408 23.2427 8.84778 27.6868C8.84778 28.5789 9.56473 29.2926 10.4609 29.2926C11.3571 29.2926 12.074 28.5789 12.074 27.6868C12.074 25.0268 14.2412 22.8696 16.9134 22.8696C17.8096 22.8696 18.5265 22.156 18.5265 21.2639C18.5428 20.3718 17.8259 19.6419 16.9297 19.6419Z" fill="#EC1B2E"/>
<path d="M16.9297 13.219C8.89666 13.219 2.39526 19.7068 2.39526 27.7031C2.39526 33.2015 5.52376 38.2133 10.4609 40.6625V42.5764C10.4609 43.4685 11.1779 44.1822 12.074 44.1822H21.7691C22.6653 44.1822 23.3822 43.4685 23.3822 42.5764V40.6625C30.568 37.1104 33.5009 28.4167 29.9325 21.2639C27.4884 16.3331 22.4372 13.219 16.9297 13.219ZM21.1662 38.116C20.5633 38.3593 20.156 38.9432 20.156 39.6082V40.9545H13.7035V39.6082C13.7035 38.9595 13.2961 38.3593 12.6932 38.116C6.90876 35.7804 4.10616 29.2277 6.45252 23.4697C8.79889 17.7118 15.3818 14.922 21.1662 17.2576C26.9507 19.5933 29.7533 26.146 27.4069 31.9039C26.2663 34.7261 24.0014 36.9644 21.1662 38.116Z" fill="#EC1B2E"/>
<path d="M21.7691 50.1996C22.6653 50.1996 23.3822 49.486 23.3822 48.5939C23.3822 47.7018 22.6653 46.9882 21.7691 46.9882H12.074C11.1778 46.9882 10.4609 47.7018 10.4609 48.5939C10.4609 49.486 11.1778 50.1996 12.074 50.1996H21.7691Z" fill="#EC1B2E"/>
<path d="M3.1122 6.84467C2.77002 6.50405 2.31378 6.30942 1.82496 6.30942C1.33613 6.30942 0.879889 6.50405 0.53771 6.84467C-0.179237 7.55833 -0.179237 8.70992 0.53771 9.40736L4.31797 13.1703C4.66015 13.5109 5.11639 13.7056 5.60521 13.7056C6.09404 13.7056 6.55028 13.5109 6.89246 13.1703C7.60941 12.4566 7.60941 11.3051 6.89246 10.6076L3.1122 6.84467Z" fill="#EC1B2E"/>
<path d="M33.3217 6.84467C32.9795 6.50405 32.5233 6.30942 32.0345 6.30942C31.5456 6.30942 31.0894 6.50405 30.7472 6.84467L26.9669 10.6076C26.6248 10.9482 26.4292 11.4024 26.4292 11.889C26.4292 12.3755 26.6248 12.8297 26.9669 13.1703C27.3091 13.5109 27.7654 13.7056 28.2542 13.7056C28.743 13.7056 29.1993 13.5109 29.5414 13.1703L33.3217 9.40736C33.6639 9.06675 33.8594 8.6126 33.8594 8.12601C33.8594 7.63943 33.6639 7.18528 33.3217 6.84467Z" fill="#EC1B2E"/>
<path d="M16.9297 0C15.9195 0 15.1048 0.810979 15.1048 1.81659V7.21772C15.1048 8.22333 15.9195 9.03431 16.9297 9.03431C17.9399 9.03431 18.7547 8.22333 18.7547 7.21772V1.81659C18.7547 0.810979 17.9399 0 16.9297 0Z" fill="#EC1B2E"/>
</svg>
