<svg width="25" height="25" viewBox="0 0 25 25" fill="none" xmlns="http://www.w3.org/2000/svg">
<path fill-rule="evenodd" clip-rule="evenodd" d="M12.6875 3.22656C10.2431 3.22656 9.9371 3.23676 8.9771 3.28056C8.0189 3.32436 7.3643 3.47676 6.7919 3.69936C6.1919 3.92496 5.6477 4.27896 5.1977 4.73736C4.74003 5.18684 4.38581 5.73066 4.1597 6.33096C3.9383 6.90336 3.7853 7.55856 3.7415 8.51676C3.6983 9.47616 3.6875 9.78156 3.6875 12.2266C3.6875 14.6716 3.6977 14.977 3.7415 15.937C3.7853 16.8952 3.9377 17.5498 4.1603 18.1222C4.3859 18.7222 4.7399 19.2664 5.1983 19.7164C5.64779 20.174 6.19161 20.5282 6.7919 20.7544C7.3643 20.9764 8.0189 21.1288 8.9771 21.1726C9.9371 21.2164 10.2431 21.2266 12.6875 21.2266C15.1319 21.2266 15.4379 21.2164 16.3979 21.1726C17.3561 21.1288 18.0107 20.9764 18.5831 20.7538C19.1831 20.5282 19.7273 20.1742 20.1773 19.7158C20.635 19.2663 20.9892 18.7225 21.2153 18.1222C21.4373 17.5498 21.5897 16.8952 21.6335 15.937C21.6773 14.977 21.6875 14.671 21.6875 12.2266C21.6875 9.78216 21.6773 9.47616 21.6335 8.51616C21.5897 7.55796 21.4373 6.90336 21.2147 6.33096C20.9887 5.7304 20.6345 5.18636 20.1767 4.73676C19.7272 4.2791 19.1834 3.92488 18.5831 3.69876C18.0107 3.47736 17.3555 3.32436 16.3973 3.28056C15.4379 3.23736 15.1325 3.22656 12.6875 3.22656ZM12.6875 4.84836C15.0905 4.84836 15.3755 4.85736 16.3247 4.90056C17.2019 4.94076 17.6783 5.08656 17.9957 5.21076C18.4157 5.37336 18.7157 5.56896 19.0307 5.88336C19.3457 6.19836 19.5407 6.49836 19.7033 6.91836C19.8269 7.23576 19.9733 7.71216 20.0135 8.58936C20.0567 9.53856 20.0657 9.82356 20.0657 12.2266C20.0657 14.6296 20.0567 14.9146 20.0135 15.8638C19.9733 16.741 19.8275 17.2174 19.7033 17.5348C19.5593 17.9257 19.3294 18.2794 19.0307 18.5698C18.7403 18.8686 18.3867 19.0984 17.9957 19.2424C17.6783 19.366 17.2019 19.5124 16.3247 19.5526C15.3755 19.5958 15.0911 19.6048 12.6875 19.6048C10.2839 19.6048 9.9995 19.5958 9.0503 19.5526C8.1731 19.5124 7.6967 19.3666 7.3793 19.2424C6.98837 19.0983 6.6347 18.8685 6.3443 18.5698C6.04561 18.2793 5.81578 17.9257 5.6717 17.5348C5.5481 17.2174 5.4017 16.741 5.3615 15.8638C5.3183 14.9146 5.3093 14.6296 5.3093 12.2266C5.3093 9.82356 5.3183 9.53856 5.3615 8.58936C5.4017 7.71216 5.5475 7.23576 5.6717 6.91836C5.8343 6.49836 6.0299 6.19836 6.3443 5.88336C6.63466 5.58459 6.98835 5.35475 7.3793 5.21076C7.6967 5.08716 8.1731 4.94076 9.0503 4.90056C9.9995 4.85736 10.2845 4.84836 12.6875 4.84836Z" fill="#828282"/>
<path fill-rule="evenodd" clip-rule="evenodd" d="M12.6875 15.2294C12.2932 15.2294 11.9027 15.1517 11.5383 15.0008C11.174 14.8498 10.8429 14.6286 10.5641 14.3498C10.2852 14.0709 10.064 13.7399 9.91311 13.3756C9.7622 13.0112 9.68452 12.6207 9.68452 12.2264C9.68452 11.832 9.7622 11.4415 9.91311 11.0772C10.064 10.7128 10.2852 10.3818 10.5641 10.1029C10.8429 9.82406 11.174 9.60286 11.5383 9.45194C11.9027 9.30103 12.2932 9.22335 12.6875 9.22335C13.484 9.22335 14.2478 9.53974 14.811 10.1029C15.3741 10.6661 15.6905 11.4299 15.6905 12.2264C15.6905 13.0228 15.3741 13.7866 14.811 14.3498C14.2478 14.913 13.484 15.2294 12.6875 15.2294ZM12.6875 7.60035C11.4606 7.60035 10.284 8.08773 9.41645 8.95528C8.5489 9.82282 8.06152 10.9995 8.06152 12.2264C8.06152 13.4532 8.5489 14.6299 9.41645 15.4974C10.284 16.365 11.4606 16.8524 12.6875 16.8524C13.9144 16.8524 15.0911 16.365 15.9586 15.4974C16.8261 14.6299 17.3135 13.4532 17.3135 12.2264C17.3135 10.9995 16.8261 9.82282 15.9586 8.95528C15.0911 8.08773 13.9144 7.60035 12.6875 7.60035ZM18.6593 7.51635C18.6593 7.80637 18.5441 8.0845 18.339 8.28957C18.134 8.49464 17.8558 8.60985 17.5658 8.60985C17.2758 8.60985 16.9977 8.49464 16.7926 8.28957C16.5875 8.0845 16.4723 7.80637 16.4723 7.51635C16.4723 7.22634 16.5875 6.9482 16.7926 6.74313C16.9977 6.53806 17.2758 6.42285 17.5658 6.42285C17.8558 6.42285 18.134 6.53806 18.339 6.74313C18.5441 6.9482 18.6593 7.22634 18.6593 7.51635Z" fill="#828282"/>
</svg>
