<svg width="25" height="25" viewBox="0 0 25 25" fill="none" xmlns="http://www.w3.org/2000/svg">
<path d="M21.6875 4.55009V19.903C21.6875 20.2541 21.5481 20.5907 21.2998 20.8389C21.0516 21.0871 20.715 21.2266 20.364 21.2266H5.01103C4.66001 21.2266 4.32336 21.0871 4.07515 20.8389C3.82694 20.5907 3.6875 20.2541 3.6875 19.903V4.55009C3.6875 4.19907 3.82694 3.86243 4.07515 3.61422C4.32336 3.36601 4.66001 3.22656 5.01103 3.22656H20.364C20.715 3.22656 21.0516 3.36601 21.2998 3.61422C21.5481 3.86243 21.6875 4.19907 21.6875 4.55009ZM8.98162 10.1089H6.33456V18.5795H8.98162V10.1089ZM9.21985 7.19715C9.22125 6.99692 9.18319 6.79838 9.10785 6.61286C9.03252 6.42734 8.92137 6.25848 8.78078 6.11591C8.64018 5.97334 8.47287 5.85987 8.28841 5.78196C8.10396 5.70405 7.90596 5.66324 7.70574 5.66186H7.65809C7.2509 5.66186 6.86039 5.82361 6.57247 6.11153C6.28455 6.39946 6.12279 6.78997 6.12279 7.19715C6.12279 7.60434 6.28455 7.99484 6.57247 8.28277C6.86039 8.57069 7.2509 8.73244 7.65809 8.73244C7.85833 8.73737 8.05758 8.70279 8.24446 8.63069C8.43133 8.55858 8.60217 8.45036 8.7472 8.31221C8.89224 8.17406 9.00863 8.00868 9.08973 7.82553C9.17083 7.64238 9.21505 7.44504 9.21985 7.2448V7.19715ZM19.0404 13.4336C19.0404 10.8872 17.4204 9.89715 15.811 9.89715C15.2841 9.87077 14.7594 9.983 14.2894 10.2227C13.8193 10.4623 13.4203 10.821 13.1322 11.263H13.0581V10.1089H10.5699V18.5795H13.2169V14.0742C13.1786 13.6128 13.324 13.1549 13.6214 12.8C13.9188 12.4452 14.3442 12.222 14.8051 12.1789H14.9057C15.7475 12.1789 16.3722 12.7083 16.3722 14.0424V18.5795H19.0193L19.0404 13.4336Z" fill="#828282"/>
</svg>
