<svg width="33" height="33" viewBox="0 0 33 33" fill="none" xmlns="http://www.w3.org/2000/svg">
<circle cx="16.3672" cy="16.2812" r="16" fill="#EA0033"/>
<g clip-path="url(#clip0_2573_24678)">
<path d="M8.03385 10.8646V9.60875C8.03538 9.3899 8.12294 9.18043 8.27761 9.0256C8.43229 8.87076 8.64167 8.783 8.86052 8.78125H23.8739C24.3305 8.78125 24.7005 9.15208 24.7005 9.60875V22.9537C24.699 23.1726 24.6114 23.3821 24.4568 23.5369C24.3021 23.6917 24.0927 23.7795 23.8739 23.7812H8.86052C8.6412 23.781 8.43093 23.6937 8.27593 23.5386C8.12092 23.3834 8.03385 23.1731 8.03385 22.9537V22.1146H23.0339V12.3646L16.3672 18.3646L8.03385 10.8646ZM6.36719 14.6146H10.5339V16.2812H6.36719V14.6146ZM6.36719 18.7812H13.0339V20.4479H6.36719V18.7812Z" fill="white"/>
</g>
<defs>
<clipPath id="clip0_2573_24678">
<rect width="20" height="20" fill="white" transform="translate(6.36719 6.28125)"/>
</clipPath>
</defs>
</svg>
