<svg width="65" height="65" viewBox="0 0 65 65" fill="none" xmlns="http://www.w3.org/2000/svg">
<g clip-path="url(#clip0_2573_25180)">
<path d="M24.913 7.62744C24.223 7.62744 23.663 8.18744 23.663 8.87744C23.663 9.56744 24.223 10.1274 24.913 10.1274C25.603 10.1274 26.163 9.56744 26.163 8.87744C26.163 8.18744 25.603 7.62744 24.913 7.62744Z" fill="#EA0033"/>
<path d="M32.4129 17.6274C31.7237 17.6274 31.1629 17.0667 31.1629 16.3774C31.1629 15.6882 31.7237 15.1274 32.4129 15.1274C32.8557 15.1274 33.3232 15.3533 33.7648 15.7808C34.2612 16.2609 35.0523 16.2478 35.5324 15.7518C36.0124 15.2557 35.9994 14.4643 35.5034 13.9842C34.8691 13.3703 34.2343 13.0231 33.6629 12.8336V11.3774C33.6629 10.6871 33.1032 10.1274 32.4129 10.1274C31.7227 10.1274 31.1629 10.6871 31.1629 11.3774V12.8424C29.7081 13.3584 28.6629 14.7478 28.6629 16.3774C28.6629 18.4452 30.3452 20.1274 32.4129 20.1274C33.1022 20.1274 33.6629 20.6882 33.6629 21.3774C33.6629 22.0667 33.1022 22.6274 32.4129 22.6274C31.8789 22.6274 31.3024 22.2916 30.7898 21.6818C30.3457 21.1533 29.557 21.0852 29.0287 21.5294C28.5002 21.9737 28.432 22.7622 28.8762 23.2906C29.5444 24.0854 30.3302 24.6393 31.1629 24.9186V26.3774C31.1629 27.0678 31.7227 27.6274 32.4129 27.6274C33.1032 27.6274 33.6629 27.0678 33.6629 26.3774V24.9124C35.1178 24.3964 36.1629 23.0071 36.1629 21.3774C36.1629 19.3097 34.4807 17.6274 32.4129 17.6274Z" fill="#EA0033"/>
<path d="M59.413 18.3774C56.656 18.3774 54.413 20.6204 54.413 23.3774V32.2862C52.7525 31.8586 50.9201 32.3002 49.6278 33.5923L41.2447 41.9754C40.0635 43.1551 39.413 44.7251 39.413 46.3962V53.7524H38.163C37.4727 53.7524 36.913 54.3121 36.913 55.0024V62.8774C36.913 63.5678 37.4727 64.1274 38.163 64.1274H55.663C56.3532 64.1274 56.913 63.5678 56.913 62.8774V55.0024C56.913 54.3121 56.3532 53.7524 55.663 53.7524H54.413V53.1624C54.413 52.8338 54.5465 52.5117 54.7795 52.2788L62.582 44.4763C63.7627 43.2954 64.413 41.7257 64.413 40.0562V23.3774C64.413 20.6204 62.17 18.3774 59.413 18.3774ZM54.413 61.6274H39.413V56.2524H54.413V61.6274ZM61.913 40.0562C61.913 41.0579 61.5227 41.9999 60.8141 42.7086L53.0116 50.5111C52.3133 51.2093 51.913 52.1757 51.913 53.1624V53.7524H41.913V46.3962C41.913 45.3934 42.303 44.4517 43.0118 43.7438L51.3956 35.3601C52.3338 34.4217 53.8411 34.3796 54.8268 35.2641C54.834 35.2703 54.8411 35.2767 54.8483 35.2828C54.8768 35.3072 54.9036 35.3334 54.9306 35.3604C55.4028 35.8323 55.663 36.4598 55.663 37.1274C55.663 37.7951 55.4028 38.4226 54.9303 38.8948L48.7191 45.1061C48.231 45.5942 48.231 46.3857 48.7191 46.8739C49.2073 47.3621 49.9986 47.3622 50.487 46.8739L56.698 40.6631C57.6426 39.7188 58.163 38.4633 58.163 37.1274C58.163 35.8974 57.7207 34.7359 56.913 33.8224V23.3774C56.913 21.9989 58.0345 20.8774 59.413 20.8774C60.7915 20.8774 61.913 21.9989 61.913 23.3774V40.0562Z" fill="#EA0033"/>
<path d="M26.663 53.7524H25.413V46.3962C25.413 44.7251 24.7625 43.1551 23.582 41.9761L15.1982 33.5923C13.9058 32.2999 12.0735 31.8584 10.413 32.2862V23.3774C10.413 20.6204 8.16996 18.3774 5.41296 18.3774C2.65596 18.3774 0.412964 20.6204 0.412964 23.3774V40.0562C0.412964 41.7257 1.06321 43.2954 2.24396 44.4763L10.0465 52.2787C10.2795 52.5117 10.413 52.8337 10.413 53.1624V53.7524H9.16296C8.47271 53.7524 7.91296 54.3121 7.91296 55.0024V62.8774C7.91296 63.5678 8.47271 64.1274 9.16296 64.1274H26.663C27.3532 64.1274 27.913 63.5678 27.913 62.8774V55.0024C27.913 54.3121 27.3532 53.7524 26.663 53.7524ZM4.01184 42.7087C3.30321 41.9999 2.91296 41.0579 2.91296 40.0562V23.3774C2.91296 21.9989 4.03446 20.8774 5.41296 20.8774C6.79146 20.8774 7.91296 21.9989 7.91296 23.3774V33.8223C7.10521 34.7358 6.66296 35.8972 6.66296 37.1274C6.66296 38.4633 7.18334 39.7188 8.12784 40.6626L14.3778 46.9126C14.8661 47.4007 15.6573 47.4007 16.1457 46.9126C16.6338 46.4244 16.6338 45.6329 16.1457 45.1447L9.89534 38.8943C9.42309 38.4226 9.16296 37.7951 9.16296 37.1274C9.16296 36.4598 9.42309 35.8323 9.89496 35.3606C9.92221 35.3334 9.94909 35.3072 9.97746 35.2828L9.99896 35.2641C10.9846 34.3796 12.492 34.4218 13.4302 35.3601L21.8146 43.7443C22.5228 44.4517 22.9128 45.3933 22.9128 46.3961V53.7524H12.9128V53.1624C12.913 52.1757 12.5126 51.2093 11.8143 50.5111L4.01184 42.7087ZM25.413 61.6274H10.413V56.2524H25.413V61.6274Z" fill="#EA0033"/>
<path d="M32.413 0.127441C22.0742 0.127441 13.663 8.53869 13.663 18.8774C13.663 29.2162 22.0742 37.6274 32.413 37.6274C42.7517 37.6274 51.163 29.2162 51.163 18.8774C51.163 8.53869 42.7517 0.127441 32.413 0.127441ZM32.413 35.1274C23.4526 35.1274 16.163 27.8377 16.163 18.8774C16.163 9.91719 23.4526 2.62744 32.413 2.62744C41.3733 2.62744 48.663 9.91719 48.663 18.8774C48.663 27.8377 41.3733 35.1274 32.413 35.1274Z" fill="#EA0033"/>
<path d="M41.0447 8.17356C37.7921 5.54731 33.5351 4.55681 29.3671 5.45544C28.6922 5.60094 28.2631 6.26594 28.4086 6.94081C28.5541 7.61556 29.2192 8.04431 29.894 7.89919C33.3201 7.16044 36.8121 7.96931 39.4743 10.1186C42.1362 12.2679 43.663 15.4603 43.663 18.8774C43.663 25.0807 38.6162 30.1274 32.413 30.1274C26.2097 30.1274 21.163 25.0807 21.163 18.8774C21.163 17.0244 21.623 15.1877 22.4932 13.5659C22.8196 12.9577 22.5911 12.1999 21.9828 11.8734C21.3745 11.5469 20.6166 11.7756 20.2903 12.3838C19.2257 14.3679 18.663 16.6133 18.663 18.8774C18.663 26.4592 24.8312 32.6274 32.413 32.6274C39.9947 32.6274 46.163 26.4592 46.163 18.8774C46.163 14.7011 44.2975 10.7997 41.0447 8.17356Z" fill="#EA0033"/>
</g>
<defs>
<clipPath id="clip0_2573_25180">
<rect width="64" height="64" fill="white" transform="translate(0.412964 0.127441)"/>
</clipPath>
</defs>
</svg>
