<svg width="33" height="33" viewBox="0 0 33 33" fill="none" xmlns="http://www.w3.org/2000/svg">
<circle cx="16.3672" cy="16.2812" r="16" fill="#EA0033"/>
<g clip-path="url(#clip0_2573_24683)">
<path d="M23.8672 19.9646V22.9112C23.8673 23.1222 23.7873 23.3254 23.6435 23.4797C23.4997 23.6341 23.3027 23.7281 23.0922 23.7429C22.728 23.7679 22.4305 23.7812 22.2005 23.7812C14.8364 23.7812 8.86719 17.8121 8.86719 10.4479C8.86719 10.2179 8.87969 9.92042 8.90552 9.55625C8.92029 9.34579 9.01434 9.14876 9.16869 9.00492C9.32304 8.86109 9.52621 8.78115 9.73719 8.78125H12.6839C12.7872 8.78115 12.8869 8.81947 12.9636 8.88877C13.0403 8.95807 13.0885 9.0534 13.0989 9.15625C13.118 9.34792 13.1355 9.50042 13.1522 9.61625C13.3178 10.772 13.6572 11.8961 14.1589 12.9504C14.238 13.1171 14.1864 13.3162 14.0364 13.4229L12.238 14.7079C13.3376 17.27 15.3793 19.3117 17.9414 20.4112L19.2247 18.6163C19.2771 18.5429 19.3537 18.4903 19.4409 18.4676C19.5282 18.4449 19.6207 18.4536 19.7022 18.4921C20.7564 18.9928 21.8802 19.3313 23.0355 19.4962C23.1514 19.5129 23.3039 19.5312 23.4939 19.5496C23.5966 19.5601 23.6917 19.6084 23.7608 19.6851C23.8299 19.7617 23.8681 19.8613 23.868 19.9646H23.8672Z" fill="white"/>
</g>
<defs>
<clipPath id="clip0_2573_24683">
<rect width="20" height="20" fill="white" transform="translate(6.36719 6.28125)"/>
</clipPath>
</defs>
</svg>
