<svg width="65" height="65" viewBox="0 0 65 65" fill="none" xmlns="http://www.w3.org/2000/svg">
<g clip-path="url(#clip0_2573_25157)">
<path d="M19.4746 26.9327C19.2421 26.7002 18.9196 26.5664 18.5908 26.5664C18.2621 26.5664 17.9397 26.7 17.7071 26.9327C17.4746 27.1652 17.3408 27.4877 17.3408 27.8164C17.3408 28.1452 17.4746 28.4676 17.7071 28.7C17.9396 28.9325 18.2621 29.0664 18.5908 29.0664C18.9196 29.0664 19.2421 28.9326 19.4746 28.7C19.7071 28.4676 19.8408 28.1452 19.8408 27.8164C19.8408 27.4877 19.7071 27.1652 19.4746 26.9327Z" fill="#EA0033"/>
<path d="M60.7782 0.816406H11.0284C8.96065 0.816406 7.27841 2.49865 7.27841 4.56639V25.3163C7.27841 27.3841 8.96065 29.0663 11.0284 29.0663H13.2784C13.9688 29.0663 14.5284 28.5065 14.5284 27.8163C14.5284 27.1261 13.9688 26.5663 13.2784 26.5663H11.0284C10.3391 26.5663 9.7784 26.0056 9.7784 25.3163V4.56639C9.7784 3.87714 10.3391 3.3164 11.0284 3.3164H60.7782C61.4674 3.3164 62.0282 3.87714 62.0282 4.56639V25.3163C62.0282 26.0056 61.4674 26.5663 60.7782 26.5663H52.4174C52.0859 26.5663 51.7679 26.6981 51.5335 26.9324L47.4174 31.0485L43.3013 26.9324C43.0669 26.6981 42.7489 26.5663 42.4174 26.5663H32.6693C32.5774 26.3303 32.4736 26.0974 32.3559 25.8689C31.4609 24.1301 29.9374 22.8592 28.0664 22.2903L26.2592 21.7408C25.623 21.5471 24.9465 21.8861 24.7202 22.5114L21.8805 30.36C21.0929 32.5369 19.5394 34.3454 17.5064 35.4525L14.8406 36.904C14.1855 36.1088 13.1936 35.6009 12.0853 35.6009H4.09779C2.1298 35.6009 0.528809 37.202 0.528809 39.17V61.2469C0.528559 63.215 2.12968 64.8162 4.09767 64.8162H12.0851C13.3294 64.8162 14.4263 64.1758 15.0653 63.2077L16.3407 63.7079C18.216 64.4435 20.1884 64.8164 22.203 64.8164H39.0689C41.5995 64.8164 43.6583 62.7577 43.6583 60.227C43.6583 59.3894 43.4316 58.6042 43.038 57.9276C44.8998 57.3424 46.2541 55.6007 46.2541 53.5483C46.2541 52.6895 46.0164 51.8852 45.6041 51.1971C47.3866 50.5666 48.6674 48.8652 48.6674 46.8695C48.6674 44.7907 47.2776 43.0314 45.3789 42.4691C45.765 41.7971 45.987 41.0195 45.987 40.1905C45.987 37.66 43.9283 35.6011 41.3976 35.6011H31.3742L32.7759 31.4394C33.0379 30.6614 33.1619 29.8614 33.1534 29.0664H41.8996L46.5335 33.7003C46.7776 33.9443 47.0975 34.0664 47.4174 34.0664C47.7373 34.0664 48.0572 33.9443 48.3012 33.7003L52.9352 29.0663H60.7782C62.8459 29.0663 64.5282 27.3841 64.5282 25.3163V4.56639C64.5282 2.49865 62.8459 0.816406 60.7782 0.816406ZM13.1543 61.247C13.1541 61.8365 12.6746 62.3162 12.0851 62.3162H4.09767C3.50817 62.3162 3.02867 61.8365 3.02867 61.247V39.1701C3.02867 38.5806 3.50817 38.101 4.09767 38.101H6.84141V53.4911C6.84141 54.1813 7.40103 54.7411 8.0914 54.7411C8.78178 54.7411 9.3414 54.1813 9.3414 53.4911V38.101H12.0851C12.552 38.101 12.9489 38.4024 13.0943 38.8204C13.1046 38.8809 13.1196 38.9409 13.1394 39.0003C13.1483 39.0558 13.1543 39.1121 13.1543 39.1701V61.247ZM41.3978 38.1009V38.101C42.5499 38.101 43.4871 39.0383 43.4871 40.1904C43.4871 41.3425 42.5499 42.2799 41.3978 42.2799H34.6164C33.9261 42.2799 33.3664 42.8396 33.3664 43.5299C33.3664 44.2201 33.9261 44.7799 34.6164 44.7799L44.0781 44.7801C45.2303 44.7801 46.1675 45.7174 46.1675 46.8695C46.1675 48.0216 45.2303 48.959 44.0781 48.959H34.6164C33.9261 48.959 33.3664 49.5187 33.3664 50.209C33.3664 50.8992 33.9261 51.459 34.6164 51.459H41.6649C42.817 51.459 43.7543 52.3962 43.7543 53.5483C43.7543 54.7004 42.817 55.6377 41.6649 55.6377H34.6164C33.9261 55.6377 33.3664 56.1974 33.3664 56.8877C33.3664 57.5779 33.9261 58.1377 34.6164 58.1377H39.069C40.2212 58.1377 41.1584 59.0751 41.1584 60.2272C41.1584 61.3793 40.2212 62.3165 39.069 62.3165H22.203C20.5021 62.3165 18.8369 62.0015 17.2535 61.3807L15.6541 60.7534V39.3076L18.7017 37.6481C21.2719 36.2486 23.2355 33.9625 24.2311 31.2107L26.6672 24.4779L27.3392 24.6822C28.5579 25.0528 29.5502 25.8806 30.1332 27.0131C30.7162 28.1455 30.8133 29.4342 30.4067 30.6413L28.4496 36.4519C28.3211 36.8334 28.3842 37.2534 28.6189 37.5801C28.8538 37.907 29.2316 38.1009 29.6342 38.1009H41.3978Z" fill="#EA0033"/>
<path d="M58.8032 12.9384C58.5665 12.2104 57.9488 11.6898 57.191 11.5799L54.98 11.2593L53.9906 9.25617C53.6516 8.5698 52.9658 8.14355 52.2003 8.14355C52.2003 8.14355 52.1999 8.14355 52.1998 8.14355C51.4342 8.1438 50.7482 8.57043 50.4095 9.25705L49.4213 11.2608L47.2103 11.5827C46.4527 11.693 45.8352 12.2139 45.5988 12.9422C45.3624 13.6703 45.5562 14.4547 46.1047 14.989L47.7049 16.548L47.3278 18.7501C47.1985 19.5049 47.503 20.253 48.1227 20.703C48.4727 20.9571 48.8819 21.0861 49.2942 21.0861C49.6117 21.0861 49.9309 21.0095 50.2258 20.8544L52.2032 19.8141L54.181 20.8533C54.8588 21.2093 55.6645 21.1509 56.2839 20.7006C56.9031 20.2504 57.2073 19.502 57.0776 18.7474L56.6994 16.5455L58.299 14.9855C58.8466 14.4508 59.04 13.6664 58.8032 12.9384ZM54.7641 14.9405C54.2935 15.3994 54.0791 16.0603 54.1904 16.7081L54.4408 18.1659L53.1309 17.4776C52.5489 17.1724 51.8543 17.1724 51.2729 17.4784L49.9638 18.1671L50.2134 16.7093C50.3244 16.0611 50.1095 15.4004 49.6387 14.9418L48.579 13.9095L50.0429 13.6964C50.6935 13.6018 51.2554 13.1933 51.546 12.6038L52.2004 11.2772L52.8554 12.6034C53.1465 13.1928 53.7086 13.6009 54.3591 13.6953L55.823 13.9075L54.7641 14.9405Z" fill="#EA0033"/>
<path d="M42.9016 12.9384C42.6648 12.2104 42.0471 11.6899 41.2894 11.5799L39.0784 11.2593L38.089 9.25617C37.75 8.5698 37.0642 8.14355 36.2987 8.14355C36.2985 8.14355 36.2983 8.14355 36.2982 8.14355C35.5325 8.1438 34.8464 8.57043 34.5078 9.25718L33.5197 11.2608L31.3087 11.5827C30.5511 11.693 29.9336 12.2139 29.6972 12.9422C29.4608 13.6703 29.6546 14.4547 30.2031 14.989L31.8033 16.548L31.4262 18.7501C31.2969 19.5049 31.6016 20.2531 32.2211 20.703C32.5709 20.9571 32.9803 21.0861 33.3924 21.0861C33.7099 21.0861 34.029 21.0095 34.3239 20.8544L36.3013 19.8141L38.2793 20.8533C38.9572 21.2093 39.7627 21.1509 40.3821 20.7006C41.0014 20.2504 41.3055 19.502 41.1759 18.7474L40.7976 16.5455L42.3973 14.9855C42.9451 14.4508 43.1385 13.6665 42.9016 12.9384ZM38.8625 14.9405C38.3919 15.3994 38.1775 16.0603 38.2888 16.7081L38.5392 18.1659L37.2293 17.4778C36.6472 17.1721 35.9525 17.1725 35.3712 17.4784L34.062 18.1671L34.3117 16.7093C34.4227 16.0611 34.2078 15.4004 33.7369 14.9418L32.6773 13.9095L34.1411 13.6964C34.7915 13.6018 35.3534 13.1934 35.6444 12.6037L36.2987 11.277L36.9535 12.6032C37.2445 13.1927 37.8068 13.6009 38.4574 13.6953L39.9213 13.9075L38.8625 14.9405Z" fill="#EA0033"/>
<path d="M27.0001 12.9384C26.7633 12.2104 26.1455 11.6898 25.3879 11.5799L23.1769 11.2593L22.1875 9.25617C21.8485 8.5698 21.1627 8.14355 20.3972 8.14355C20.397 8.14355 20.3968 8.14355 20.3967 8.14355C19.631 8.1438 18.9449 8.57043 18.6063 9.25718L17.6182 11.2608L15.4072 11.5827C14.6494 11.693 14.0321 12.214 13.7956 12.9423C13.5592 13.6704 13.7531 14.4548 14.3014 14.989L15.9017 16.548L15.5246 18.7501C15.3953 19.5049 15.6999 20.2531 16.3194 20.703C16.6693 20.9571 17.0787 21.0861 17.4908 21.0861C17.8083 21.0861 18.1274 21.0095 18.4223 20.8544L20.3997 19.8141L22.3775 20.8533C23.0553 21.2093 23.861 21.1509 24.4804 20.7006C25.0996 20.2504 25.4038 19.502 25.2741 18.7474L24.8959 16.5455L26.4955 14.9855C27.0436 14.4508 27.2369 13.6665 27.0001 12.9384ZM22.961 14.9405C22.4904 15.3994 22.276 16.0603 22.3873 16.7081L22.6377 18.1659L21.3278 17.4778C20.7458 17.1721 20.0509 17.1725 19.4697 17.4784L18.1605 18.1671L18.4103 16.7089C18.521 16.061 18.3062 15.4005 17.8354 14.9418L16.7758 13.9095L18.2395 13.6964C18.89 13.6018 19.4519 13.1934 19.7429 12.6037L20.3972 11.277L21.052 12.6032C21.343 13.1927 21.9053 13.6009 22.5559 13.6953L24.0199 13.9075L22.961 14.9405Z" fill="#EA0033"/>
<path d="M8.0913 56.7358C7.40093 56.7358 6.84131 57.2956 6.84131 57.9858V58.0053C6.84131 58.6956 7.40093 59.2553 8.0913 59.2553C8.78168 59.2553 9.3413 58.6956 9.3413 58.0053V57.9858C9.3413 57.2956 8.78168 56.7358 8.0913 56.7358Z" fill="#EA0033"/>
</g>
<defs>
<clipPath id="clip0_2573_25157">
<rect width="64" height="64" fill="white" transform="translate(0.52832 0.816406)"/>
</clipPath>
</defs>
</svg>
