<svg width="65" height="65" viewBox="0 0 65 65" fill="none" xmlns="http://www.w3.org/2000/svg">
<g clip-path="url(#clip0_2573_25138)">
<path d="M59.2593 14.6278H62.1708C62.861 14.6278 63.4205 14.0683 63.4205 13.3781C63.4205 12.6879 62.861 12.1284 62.1708 12.1284H56.7138C56.0235 12.1284 55.4641 12.6879 55.4641 13.3781V18.8352C55.4641 19.5254 56.0235 20.0849 56.7138 20.0849C57.404 20.0849 57.9635 19.5254 57.9635 18.8352V17.2844C64.58 28.664 62.8213 43.4812 53.3242 52.9783C44.9488 61.3537 32.4358 63.9088 21.4459 59.4875C20.8056 59.2301 20.0777 59.54 19.82 60.1805C19.5624 60.8208 19.8727 61.5488 20.513 61.8063C24.3955 63.3682 28.4522 64.1274 32.473 64.1274C40.7979 64.1274 48.9655 60.8718 55.0916 54.7458C60.5621 49.2753 63.8634 42.0167 64.3878 34.307C64.8619 27.3342 63.0477 20.4211 59.2593 14.6278Z" fill="#EA0033"/>
<path d="M17.1701 57.3464L17.1241 57.3184C16.5351 56.9589 15.7659 57.1449 15.4063 57.734C15.0466 58.3231 15.2327 59.0921 15.8218 59.4518L15.8735 59.4833C16.0762 59.6063 16.2998 59.6648 16.5206 59.6648C16.9429 59.6648 17.3552 59.4506 17.5902 59.0631C17.9482 58.473 17.7602 57.7045 17.1701 57.3464Z" fill="#EA0033"/>
<path d="M47.9139 6.99L47.9744 7.02736C48.1792 7.15396 48.4062 7.21432 48.6305 7.21432C49.0493 7.21432 49.4583 7.00387 49.6946 6.62171C50.0577 6.03472 49.876 5.26453 49.289 4.90149L49.2256 4.86238C48.6384 4.50022 47.8683 4.68267 47.506 5.27028C47.1439 5.85777 47.3264 6.62771 47.9139 6.99Z" fill="#EA0033"/>
<path d="M8.39208 44.2147C7.70187 44.2147 7.14238 44.7742 7.14238 45.4644V47.243C0.332127 35.8273 2.03972 20.8444 11.6149 11.2692C20.0479 2.83619 32.6284 0.308539 43.6647 4.82959C44.3035 5.0914 45.0332 4.78547 45.2949 4.147C45.5565 3.50828 45.2508 2.77845 44.6122 2.51689C38.8468 0.15495 32.5546 -0.471151 26.4152 0.706444C20.1238 1.91316 14.3948 4.95456 9.84761 9.50172C4.37716 14.9723 1.0757 22.2309 0.551325 29.9405C0.0725642 36.9804 1.92712 43.9591 5.79033 49.7862H2.82041C2.1302 49.7862 1.57071 50.3457 1.57071 51.0359C1.57071 51.7262 2.1302 52.2857 2.82041 52.2857H8.39196C9.08217 52.2857 9.64166 51.7262 9.64166 51.0359V45.4644C9.64178 44.7742 9.08229 44.2147 8.39208 44.2147Z" fill="#EA0033"/>
<path d="M32.4696 54.8579C38.294 54.8579 44.1185 52.641 48.5526 48.2069C57.4206 39.3388 57.4206 24.9092 48.5526 16.0411C44.8737 12.3622 40.202 10.1087 35.0428 9.5245C30.0365 8.95739 24.9239 10.0812 20.6458 12.6884C20.0565 13.0475 19.8699 13.8165 20.2291 14.4058C20.5883 14.9953 21.3574 15.1817 21.9466 14.8226C29.9414 9.95053 40.1554 11.1785 46.7852 17.8084C54.6788 25.702 54.6788 38.5458 46.7852 46.4395C38.8917 54.3331 26.0478 54.3331 18.1542 46.4395C11.5181 39.8034 10.2942 29.5831 15.1779 21.5855C15.5375 20.9965 15.3517 20.2273 14.7626 19.8677C14.1737 19.508 13.4046 19.694 13.0448 20.2829C10.4319 24.5619 9.30416 29.6775 9.86928 34.6874C10.4518 39.8504 12.7055 44.5254 16.387 48.2069C20.8208 52.6409 26.6453 54.8579 32.4696 54.8579Z" fill="#EA0033"/>
<path d="M49.1872 33.3934C49.8774 33.3934 50.4369 32.834 50.4369 32.1437C50.4369 31.4535 49.8774 30.894 49.1872 30.894H48.4301C47.7399 30.894 47.1804 31.4535 47.1804 32.1437C47.1804 32.834 47.7399 33.3934 48.4301 33.3934H49.1872Z" fill="#EA0033"/>
<path d="M15.752 30.854C15.0618 30.854 14.5023 31.4135 14.5023 32.1037C14.5023 32.7939 15.0618 33.3534 15.752 33.3534H16.5091C17.1993 33.3534 17.7588 32.7939 17.7588 32.1037C17.7588 31.4135 17.1993 30.854 16.5091 30.854H15.752Z" fill="#EA0033"/>
<path d="M33.7393 16.163V15.406C33.7393 14.7157 33.1798 14.1562 32.4896 14.1562C31.7994 14.1562 31.2399 14.7157 31.2399 15.406V16.163C31.2399 16.8532 31.7994 17.4127 32.4896 17.4127C33.1798 17.4127 33.7393 16.8532 33.7393 16.163Z" fill="#EA0033"/>
<path d="M31.2001 48.0842V48.8412C31.2001 49.5315 31.7596 50.0909 32.4498 50.0909C33.14 50.0909 33.6995 49.5315 33.6995 48.8412V48.0842C33.6995 47.394 33.14 46.8345 32.4498 46.8345C31.7596 46.8345 31.2001 47.3941 31.2001 48.0842Z" fill="#EA0033"/>
<path d="M26.3313 24.2183C25.8433 23.7303 25.052 23.7303 24.564 24.2183C24.076 24.7063 24.076 25.4976 24.564 25.9856L28.7136 30.1351C28.398 30.729 28.2183 31.4057 28.2183 32.1239C28.2183 34.4682 30.1254 36.3754 32.4697 36.3754C34.8139 36.3754 36.7212 34.4682 36.7212 32.1239C36.7212 31.4057 36.5415 30.729 36.2259 30.1351L44.6101 21.751C45.0981 21.263 45.0981 20.4717 44.6101 19.9837C44.1221 19.4957 43.3309 19.4957 42.8427 19.9837L34.4584 28.3679C33.8645 28.0523 33.1878 27.8726 32.4697 27.8726C31.7515 27.8726 31.0748 28.0523 30.481 28.3679L26.3313 24.2183ZM34.2217 32.124C34.2217 33.0901 33.4358 33.8761 32.4696 33.8761C31.5035 33.8761 30.7175 33.0901 30.7175 32.124C30.7175 31.158 31.5036 30.372 32.4696 30.372C33.4356 30.372 34.2217 31.158 34.2217 32.124Z" fill="#EA0033"/>
<path d="M17.2375 18.2074C17.9277 18.2074 18.4872 17.6479 18.4872 16.9577C18.4872 16.2675 17.9277 15.708 17.2375 15.708C16.5473 15.708 15.9878 16.2675 15.9878 16.9577C15.9878 17.6479 16.5473 18.2074 17.2375 18.2074Z" fill="#EA0033"/>
</g>
<defs>
<clipPath id="clip0_2573_25138">
<rect width="64" height="64" fill="white" transform="translate(0.469604 0.127441)"/>
</clipPath>
</defs>
</svg>
