<svg width="65" height="65" viewBox="0 0 65 65" fill="none" xmlns="http://www.w3.org/2000/svg">
<g clip-path="url(#clip0_2573_25203)">
<path d="M32.5872 31.3774C31.8968 31.3774 31.3372 31.9372 31.3372 32.6274V36.3774C31.3372 37.0677 31.8968 37.6274 32.5872 37.6274C33.2775 37.6274 33.8372 37.0677 33.8372 36.3774V32.6274C33.8372 31.9372 33.2775 31.3774 32.5872 31.3774Z" fill="#EA0033"/>
<path d="M32.5872 0.627441C14.8894 0.627441 0.587158 14.9254 0.587158 32.6274C0.587158 50.3251 14.885 64.6274 32.5872 64.6274C50.2849 64.6274 64.5872 50.3294 64.5872 32.6274C64.5872 14.9298 50.2893 0.627441 32.5872 0.627441ZM62.0588 31.3774H53.318C53.0594 22.4871 49.9579 11.3826 43.5 5.22057C54.0128 9.42157 61.5612 19.5033 62.0588 31.3774ZM33.8372 62.0651V59.8774C33.8372 59.1872 33.2775 58.6274 32.5872 58.6274C31.8968 58.6274 31.3372 59.1872 31.3372 59.8774V62.0651C20.1627 60.9719 14.7319 45.2991 14.3585 33.8774H20.0872V43.8774C20.0872 44.5677 20.6468 45.1274 21.3372 45.1274H31.3372V48.6274C31.3372 49.3177 31.8968 49.8774 32.5872 49.8774C33.2775 49.8774 33.8372 49.3177 33.8372 48.6274V45.1274H43.8372C44.5275 45.1274 45.0872 44.5677 45.0872 43.8774V33.8762H50.8158C50.4424 45.2991 45.0117 60.9719 33.8372 62.0651ZM42.5872 42.6274H22.5872V26.3774H42.5872V42.6274ZM38.8372 23.8774H26.3372V21.3774C26.3372 17.9312 29.1409 15.1274 32.5872 15.1274C36.0334 15.1274 38.8372 17.9312 38.8372 21.3774V23.8774ZM31.3372 3.18982V12.7182C27.1025 13.3268 23.8372 16.9772 23.8372 21.3774V23.8774H21.3372C20.6468 23.8774 20.0872 24.4372 20.0872 25.1274V31.3774H14.3585C14.7319 19.9558 20.1627 4.28294 31.3372 3.18982ZM45.0872 31.3774V25.1274C45.0872 24.4372 44.5275 23.8774 43.8372 23.8774H41.3372V21.3774C41.3372 16.9772 38.0718 13.3267 33.8372 12.7182V3.18982C45.0117 4.28294 50.4424 19.9558 50.8158 31.3774H45.0872ZM21.6843 5.21657C15.2288 11.3654 12.1152 22.4326 11.8562 31.3774H3.11553C3.61328 19.4996 11.1663 9.41494 21.6843 5.21657ZM3.11553 33.8774H11.8563C12.1149 42.7678 15.2164 53.8723 21.6743 60.0343C11.1615 55.8333 3.61316 45.7516 3.11553 33.8774ZM43.4899 60.0384C49.9454 53.8894 53.0592 42.8224 53.318 33.8762H62.0588C61.561 45.7553 54.008 55.8399 43.4899 60.0384Z" fill="#EA0033"/>
<path d="M32.5872 55.5024C33.2775 55.5024 33.8372 54.9428 33.8372 54.2524C33.8372 53.5621 33.2775 53.0024 32.5872 53.0024C31.8968 53.0024 31.3372 53.5621 31.3372 54.2524C31.3372 54.9428 31.8968 55.5024 32.5872 55.5024Z" fill="#EA0033"/>
</g>
<defs>
<clipPath id="clip0_2573_25203">
<rect width="64" height="64" fill="white" transform="translate(0.587158 0.627441)"/>
</clipPath>
</defs>
</svg>
